AnekMalayalam-ExtraBold.ufo
<glyph name="dollar" format="2">
  <advance width="1093"/>
  <unicode hex="0024"/>
  <outline>
    <component base="S"/>
    <contour>
      <point x="688" y="1474" type="line"/>
      <point x="391" y="1474" type="line"/>
      <point x="391" y="1123" type="line"/>
      <point x="688" y="1123" type="line"/>
    </contour>
    <contour>
      <point x="688" y="162" type="line"/>
      <point x="391" y="162" type="line"/>
      <point x="391" y="-200" type="line"/>
      <point x="688" y="-200" type="line"/>
    </contour>
  </outline>
</glyph>
<glyph name="zero" format="2">
  <advance width="1249"/>
  <unicode hex="0030"/>
  <outline>
    <contour>
      <point x="624" y="-29" type="curve" smooth="yes"/>
      <point x="987" y="-29"/>
      <point x="1175" y="162"/>
      <point x="1175" y="529" type="curve"/>
      <point x="1175" y="750" type="line"/>
      <point x="1175" y="1114"/>
      <point x="987" y="1306"/>
      <point x="624" y="1306" type="curve" smooth="yes"/>
      <point x="261" y="1306"/>
      <point x="74" y="1114"/>
      <point x="74" y="750" type="curve"/>
      <point x="74" y="529" type="line"/>
      <point x="74" y="162"/>
      <point x="262" y="-29"/>
    </contour>
    <contour>
      <point x="624" y="269" type="curve" smooth="yes"/>
      <point x="498" y="269"/>
      <point x="443" y="352"/>
      <point x="443" y="513" type="curve" smooth="yes"/>
      <point x="443" y="764" type="line" smooth="yes"/>
      <point x="443" y="925"/>
      <point x="496" y="1008"/>
      <point x="624" y="1008" type="curve" smooth="yes"/>
      <point x="752" y="1008"/>
      <point x="806" y="926"/>
      <point x="806" y="764" type="curve" smooth="yes"/>
      <point x="806" y="513" type="line" smooth="yes"/>
      <point x="806" y="352"/>
      <point x="752" y="269"/>
    </contour>
  </outline>
</glyph>
<glyph name="four" format="2">
  <advance width="1176"/>
  <unicode hex="0034"/>
  <outline>
    <contour>
      <point x="1007" y="0" type="line"/>
      <point x="1007" y="1278" type="line"/>
      <point x="444" y="1278" type="line"/>
      <point x="50" y="531" type="line"/>
      <point x="50" y="202" type="line"/>
      <point x="1141" y="202" type="line"/>
      <point x="1141" y="494" type="line"/>
      <point x="259" y="494" type="line"/>
      <point x="397" y="372" type="line"/>
      <point x="397" y="511" type="line"/>
      <point x="655" y="1031" type="line"/>
      <point x="679" y="1031" type="line"/>
      <point x="664" y="681" type="line"/>
      <point x="664" y="0" type="line"/>
    </contour>
  </outline>
</glyph>
<glyph name="greater" format="2">
  <advance width="1028"/>
  <unicode hex="003E"/>
  <outline>
    <contour>
      <point x="710" y="605" type="line"/>
      <point x="85" y="509" type="line"/>
      <point x="85" y="215" type="line"/>
      <point x="944" y="389" type="line"/>
      <point x="944" y="840" type="line"/>
      <point x="85" y="1014" type="line"/>
      <point x="85" y="720" type="line"/>
      <point x="710" y="625" type="line"/>
    </contour>
  </outline>
</glyph>
<glyph name="B" format="2">
  <advance width="1240"/>
  <unicode hex="0042"/>
  <anchor x="620" y="0" name="bottom"/>
  <anchor x="620" y="1278" name="top"/>
  <outline>
    <contour>
      <point x="727" y="0" type="line" smooth="yes"/>
      <point x="1046" y="0"/>
      <point x="1186" y="122"/>
      <point x="1186" y="371" type="curve" smooth="yes"/>
      <point x="1186" y="394" type="line" smooth="yes"/>
      <point x="1186" y="579"/>
      <point x="1098" y="684"/>
      <point x="901" y="705" type="curve"/>
      <point x="901" y="716" type="line"/>
      <point x="1081" y="724"/>
      <point x="1161" y="809"/>
      <point x="1161" y="960" type="curve" smooth="yes"/>
      <point x="1161" y="974" type="line" smooth="yes"/>
      <point x="1161" y="1176"/>
      <point x="1030" y="1278"/>
      <point x="710" y="1278" type="curve" smooth="yes"/>
      <point x="357" y="1278" type="line"/>
      <point x="357" y="1004" type="line"/>
      <point x="670" y="1004" type="line" smooth="yes"/>
      <point x="769" y="1004"/>
      <point x="805" y="969"/>
      <point x="805" y="896" type="curve" smooth="yes"/>
      <point x="805" y="889" type="line" smooth="yes"/>
      <point x="805" y="816"/>
      <point x="769" y="778"/>
      <point x="670" y="778" type="curve" smooth="yes"/>
      <point x="357" y="778" type="line"/>
      <point x="357" y="519" type="line"/>
      <point x="681" y="519" type="line" smooth="yes"/>
      <point x="784" y="519"/>
      <point x="823" y="483"/>
      <point x="823" y="406" type="curve" smooth="yes"/>
      <point x="823" y="395" type="line" smooth="yes"/>
      <point x="823" y="318"/>
      <point x="784" y="282"/>
      <point x="681" y="282" type="curve" smooth="yes"/>
      <point x="364" y="282" type="line"/>
      <point x="364" y="0" type="line"/>
    </contour>
    <contour>
      <point x="449" y="0" type="line"/>
      <point x="449" y="1278" type="line"/>
      <point x="104" y="1278" type="line"/>
      <point x="104" y="0" type="line"/>
    </contour>
  </outline>
</glyph>
<glyph name="F" format="2">
  <advance width="1056"/>
  <unicode hex="0046"/>
  <anchor x="529" y="0" name="bottom"/>
  <anchor x="529" y="1278" name="top"/>
  <outline>
    <contour>
      <point x="464" y="0" type="line"/>
      <point x="464" y="1278" type="line"/>
      <point x="104" y="1278" type="line"/>
      <point x="104" y="0" type="line"/>
    </contour>
    <contour>
      <point x="976" y="415" type="line"/>
      <point x="976" y="719" type="line"/>
      <point x="312" y="719" type="line"/>
      <point x="312" y="415" type="line"/>
    </contour>
    <contour>
      <point x="992" y="973" type="line"/>
      <point x="992" y="1278" type="line"/>
      <point x="209" y="1278" type="line"/>
      <point x="209" y="973" type="line"/>
    </contour>
  </outline>
</glyph>
<glyph name="G" format="2">
  <advance width="1282"/>
  <unicode hex="0047"/>
  <anchor x="643" y="0" name="bottom"/>
  <anchor x="643" y="1278" name="top"/>
  <outline>
    <contour>
      <point x="508" y="-29" type="curve" smooth="yes"/>
      <point x="728" y="-29"/>
      <point x="802" y="74"/>
      <point x="833" y="218" type="curve"/>
      <point x="1186" y="218" type="line"/>
      <point x="1186" y="762" type="line"/>
      <point x="657" y="762" type="line"/>
      <point x="657" y="487" type="line"/>
      <point x="886" y="489" type="line"/>
      <point x="841" y="590" type="line"/>
      <point x="841" y="370" type="line"/>
      <point x="809" y="319"/>
      <point x="753" y="278"/>
      <point x="657" y="278" type="curve" smooth="yes"/>
      <point x="504" y="278"/>
      <point x="437" y="363"/>
      <point x="437" y="511" type="curve" smooth="yes"/>
      <point x="437" y="689" type="line" smooth="yes"/>
      <point x="437" y="909"/>
      <point x="537" y="1000"/>
      <point x="768" y="1000" type="curve" smooth="yes"/>
      <point x="928" y="1000"/>
      <point x="1049" y="962"/>
      <point x="1153" y="921" type="curve"/>
      <point x="1123" y="1222" type="line"/>
      <point x="1022" y="1270"/>
      <point x="875" y="1307"/>
      <point x="695" y="1307" type="curve" smooth="yes"/>
      <point x="285" y="1307"/>
      <point x="68" y="1103"/>
      <point x="68" y="713" type="curve" smooth="yes"/>
      <point x="68" y="515" type="line" smooth="yes"/>
      <point x="68" y="172"/>
      <point x="216" y="-29"/>
    </contour>
    <contour>
      <point x="836" y="0" type="line"/>
      <point x="1186" y="0" type="line"/>
      <point x="1186" y="262" type="line"/>
      <point x="846" y="262" type="line"/>
    </contour>
  </outline>
</glyph>
<glyph name="U" format="2">
  <advance width="1309"/>
  <unicode hex="0055"/>
  <anchor x="655" y="0" name="bottom"/>
  <anchor x="978" y="5" name="ogonek"/>
  <anchor x="655" y="1278" name="top"/>
  <anchor x="1303" y="1278" name="topright"/>
  <outline>
    <contour>
      <point x="655" y="-33" type="curve" smooth="yes"/>
      <point x="1036" y="-33"/>
      <point x="1214" y="151"/>
      <point x="1214" y="500" type="curve" smooth="yes"/>
      <point x="1214" y="1278" type="line"/>
      <point x="851" y="1278" type="line"/>
      <point x="851" y="495" type="line" smooth="yes"/>
      <point x="851" y="346"/>
      <point x="789" y="271"/>
      <point x="655" y="271" type="curve" smooth="yes"/>
      <point x="520" y="271"/>
      <point x="458" y="346"/>
      <point x="458" y="495" type="curve" smooth="yes"/>
      <point x="458" y="1278" type="line"/>
      <point x="95" y="1278" type="line"/>
      <point x="95" y="500" type="line" smooth="yes"/>
      <point x="95" y="151"/>
      <point x="274" y="-33"/>
    </contour>
  </outline>
</glyph>
<glyph name="Y" format="2">
  <advance width="1197"/>
  <unicode hex="0059"/>
  <anchor x="598" y="0" name="bottom"/>
  <anchor x="598" y="1278" name="top"/>
  <anchor x="20" y="1278" name="topleft"/>
  <outline>
    <contour>
      <point x="762" y="318" type="line"/>
      <point x="1196" y="1278" type="line"/>
      <point x="819" y="1278" type="line"/>
      <point x="682" y="928" type="line"/>
      <point x="607" y="720" type="line"/>
      <point x="590" y="720" type="line"/>
      <point x="515" y="928" type="line"/>
      <point x="377" y="1278" type="line"/>
      <point x="0" y="1278" type="line"/>
      <point x="436" y="318" type="line"/>
    </contour>
    <contour>
      <point x="777" y="0" type="line"/>
      <point x="777" y="640" type="line"/>
      <point x="421" y="640" type="line"/>
      <point x="421" y="0" type="line"/>
    </contour>
  </outline>
</glyph>
<glyph name="bracketright" format="2">
  <advance width="650"/>
  <unicode hex="005D"/>
  <outline>
    <contour>
      <point x="48" y="-252" type="line"/>
      <point x="48" y="1" type="line"/>
      <point x="218" y="1" type="line"/>
      <point x="218" y="1098" type="line"/>
      <point x="48" y="1098" type="line"/>
      <point x="48" y="1351" type="line"/>
      <point x="544" y="1351" type="line"/>
      <point x="544" y="-252" type="line"/>
    </contour>
  </outline>
</glyph>
<glyph name="Oslash" format="2">
  <advance width="1294"/>
  <unicode hex="00D8"/>
  <anchor x="647" y="0" name="bottom"/>
  <anchor x="647" y="640" name="center"/>
  <anchor x="1176" y="11" name="ogonek"/>
  <anchor x="647" y="1278" name="top"/>
  <anchor x="5" y="1279" name="topleft"/>
  <anchor x="1288" y="1279" name="topright"/>
  <outline>
    <contour>
      <point x="652" y="-35" type="curve" smooth="yes"/>
      <point x="1030" y="-35"/>
      <point x="1226" y="161"/>
      <point x="1226" y="527" type="curve" smooth="yes"/>
      <point x="1226" y="747" type="line" smooth="yes"/>
      <point x="1226" y="1097"/>
      <point x="1010" y="1309"/>
      <point x="642" y="1309" type="curve" smooth="yes"/>
      <point x="264" y="1309"/>
      <point x="68" y="1107"/>
      <point x="68" y="747" type="curve" smooth="yes"/>
      <point x="68" y="527" type="line" smooth="yes"/>
      <point x="68" y="171"/>
      <point x="284" y="-35"/>
    </contour>
    <contour>
      <point x="276" y="-73" type="line"/>
      <point x="411" y="118" type="line"/>
      <point x="466" y="194" type="line"/>
      <point x="934" y="961" type="line"/>
      <point x="1008" y="1060" type="line"/>
      <point x="1204" y="1352" type="line"/>
      <point x="1018" y="1352" type="line"/>
      <point x="901" y="1178" type="line"/>
      <point x="837" y="1079" type="line"/>
      <point x="372" y="325" type="line"/>
      <point x="297" y="220" type="line"/>
      <point x="90" y="-73" type="line"/>
    </contour>
    <contour>
      <point x="647" y="260" type="curve" smooth="yes"/>
      <point x="503" y="260"/>
      <point x="435" y="339"/>
      <point x="435" y="502" type="curve" smooth="yes"/>
      <point x="435" y="762" type="line" smooth="yes"/>
      <point x="435" y="925"/>
      <point x="503" y="1014"/>
      <point x="647" y="1014" type="curve" smooth="yes"/>
      <point x="800" y="1014"/>
      <point x="859" y="925"/>
      <point x="859" y="772" type="curve" smooth="yes"/>
      <point x="859" y="512" type="line" smooth="yes"/>
      <point x="859" y="349"/>
      <point x="790" y="260"/>
    </contour>
  </outline>
</glyph>
<glyph name="germandbls" format="2">
  <advance width="1240"/>
  <unicode hex="00DF"/>
  <anchor x="598" y="0" name="bottom"/>
  <anchor x="598" y="985" name="top"/>
  <outline>
    <contour>
      <point x="92" y="0" type="line"/>
      <point x="441" y="0" type="line"/>
      <point x="441" y="959" type="line" smooth="yes"/>
      <point x="441" y="1033"/>
      <point x="471" y="1078"/>
      <point x="561" y="1078" type="curve" smooth="yes"/>
      <point x="634" y="1078"/>
      <point x="672" y="1050"/>
      <point x="672" y="999" type="curve"/>
      <point x="672" y="910"/>
      <point x="502" y="856"/>
      <point x="502" y="679" type="curve" smooth="yes"/>
      <point x="502" y="676" type="line" smooth="yes"/>
      <point x="502" y="540"/>
      <point x="566" y="493"/>
      <point x="730" y="423" type="curve" smooth="yes"/>
      <point x="819" y="385"/>
      <point x="850" y="367"/>
      <point x="850" y="326" type="curve"/>
      <point x="850" y="324" type="line"/>
      <point x="850" y="284"/>
      <point x="813" y="259"/>
      <point x="734" y="259" type="curve" smooth="yes"/>
      <point x="646" y="259"/>
      <point x="577" y="279"/>
      <point x="510" y="300" type="curve"/>
      <point x="539" y="18" type="line"/>
      <point x="606" y="-3"/>
      <point x="693" y="-17"/>
      <point x="787" y="-17" type="curve" smooth="yes"/>
      <point x="1033" y="-17"/>
      <point x="1197" y="85"/>
      <point x="1197" y="302" type="curve" smooth="yes"/>
      <point x="1197" y="311" type="line" smooth="yes"/>
      <point x="1197" y="495"/>
      <point x="1115" y="553"/>
      <point x="990" y="610" type="curve" smooth="yes"/>
      <point x="867" y="666"/>
      <point x="841" y="681"/>
      <point x="841" y="725" type="curve"/>
      <point x="841" y="727" type="line"/>
      <point x="841" y="811"/>
      <point x="1017" y="856"/>
      <point x="1017" y="1045" type="curve"/>
      <point x="1017" y="1259"/>
      <point x="825" y="1353"/>
      <point x="562" y="1353" type="curve" smooth="yes"/>
      <point x="223" y="1353"/>
      <point x="92" y="1227"/>
      <point x="92" y="973" type="curve" smooth="yes"/>
    </contour>
  </outline>
</glyph>
<glyph name="acutecomb" format="2">
  <advance width="729"/>
  <unicode hex="0301"/>
  <anchor x="243" y="985" name="_top"/>
  <anchor x="243" y="1370" name="top"/>
  <outline>
    <contour>
      <point x="85" y="1078" type="line"/>
      <point x="85" y="1075" type="line"/>
      <point x="372" y="1075" type="line"/>
      <point x="616" y="1372" type="line"/>
      <point x="616" y="1376" type="line"/>
      <point x="254" y="1376" type="line"/>
    </contour>
  </outline>
</glyph>
<glyph name="combininganusvaraabovesign.mlm" format="2">
  <unicode hex="0D00"/>
  <outline>
    <contour>
      <point x="-966" y="1509" type="line" smooth="yes"/>
      <point x="-966" y="1339"/>
      <point x="-852" y="1246"/>
      <point x="-639" y="1246" type="curve" smooth="yes"/>
      <point x="-427" y="1246"/>
      <point x="-313" y="1339"/>
      <point x="-313" y="1509" type="curve" smooth="yes"/>
      <point x="-313" y="1513" type="line" smooth="yes"/>
      <point x="-313" y="1684"/>
      <point x="-427" y="1776"/>
      <point x="-639" y="1776" type="curve" smooth="yes"/>
      <point x="-852" y="1776"/>
      <point x="-966" y="1684"/>
      <point x="-966" y="1513" type="curve" smooth="yes"/>
    </contour>
    <contour>
      <point x="-566" y="1508" type="line" smooth="yes"/>
      <point x="-566" y="1466"/>
      <point x="-592" y="1442"/>
      <point x="-639" y="1442" type="curve" smooth="yes"/>
      <point x="-687" y="1442"/>
      <point x="-713" y="1466"/>
      <point x="-713" y="1508" type="curve" smooth="yes"/>
      <point x="-713" y="1514" type="line" smooth="yes"/>
      <point x="-713" y="1557"/>
      <point x="-687" y="1581"/>
      <point x="-639" y="1581" type="curve" smooth="yes"/>
      <point x="-592" y="1581"/>
      <point x="-566" y="1557"/>
      <point x="-566" y="1514" type="curve" smooth="yes"/>
    </contour>
  </outline>
</glyph>
<glyph name="Chandrabindu.mlm" format="2">
  <unicode hex="0D01"/>
  <outline>
    <contour>
      <point x="-576" y="1501" type="curve" smooth="yes"/>
      <point x="-746" y="1501"/>
      <point x="-806" y="1593.26"/>
      <point x="-806" y="1713" type="curve" smooth="yes"/>
      <point x="-806" y="1749" type="line"/>
      <point x="-1050" y="1749" type="line"/>
      <point x="-1050" y="1708" type="line" smooth="yes"/>
      <point x="-1050" y="1452.45"/>
      <point x="-903" y="1290"/>
      <point x="-577" y="1290" type="curve" smooth="yes"/>
      <point x="-251" y="1290"/>
      <point x="-103" y="1451.45"/>
      <point x="-103" y="1708" type="curve" smooth="yes"/>
      <point x="-103" y="1749" type="line"/>
      <point x="-347" y="1749" type="line"/>
      <point x="-347" y="1713" type="line" smooth="yes"/>
      <point x="-347" y="1594.24"/>
      <point x="-407" y="1501"/>
    </contour>
    <contour>
      <point x="-718" y="1745" type="line" smooth="yes"/>
      <point x="-718" y="1645"/>
      <point x="-668" y="1590"/>
      <point x="-576" y="1590" type="curve" smooth="yes"/>
      <point x="-486" y="1590"/>
      <point x="-435" y="1645"/>
      <point x="-435" y="1745" type="curve" smooth="yes"/>
      <point x="-435" y="1754" type="line" smooth="yes"/>
      <point x="-435" y="1857"/>
      <point x="-486" y="1910"/>
      <point x="-576" y="1910" type="curve" smooth="yes"/>
      <point x="-668" y="1910"/>
      <point x="-718" y="1857"/>
      <point x="-718" y="1754" type="curve" smooth="yes"/>
    </contour>
  </outline>
</glyph>
<glyph name="Visarga.mlm" format="2">
  <advance width="799"/>
  <unicode hex="0D03"/>
  <outline>
    <contour>
      <point x="468" y="271" type="curve" smooth="yes"/>
      <point x="468" y="262" type="line" smooth="yes"/>
      <point x="468" y="218"/>
      <point x="445" y="195"/>
      <point x="399" y="195" type="curve" smooth="yes"/>
      <point x="354" y="195"/>
      <point x="331" y="218"/>
      <point x="331" y="262" type="curve" smooth="yes"/>
      <point x="331" y="271" type="line" smooth="yes"/>
      <point x="331" y="315"/>
      <point x="354" y="339"/>
      <point x="399" y="339" type="curve" smooth="yes"/>
      <point x="445" y="339"/>
      <point x="468" y="315"/>
    </contour>
    <contour>
      <point x="47" y="275" type="curve" smooth="yes"/>
      <point x="47" y="258" type="line" smooth="yes"/>
      <point x="47" y="69"/>
      <point x="167" y="-34"/>
      <point x="400" y="-34" type="curve" smooth="yes"/>
      <point x="633" y="-34"/>
      <point x="752" y="69"/>
      <point x="752" y="258" type="curve" smooth="yes"/>
      <point x="752" y="275" type="line" smooth="yes"/>
      <point x="752" y="463"/>
      <point x="633" y="566"/>
      <point x="400" y="566" type="curve" smooth="yes"/>
      <point x="167" y="566"/>
      <point x="47" y="463"/>
    </contour>
    <contour>
      <point x="467" y="914" type="curve" smooth="yes"/>
      <point x="467" y="907" type="line" smooth="yes"/>
      <point x="467" y="864"/>
      <point x="444" y="841"/>
      <point x="399" y="841" type="curve" smooth="yes"/>
      <point x="355" y="841"/>
      <point x="332" y="864"/>
      <point x="332" y="907" type="curve" smooth="yes"/>
      <point x="332" y="914" type="line" smooth="yes"/>
      <point x="332" y="957"/>
      <point x="355" y="980"/>
      <point x="399" y="980" type="curve" smooth="yes"/>
      <point x="444" y="980"/>
      <point x="467" y="957"/>
    </contour>
    <contour>
      <point x="48" y="917" type="curve" smooth="yes"/>
      <point x="48" y="903" type="line" smooth="yes"/>
      <point x="48" y="715"/>
      <point x="168" y="612"/>
      <point x="400" y="612" type="curve" smooth="yes"/>
      <point x="632" y="612"/>
      <point x="751" y="715"/>
      <point x="751" y="903" type="curve" smooth="yes"/>
      <point x="751" y="917" type="line" smooth="yes"/>
      <point x="751" y="1104"/>
      <point x="632" y="1208"/>
      <point x="400" y="1208" type="curve" smooth="yes"/>
      <point x="168" y="1208"/>
      <point x="48" y="1104"/>
    </contour>
  </outline>
</glyph>
<glyph name="vowelA.mlm" format="2">
  <advance width="3067"/>
  <unicode hex="0D05"/>
  <outline>
    <contour>
      <point x="1653" y="4" type="line"/>
      <point x="1990" y="4" type="line"/>
      <point x="1990" y="629" type="line"/>
      <point x="1653" y="582" type="line"/>
    </contour>
    <contour>
      <point x="1818" y="904" type="line"/>
      <point x="1782" y="1080"/>
      <point x="1644" y="1202"/>
      <point x="1368" y="1202" type="curve" smooth="yes"/>
      <point x="1208" y="1202"/>
      <point x="1086" y="1151"/>
      <point x="1023" y="1089" type="curve"/>
      <point x="1176" y="927" type="line"/>
      <point x="1222" y="943"/>
      <point x="1284" y="949"/>
      <point x="1348" y="949" type="curve" smooth="yes"/>
      <point x="1550" y="949"/>
      <point x="1653" y="840"/>
      <point x="1653" y="606" type="curve" smooth="yes"/>
      <point x="1653" y="502" type="line"/>
      <point x="1825" y="502" type="line"/>
    </contour>
    <contour>
      <point x="416" y="558" type="line" smooth="yes"/>
      <point x="416" y="811.351"/>
      <point x="537.65" y="938"/>
      <point x="782" y="938" type="curve" smooth="yes"/>
      <point x="840" y="938"/>
      <point x="885" y="930"/>
      <point x="933" y="917" type="curve"/>
      <point x="961" y="913"/>
      <point x="1008" y="900"/>
      <point x="1030" y="896" type="curve"/>
      <point x="1126" y="874"/>
      <point x="1161" y="831"/>
      <point x="1161" y="769" type="curve" smooth="yes"/>
      <point x="1161" y="765" type="line" smooth="yes"/>
      <point x="1161" y="720"/>
      <point x="1138" y="694"/>
      <point x="1087" y="690" type="curve" smooth="yes"/>
      <point x="1028" y="685" type="line"/>
      <point x="1028" y="424" type="line"/>
      <point x="1105" y="420" type="line" smooth="yes"/>
      <point x="1164" y="417"/>
      <point x="1187" y="391"/>
      <point x="1187" y="340" type="curve" smooth="yes"/>
      <point x="1187" y="334" type="line" smooth="yes"/>
      <point x="1187" y="273"/>
      <point x="1150" y="240"/>
      <point x="1068" y="240" type="curve" smooth="yes"/>
      <point x="962" y="240"/>
      <point x="916" y="298.575"/>
      <point x="916" y="426" type="curve" smooth="yes"/>
      <point x="916" y="566" type="line" smooth="yes"/>
      <point x="916" y="718.294"/>
      <point x="959" y="841.144"/>
      <point x="1080" y="898" type="curve"/>
      <point x="831" y="978" type="line"/>
      <point x="667" y="911.216"/>
      <point x="589" y="759.435"/>
      <point x="589" y="552" type="curve" smooth="yes"/>
      <point x="589" y="414" type="line" smooth="yes"/>
      <point x="589" y="119.701"/>
      <point x="745" y="-32"/>
      <point x="1068" y="-32" type="curve" smooth="yes"/>
      <point x="1366" y="-32"/>
      <point x="1519" y="84"/>
      <point x="1519" y="309" type="curve" smooth="yes"/>
      <point x="1519" y="317" type="line" smooth="yes"/>
      <point x="1519" y="457"/>
      <point x="1451" y="540"/>
      <point x="1290" y="557" type="curve"/>
      <point x="1290" y="565" type="line"/>
      <point x="1425" y="583"/>
      <point x="1487" y="647"/>
      <point x="1487" y="754" type="curve" smooth="yes"/>
      <point x="1487" y="760" type="line" smooth="yes"/>
      <point x="1487" y="852"/>
      <point x="1431" y="935"/>
      <point x="1274" y="977" type="curve"/>
      <point x="1174" y="1069" type="line"/>
      <point x="1103" y="1140"/>
      <point x="953" y="1203"/>
      <point x="736" y="1203" type="curve" smooth="yes"/>
      <point x="299.32" y="1203"/>
      <point x="78" y="986.206"/>
      <point x="78" y="560" type="curve" smooth="yes"/>
      <point x="78" y="448" type="line" smooth="yes"/>
      <point x="78" y="277.093"/>
      <point x="110" y="107.196"/>
      <point x="170" y="0" type="curve"/>
      <point x="512" y="0" type="line"/>
      <point x="449" y="130.466"/>
      <point x="416" y="278.125"/>
      <point x="416" y="445" type="curve" smooth="yes"/>
    </contour>
    <contour>
      <point x="2350" y="1204" type="curve" smooth="yes"/>
      <point x="2036" y="1204"/>
      <point x="1871" y="1088"/>
      <point x="1826" y="904" type="curve"/>
      <point x="1770" y="904" type="line"/>
      <point x="1783" y="544" type="line"/>
      <point x="1990" y="513" type="line"/>
      <point x="1990" y="617" type="line" smooth="yes"/>
      <point x="1990" y="822"/>
      <point x="2104" y="922"/>
      <point x="2329" y="922" type="curve" smooth="yes"/>
      <point x="2562" y="922"/>
      <point x="2677" y="796.211"/>
      <point x="2677" y="603" type="curve"/>
      <point x="2677" y="603" type="line"/>
      <point x="2661" y="603" type="line"/>
      <point x="2672" y="531" type="line"/>
      <point x="2672" y="389" type="line" smooth="yes"/>
      <point x="2672" y="283.604"/>
      <point x="2640" y="238"/>
      <point x="2567" y="238" type="curve" smooth="yes"/>
      <point x="2500" y="238"/>
      <point x="2465" y="281.729"/>
      <point x="2465" y="358" type="curve" smooth="yes"/>
      <point x="2465" y="420" type="line" smooth="yes"/>
      <point x="2465" y="497.31"/>
      <point x="2500" y="538"/>
      <point x="2568" y="538" type="curve" smooth="yes"/>
      <point x="2614" y="538"/>
      <point x="2649" y="524.212"/>
      <point x="2676" y="503" type="curve"/>
      <point x="2672" y="589" type="line"/>
      <point x="2645" y="719.252"/>
      <point x="2563" y="797"/>
      <point x="2423" y="797" type="curve" smooth="yes"/>
      <point x="2248" y="797"/>
      <point x="2139" y="678.331"/>
      <point x="2139" y="442" type="curve" smooth="yes"/>
      <point x="2139" y="356" type="line" smooth="yes"/>
      <point x="2139" y="101.693"/>
      <point x="2286" y="-33"/>
      <point x="2565" y="-33" type="curve" smooth="yes"/>
      <point x="2852" y="-33"/>
      <point x="2995" y="117.688"/>
      <point x="2995" y="405" type="curve" smooth="yes"/>
      <point x="2995" y="556" type="line" smooth="yes"/>
      <point x="2995" y="991.344"/>
      <point x="2780" y="1204"/>
    </contour>
  </outline>
</glyph>
<glyph name="vowelI.mlm" format="2">
  <advance width="2008"/>
  <unicode hex="0D07"/>
  <outline>
    <contour>
      <point x="651" y="1204" type="curve" smooth="yes"/>
      <point x="266" y="1204"/>
      <point x="73" y="1018.34"/>
      <point x="73" y="642" type="curve" smooth="yes"/>
      <point x="73" y="572" type="line" smooth="yes"/>
      <point x="73" y="334.689"/>
      <point x="198" y="210"/>
      <point x="461" y="210" type="curve" smooth="yes"/>
      <point x="730" y="210"/>
      <point x="846" y="325.714"/>
      <point x="846" y="534" type="curve" smooth="yes"/>
      <point x="846" y="570" type="line" smooth="yes"/>
      <point x="846" y="757.314"/>
      <point x="767" y="855"/>
      <point x="605" y="855" type="curve" smooth="yes"/>
      <point x="463" y="855"/>
      <point x="393" y="789.312"/>
      <point x="373" y="664" type="curve"/>
      <point x="376" y="564" type="line"/>
      <point x="393" y="595.224"/>
      <point x="425" y="615"/>
      <point x="466" y="615" type="curve" smooth="yes"/>
      <point x="516" y="615"/>
      <point x="543" y="586.291"/>
      <point x="543" y="534" type="curve" smooth="yes"/>
      <point x="543" y="521" type="line" smooth="yes"/>
      <point x="543" y="463.698"/>
      <point x="516" y="433"/>
      <point x="464" y="433" type="curve" smooth="yes"/>
      <point x="406" y="433"/>
      <point x="379" y="466.688"/>
      <point x="379" y="531" type="curve" smooth="yes"/>
      <point x="379" y="608" type="line"/>
      <point x="381" y="679" type="line"/>
      <point x="365" y="679" type="line"/>
      <point x="365" y="681" type="line"/>
      <point x="365" y="846.307"/>
      <point x="469" y="934"/>
      <point x="666" y="934" type="curve" smooth="yes"/>
      <point x="866" y="934"/>
      <point x="964" y="845"/>
      <point x="968" y="666" type="curve" smooth="yes"/>
      <point x="975" y="365" type="line"/>
      <point x="1293" y="365" type="line"/>
      <point x="1302" y="722" type="line" smooth="yes"/>
      <point x="1305" y="848"/>
      <point x="1348" y="910"/>
      <point x="1449" y="910" type="curve" smooth="yes"/>
      <point x="1548" y="910"/>
      <point x="1594" y="844.384"/>
      <point x="1594" y="707" type="curve" smooth="yes"/>
      <point x="1594" y="519" type="line" smooth="yes"/>
      <point x="1594" y="332.586"/>
      <point x="1516" y="246"/>
      <point x="1352" y="246" type="curve" smooth="yes"/>
      <point x="443" y="246" type="line" smooth="yes"/>
      <point x="194" y="246"/>
      <point x="70" y="142"/>
      <point x="70" y="-57" type="curve" smooth="yes"/>
      <point x="70" y="-261"/>
      <point x="194" y="-368"/>
      <point x="443" y="-368" type="curve" smooth="yes"/>
      <point x="1878" y="-368" type="line"/>
      <point x="1918" y="-115" type="line"/>
      <point x="479" y="-115" type="line" smooth="yes"/>
      <point x="429" y="-115"/>
      <point x="404" y="-97"/>
      <point x="404" y="-57" type="curve" smooth="yes"/>
      <point x="404" y="-17"/>
      <point x="429" y="0"/>
      <point x="479" y="0" type="curve" smooth="yes"/>
      <point x="1430" y="0" type="line" smooth="yes"/>
      <point x="1764" y="0"/>
      <point x="1930" y="172.647"/>
      <point x="1930" y="524" type="curve" smooth="yes"/>
      <point x="1930" y="710" type="line" smooth="yes"/>
      <point x="1930" y="1040.34"/>
      <point x="1781" y="1204"/>
      <point x="1491" y="1204" type="curve" smooth="yes"/>
      <point x="1281" y="1204"/>
      <point x="1159" y="1106"/>
      <point x="1133" y="921" type="curve"/>
      <point x="1126" y="921" type="line"/>
      <point x="1087" y="1106"/>
      <point x="922" y="1204"/>
    </contour>
  </outline>
</glyph>
<glyph name="vowelU.mlm" format="2">
  <advance width="1479"/>
  <unicode hex="0D09"/>
  <outline>
    <contour>
      <point x="730" y="1211" type="curve" smooth="yes"/>
      <point x="294" y="1211"/>
      <point x="73" y="1019.34"/>
      <point x="73" y="632" type="curve" smooth="yes"/>
      <point x="73" y="574" type="line" smooth="yes"/>
      <point x="73" y="335.691"/>
      <point x="201" y="210"/>
      <point x="469" y="210" type="curve" smooth="yes"/>
      <point x="745.092" y="210"/>
      <point x="865" y="326.716"/>
      <point x="865" y="536" type="curve" smooth="yes"/>
      <point x="865" y="570" type="line" smooth="yes"/>
      <point x="865" y="758.312"/>
      <point x="782.012" y="857"/>
      <point x="613" y="857" type="curve" smooth="yes"/>
      <point x="467" y="857"/>
      <point x="394" y="791.312"/>
      <point x="373" y="666" type="curve"/>
      <point x="376" y="564" type="line"/>
      <point x="395" y="596.216"/>
      <point x="429" y="617"/>
      <point x="474" y="617" type="curve" smooth="yes"/>
      <point x="528" y="617"/>
      <point x="558" y="588.309"/>
      <point x="558" y="534" type="curve" smooth="yes"/>
      <point x="558" y="523" type="line" smooth="yes"/>
      <point x="558" y="463.682"/>
      <point x="528" y="433"/>
      <point x="472" y="433" type="curve" smooth="yes"/>
      <point x="409" y="433"/>
      <point x="379" y="466.673"/>
      <point x="379" y="533" type="curve" smooth="yes"/>
      <point x="379" y="610" type="line"/>
      <point x="381" y="681" type="line"/>
      <point x="365" y="681" type="line"/>
      <point x="365" y="683" type="line"/>
      <point x="365" y="847.304"/>
      <point x="483" y="935"/>
      <point x="711" y="935" type="curve" smooth="yes"/>
      <point x="945" y="935"/>
      <point x="1065" y="831.391"/>
      <point x="1065" y="613" type="curve" smooth="yes"/>
      <point x="1065" y="551" type="line" smooth="yes"/>
      <point x="1065" y="344.617"/>
      <point x="976" y="246"/>
      <point x="790" y="246" type="curve" smooth="yes"/>
      <point x="443" y="246" type="line" smooth="yes"/>
      <point x="194" y="246"/>
      <point x="70" y="142"/>
      <point x="70" y="-57" type="curve" smooth="yes"/>
      <point x="70" y="-261"/>
      <point x="194" y="-368"/>
      <point x="443" y="-368" type="curve" smooth="yes"/>
      <point x="1349" y="-368" type="line"/>
      <point x="1390" y="-115" type="line"/>
      <point x="479" y="-115" type="line" smooth="yes"/>
      <point x="429" y="-115"/>
      <point x="404" y="-97"/>
      <point x="404" y="-57" type="curve" smooth="yes"/>
      <point x="404" y="-17"/>
      <point x="429" y="0"/>
      <point x="479" y="0" type="curve" smooth="yes"/>
      <point x="867" y="0" type="line" smooth="yes"/>
      <point x="1219" y="0"/>
      <point x="1402" y="184.694"/>
      <point x="1402" y="545" type="curve" smooth="yes"/>
      <point x="1402" y="616" type="line" smooth="yes"/>
      <point x="1402" y="1012.33"/>
      <point x="1176" y="1211"/>
    </contour>
  </outline>
</glyph>
<glyph name="vowelshortE.mlm" format="2">
  <advance width="2714"/>
  <unicode hex="0D0E"/>
  <outline>
    <contour>
      <point x="532" y="806" type="curve" smooth="yes"/>
      <point x="224" y="806"/>
      <point x="68" y="653.33"/>
      <point x="68" y="349" type="curve" smooth="yes"/>
      <point x="68" y="300" type="line" smooth="yes"/>
      <point x="68" y="182.034"/>
      <point x="85" y="74.2373"/>
      <point x="118" y="0" type="curve"/>
      <point x="444" y="0" type="line"/>
      <point x="416" y="81.3793"/>
      <point x="396" y="177"/>
      <point x="396" y="295" type="curve" smooth="yes"/>
      <point x="396" y="343" type="line" smooth="yes"/>
      <point x="396" y="461.343"/>
      <point x="438" y="520"/>
      <point x="531" y="520" type="curve" smooth="yes"/>
      <point x="625" y="520"/>
      <point x="667" y="461.343"/>
      <point x="667" y="343" type="curve" smooth="yes"/>
      <point x="667" y="295" type="line" smooth="yes"/>
      <point x="667" y="187.066"/>
      <point x="647" y="95.4234"/>
      <point x="614" y="16" type="curve"/>
      <point x="614" y="0" type="line"/>
      <point x="841" y="0" type="line"/>
      <point x="945" y="95.3056"/>
      <point x="998" y="236.236"/>
      <point x="998" y="365" type="curve" smooth="yes"/>
      <point x="998" y="388" type="line" smooth="yes"/>
      <point x="998" y="665.317"/>
      <point x="842" y="806"/>
    </contour>
    <contour>
      <point x="909" y="259" type="line"/>
      <point x="621" y="0" type="line"/>
      <point x="1372" y="0" type="line"/>
      <point x="1434" y="8" type="line"/>
      <point x="1856" y="8" type="line"/>
      <point x="1871" y="259" type="line"/>
    </contour>
    <contour>
      <point x="1917" y="1208" type="curve" smooth="yes"/>
      <point x="1426" y="1208"/>
      <point x="1187" y="951.738"/>
      <point x="1187" y="471" type="curve" smooth="yes"/>
      <point x="1187" y="106" type="line" smooth="yes"/>
      <point x="1187" y="-250.364"/>
      <point x="1339" y="-431"/>
      <point x="1647" y="-431" type="curve" smooth="yes"/>
      <point x="1932" y="-431"/>
      <point x="2077" y="-287.314"/>
      <point x="2077" y="-5" type="curve" smooth="yes"/>
      <point x="2077" y="820" type="line"/>
      <point x="1763" y="820" type="line"/>
      <point x="1745" y="204" type="line"/>
      <point x="1752" y="74" type="line"/>
      <point x="1752" y="-26" type="line" smooth="yes"/>
      <point x="1752" y="-131.446"/>
      <point x="1718" y="-179"/>
      <point x="1647" y="-179" type="curve" smooth="yes"/>
      <point x="1564" y="-179"/>
      <point x="1520" y="-116"/>
      <point x="1520" y="21" type="curve" smooth="yes"/>
      <point x="1520" y="65" type="line"/>
      <point x="1523" y="113" type="line"/>
      <point x="1523" y="136"/>
      <point x="1523" y="165"/>
      <point x="1523" y="190" type="curve" smooth="yes"/>
      <point x="1523" y="466" type="line" smooth="yes"/>
      <point x="1523" y="773.62"/>
      <point x="1647" y="921"/>
      <point x="1915" y="921" type="curve" smooth="yes"/>
      <point x="2174" y="921"/>
      <point x="2300" y="773.623"/>
      <point x="2300" y="467" type="curve" smooth="yes"/>
      <point x="2300" y="249" type="line" smooth="yes"/>
      <point x="2300" y="14.068"/>
      <point x="2253" y="-177.507"/>
      <point x="2154" y="-359" type="curve"/>
      <point x="2496" y="-359" type="line"/>
      <point x="2592" y="-203.727"/>
      <point x="2637" y="-2.07439"/>
      <point x="2637" y="251" type="curve" smooth="yes"/>
      <point x="2637" y="470" type="line" smooth="yes"/>
      <point x="2637" y="949.75"/>
      <point x="2390" y="1208"/>
    </contour>
  </outline>
</glyph>
<glyph name="Kha.mlm" format="2">
  <advance width="2092"/>
  <unicode hex="0D16"/>
  <outline>
    <contour>
      <point x="1651" y="1163" type="line"/>
      <point x="1651" y="0" type="line"/>
      <point x="1989" y="0" type="line"/>
      <point x="1989" y="1163" type="line"/>
    </contour>
    <contour>
      <point x="1314" y="263" type="line"/>
      <point x="1023" y="0" type="line"/>
      <point x="1947" y="0" type="line"/>
      <point x="1947" y="263" type="line"/>
    </contour>
    <contour>
      <point x="759" y="1208" type="curve" smooth="yes"/>
      <point x="300" y="1208"/>
      <point x="72" y="980.772"/>
      <point x="72" y="556" type="curve" smooth="yes"/>
      <point x="72" y="412" type="line" smooth="yes"/>
      <point x="72" y="118.682"/>
      <point x="220" y="-33"/>
      <point x="507" y="-33" type="curve" smooth="yes"/>
      <point x="790" y="-33"/>
      <point x="933" y="99.0234"/>
      <point x="933" y="354" type="curve" smooth="yes"/>
      <point x="933" y="421" type="line" smooth="yes"/>
      <point x="933" y="665.535"/>
      <point x="837" y="778"/>
      <point x="662" y="778" type="curve" smooth="yes"/>
      <point x="506" y="778"/>
      <point x="419" y="698"/>
      <point x="393" y="539" type="curve"/>
      <point x="397" y="447" type="line"/>
      <point x="418.807" y="484"/>
      <point x="457.465" y="507"/>
      <point x="510" y="507" type="curve" smooth="yes"/>
      <point x="575.32" y="507"/>
      <point x="606" y="470.321"/>
      <point x="606" y="399" type="curve" smooth="yes"/>
      <point x="606" y="354" type="line" smooth="yes"/>
      <point x="606" y="275.649"/>
      <point x="572.337" y="238"/>
      <point x="506" y="238" type="curve" smooth="yes"/>
      <point x="434.673" y="238"/>
      <point x="400" y="277.538"/>
      <point x="400" y="385" type="curve" smooth="yes"/>
      <point x="400" y="469" type="line"/>
      <point x="405" y="558" type="line"/>
      <point x="386" y="558" type="line"/>
      <point x="386" y="566" type="line" smooth="yes"/>
      <point x="386" y="809.39"/>
      <point x="511" y="925"/>
      <point x="751" y="925" type="curve" smooth="yes"/>
      <point x="990" y="925"/>
      <point x="1110" y="802.36"/>
      <point x="1110" y="551" type="curve" smooth="yes"/>
      <point x="1110" y="452" type="line" smooth="yes"/>
      <point x="1110" y="290.144"/>
      <point x="1079" y="140.427"/>
      <point x="1023" y="16" type="curve"/>
      <point x="1023" y="0" type="line"/>
      <point x="1304" y="0" type="line"/>
      <point x="1386" y="104.064"/>
      <point x="1450" y="281.882"/>
      <point x="1450" y="489" type="curve" smooth="yes"/>
      <point x="1450" y="575" type="line" smooth="yes"/>
      <point x="1450" y="989.272"/>
      <point x="1216" y="1208"/>
    </contour>
  </outline>
</glyph>
<glyph name="Gha.mlm" format="2">
  <advance width="2703"/>
  <unicode hex="0D18"/>
  <outline>
    <contour>
      <point x="901" y="658" type="line"/>
      <point x="587" y="405" type="line"/>
      <point x="1205" y="405" type="line"/>
      <point x="1205" y="658" type="line"/>
    </contour>
    <contour>
      <point x="508" y="1123" type="curve" smooth="yes"/>
      <point x="213" y="1123"/>
      <point x="61" y="982.345"/>
      <point x="61" y="698" type="curve" smooth="yes"/>
      <point x="61" y="680" type="line" smooth="yes"/>
      <point x="61" y="577"/>
      <point x="75" y="476"/>
      <point x="101" y="405" type="curve"/>
      <point x="423" y="405" type="line"/>
      <point x="399" y="482"/>
      <point x="386" y="566"/>
      <point x="386" y="662" type="curve" smooth="yes"/>
      <point x="386" y="682" type="line" smooth="yes"/>
      <point x="386" y="790.387"/>
      <point x="422" y="842"/>
      <point x="507" y="842" type="curve" smooth="yes"/>
      <point x="592" y="842"/>
      <point x="628" y="790.387"/>
      <point x="628" y="682" type="curve" smooth="yes"/>
      <point x="628" y="662" type="line" smooth="yes"/>
      <point x="628" y="572"/>
      <point x="614" y="493"/>
      <point x="587" y="421" type="curve"/>
      <point x="587" y="405" type="line"/>
      <point x="796" y="405" type="line"/>
      <point x="902" y="487"/>
      <point x="957" y="609"/>
      <point x="957" y="721" type="curve" smooth="yes"/>
      <point x="957" y="737" type="line" smooth="yes"/>
      <point x="957" y="995.346"/>
      <point x="804" y="1123"/>
    </contour>
    <contour>
      <point x="1751" y="657" type="line"/>
      <point x="1428" y="657" type="line"/>
      <point x="1428" y="748" type="line" smooth="yes"/>
      <point x="1428" y="873.389"/>
      <point x="1481" y="933"/>
      <point x="1590" y="933" type="curve" smooth="yes"/>
      <point x="1699" y="933"/>
      <point x="1751" y="873.389"/>
      <point x="1751" y="748" type="curve" smooth="yes"/>
    </contour>
    <contour>
      <point x="1588" y="1205" type="curve" smooth="yes"/>
      <point x="1263" y="1205"/>
      <point x="1097" y="1049.32"/>
      <point x="1097" y="743" type="curve" smooth="yes"/>
      <point x="1097" y="0" type="line"/>
      <point x="2600" y="0" type="line"/>
      <point x="2600" y="1163" type="line"/>
      <point x="2262" y="1163" type="line"/>
      <point x="2262" y="255" type="line"/>
      <point x="1428" y="255" type="line"/>
      <point x="1428" y="405" type="line"/>
      <point x="2078" y="405" type="line"/>
      <point x="2078" y="743" type="line" smooth="yes"/>
      <point x="2078" y="1049.32"/>
      <point x="1913" y="1205"/>
    </contour>
  </outline>
</glyph>
<glyph name="Ca.mlm" format="2">
  <advance width="1756"/>
  <unicode hex="0D1A"/>
  <outline>
    <contour>
      <point x="29" y="265" type="line"/>
      <point x="68" y="0" type="line"/>
      <point x="1487" y="0" type="line"/>
      <point x="1487" y="265" type="line"/>
    </contour>
    <contour>
      <point x="633" y="257" type="curve"/>
      <point x="909" y="209" type="line"/>
      <point x="1048" y="281"/>
      <point x="1098" y="403"/>
      <point x="1098" y="542" type="curve" smooth="yes"/>
      <point x="1098" y="549" type="line" smooth="yes"/>
      <point x="1098" y="805"/>
      <point x="950" y="940"/>
      <point x="648" y="940" type="curve" smooth="yes"/>
      <point x="350" y="940"/>
      <point x="206" y="812"/>
      <point x="206" y="579" type="curve" smooth="yes"/>
      <point x="206" y="569" type="line" smooth="yes"/>
      <point x="206" y="497"/>
      <point x="222" y="442"/>
      <point x="240" y="402" type="curve"/>
      <point x="547" y="402" type="line"/>
      <point x="538" y="435"/>
      <point x="530" y="475"/>
      <point x="530" y="520" type="curve" smooth="yes"/>
      <point x="530" y="526" type="line" smooth="yes"/>
      <point x="530" y="609"/>
      <point x="567" y="651"/>
      <point x="646" y="651" type="curve" smooth="yes"/>
      <point x="725" y="651"/>
      <point x="763" y="609"/>
      <point x="763" y="521" type="curve" smooth="yes"/>
      <point x="763" y="508" type="line" smooth="yes"/>
      <point x="763" y="409"/>
      <point x="722" y="315"/>
    </contour>
    <contour>
      <point x="1315" y="1163" type="line"/>
      <point x="1315" y="0" type="line"/>
      <point x="1653" y="0" type="line"/>
      <point x="1653" y="1163" type="line"/>
    </contour>
  </outline>
</glyph>
<glyph name="Cha.mlm" format="2">
  <advance width="2709"/>
  <unicode hex="0D1B"/>
  <outline>
    <contour>
      <point x="29" y="265" type="line"/>
      <point x="68" y="0" type="line"/>
      <point x="1487" y="0" type="line"/>
      <point x="1487" y="265" type="line"/>
    </contour>
    <contour>
      <point x="633" y="257" type="curve"/>
      <point x="909" y="209" type="line"/>
      <point x="1048" y="281"/>
      <point x="1098" y="403"/>
      <point x="1098" y="542" type="curve" smooth="yes"/>
      <point x="1098" y="549" type="line" smooth="yes"/>
      <point x="1098" y="805"/>
      <point x="950" y="940"/>
      <point x="648" y="940" type="curve" smooth="yes"/>
      <point x="350" y="940"/>
      <point x="206" y="812"/>
      <point x="206" y="579" type="curve" smooth="yes"/>
      <point x="206" y="569" type="line" smooth="yes"/>
      <point x="206" y="497"/>
      <point x="222" y="442"/>
      <point x="240" y="402" type="curve"/>
      <point x="547" y="402" type="line"/>
      <point x="538" y="435"/>
      <point x="530" y="475"/>
      <point x="530" y="520" type="curve" smooth="yes"/>
      <point x="530" y="526" type="line" smooth="yes"/>
      <point x="530" y="609"/>
      <point x="567" y="651"/>
      <point x="646" y="651" type="curve" smooth="yes"/>
      <point x="725" y="651"/>
      <point x="763" y="609"/>
      <point x="763" y="521" type="curve" smooth="yes"/>
      <point x="763" y="508" type="line" smooth="yes"/>
      <point x="763" y="409"/>
      <point x="722" y="315"/>
    </contour>
    <contour>
      <point x="1388" y="265" type="line"/>
      <point x="1160" y="265" type="line"/>
      <point x="1160" y="0" type="line"/>
      <point x="1680" y="0" type="line"/>
    </contour>
    <contour>
      <point x="1253" y="465" type="line" smooth="yes"/>
      <point x="1253" y="276.978"/>
      <point x="1317" y="99.0652"/>
      <point x="1398" y="0" type="curve"/>
      <point x="1680" y="0" type="line"/>
      <point x="1680" y="16" type="line"/>
      <point x="1625" y="138.424"/>
      <point x="1593" y="287.153"/>
      <point x="1593" y="446" type="curve" smooth="yes"/>
      <point x="1593" y="546" type="line" smooth="yes"/>
      <point x="1593" y="802.709"/>
      <point x="1718" y="925"/>
      <point x="1964" y="925" type="curve" smooth="yes"/>
      <point x="2202" y="925"/>
      <point x="2319" y="800.213"/>
      <point x="2319" y="608" type="curve"/>
      <point x="2319" y="608" type="line"/>
      <point x="2303" y="608" type="line"/>
      <point x="2314" y="530" type="line"/>
      <point x="2314" y="390" type="line" smooth="yes"/>
      <point x="2314" y="283.6"/>
      <point x="2282" y="238"/>
      <point x="2206" y="238" type="curve" smooth="yes"/>
      <point x="2137" y="238"/>
      <point x="2101" y="281.723"/>
      <point x="2101" y="359" type="curve" smooth="yes"/>
      <point x="2101" y="425" type="line" smooth="yes"/>
      <point x="2101" y="503.316"/>
      <point x="2137" y="544"/>
      <point x="2207" y="544" type="curve" smooth="yes"/>
      <point x="2254" y="544"/>
      <point x="2290" y="530.235"/>
      <point x="2318" y="508" type="curve"/>
      <point x="2314" y="594" type="line"/>
      <point x="2286" y="725.256"/>
      <point x="2204" y="803"/>
      <point x="2062" y="803" type="curve" smooth="yes"/>
      <point x="1885" y="803"/>
      <point x="1775" y="684.333"/>
      <point x="1775" y="447" type="curve" smooth="yes"/>
      <point x="1775" y="357" type="line" smooth="yes"/>
      <point x="1775" y="101.691"/>
      <point x="1922" y="-33"/>
      <point x="2204" y="-33" type="curve" smooth="yes"/>
      <point x="2493" y="-33"/>
      <point x="2637" y="117.686"/>
      <point x="2637" y="406" type="curve" smooth="yes"/>
      <point x="2637" y="557" type="line" smooth="yes"/>
      <point x="2637" y="994.344"/>
      <point x="2408" y="1208"/>
      <point x="1950" y="1208" type="curve" smooth="yes"/>
      <point x="1488" y="1208"/>
      <point x="1253" y="985.638"/>
      <point x="1253" y="555" type="curve" smooth="yes"/>
    </contour>
  </outline>
</glyph>
<glyph name="Tta.mlm" format="2">
  <advance width="1125"/>
  <unicode hex="0D1F"/>
  <outline>
    <contour>
      <point x="561" y="-38" type="curve" smooth="yes"/>
      <point x="904" y="-38"/>
      <point x="1067" y="82"/>
      <point x="1067" y="334" type="curve" smooth="yes"/>
      <point x="1067" y="344" type="line" smooth="yes"/>
      <point x="1067" y="565"/>
      <point x="960" y="663"/>
      <point x="668" y="713" type="curve" smooth="yes"/>
      <point x="445" y="752"/>
      <point x="403" y="778"/>
      <point x="403" y="831" type="curve"/>
      <point x="403" y="833" type="line"/>
      <point x="403" y="890"/>
      <point x="446" y="922"/>
      <point x="604" y="922" type="curve" smooth="yes"/>
      <point x="735" y="922"/>
      <point x="882" y="892"/>
      <point x="1012" y="843" type="curve"/>
      <point x="987" y="1124" type="line"/>
      <point x="885" y="1170"/>
      <point x="739" y="1208"/>
      <point x="569" y="1208" type="curve" smooth="yes"/>
      <point x="228" y="1208"/>
      <point x="65" y="1083"/>
      <point x="65" y="831" type="curve" smooth="yes"/>
      <point x="65" y="825" type="line" smooth="yes"/>
      <point x="65" y="607"/>
      <point x="182" y="520"/>
      <point x="498" y="462" type="curve" smooth="yes"/>
      <point x="694" y="426"/>
      <point x="728" y="397"/>
      <point x="728" y="340" type="curve"/>
      <point x="728" y="338" type="line"/>
      <point x="728" y="279"/>
      <point x="686" y="248"/>
      <point x="536" y="248" type="curve" smooth="yes"/>
      <point x="365" y="248"/>
      <point x="212" y="297"/>
      <point x="63" y="368" type="curve"/>
      <point x="90" y="68" type="line"/>
      <point x="207" y="7"/>
      <point x="369" y="-38"/>
    </contour>
  </outline>
</glyph>
<glyph name="Ttha.mlm" format="2">
  <advance width="1292"/>
  <unicode hex="0D20"/>
  <outline>
    <contour>
      <point x="647" y="262" type="curve" smooth="yes"/>
      <point x="490" y="262"/>
      <point x="413" y="352.369"/>
      <point x="413" y="529" type="curve" smooth="yes"/>
      <point x="413" y="632" type="line" smooth="yes"/>
      <point x="413" y="816"/>
      <point x="490" y="908"/>
      <point x="647" y="908" type="curve" smooth="yes"/>
      <point x="804" y="908"/>
      <point x="879" y="816"/>
      <point x="879" y="632" type="curve" smooth="yes"/>
      <point x="879" y="529" type="line" smooth="yes"/>
      <point x="879" y="352.369"/>
      <point x="804" y="262"/>
    </contour>
    <contour>
      <point x="647" y="-38" type="curve" smooth="yes"/>
      <point x="1026" y="-38"/>
      <point x="1219" y="154.065"/>
      <point x="1219" y="526" type="curve" smooth="yes"/>
      <point x="1219" y="631" type="line" smooth="yes"/>
      <point x="1219" y="1014.31"/>
      <point x="1026" y="1208"/>
      <point x="647" y="1208" type="curve" smooth="yes"/>
      <point x="268" y="1208"/>
      <point x="73" y="1014.31"/>
      <point x="73" y="631" type="curve" smooth="yes"/>
      <point x="73" y="526" type="line" smooth="yes"/>
      <point x="73" y="154.065"/>
      <point x="268" y="-38"/>
    </contour>
  </outline>
</glyph>
<glyph name="Dda.mlm" format="2">
  <advance width="2386"/>
  <unicode hex="0D21"/>
  <outline>
    <contour>
      <point x="1650" y="529" type="line"/>
      <point x="1650" y="1151" type="line"/>
      <point x="1312" y="1151" type="line"/>
      <point x="1312" y="524" type="line"/>
    </contour>
    <contour>
      <point x="1121" y="-33" type="curve" smooth="yes"/>
      <point x="1338" y="-33"/>
      <point x="1455" y="78"/>
      <point x="1476" y="246" type="curve"/>
      <point x="1565" y="246" type="line"/>
      <point x="1573" y="614" type="line"/>
      <point x="1312" y="634" type="line"/>
      <point x="1312" y="448" type="line" smooth="yes"/>
      <point x="1312" y="331"/>
      <point x="1268" y="274"/>
      <point x="1177" y="274" type="curve" smooth="yes"/>
      <point x="1086" y="274"/>
      <point x="1042" y="328.596"/>
      <point x="1042" y="445" type="curve" smooth="yes"/>
      <point x="1042" y="551.417"/>
      <point x="1052" y="634.616"/>
      <point x="1052" y="742" type="curve" smooth="yes"/>
      <point x="1052" y="1051.34"/>
      <point x="891" y="1205"/>
      <point x="573" y="1205" type="curve" smooth="yes"/>
      <point x="245" y="1205"/>
      <point x="79" y="1035.35"/>
      <point x="79" y="691" type="curve" smooth="yes"/>
      <point x="79" y="489" type="line" smooth="yes"/>
      <point x="79" y="299.058"/>
      <point x="119" y="114.167"/>
      <point x="197" y="0" type="curve"/>
      <point x="542" y="0" type="line"/>
      <point x="465" y="133.372"/>
      <point x="419" y="302.108"/>
      <point x="419" y="486" type="curve" smooth="yes"/>
      <point x="419" y="688" type="line" smooth="yes"/>
      <point x="419" y="837.427"/>
      <point x="468" y="906"/>
      <point x="574" y="906" type="curve" smooth="yes"/>
      <point x="669" y="906"/>
      <point x="714" y="849.438"/>
      <point x="714" y="725" type="curve" smooth="yes"/>
      <point x="714" y="614.585"/>
      <point x="704" y="528.384"/>
      <point x="704" y="417" type="curve" smooth="yes"/>
      <point x="704" y="118.685"/>
      <point x="843" y="-33"/>
    </contour>
    <contour>
      <point x="1485" y="246" type="line"/>
      <point x="1508" y="76"/>
      <point x="1628" y="-33"/>
      <point x="1856" y="-33" type="curve" smooth="yes"/>
      <point x="2157" y="-33"/>
      <point x="2307" y="139.638"/>
      <point x="2307" y="494" type="curve" smooth="yes"/>
      <point x="2307" y="678" type="line" smooth="yes"/>
      <point x="2307" y="866.96"/>
      <point x="2265" y="1039.75"/>
      <point x="2183" y="1160" type="curve"/>
      <point x="1847" y="1160" type="line"/>
      <point x="1924" y="1030.64"/>
      <point x="1967" y="865.904"/>
      <point x="1967" y="685" type="curve" smooth="yes"/>
      <point x="1967" y="498" type="line" smooth="yes"/>
      <point x="1967" y="345.598"/>
      <point x="1915" y="274"/>
      <point x="1804" y="274" type="curve" smooth="yes"/>
      <point x="1699" y="274"/>
      <point x="1650" y="335"/>
      <point x="1650" y="467" type="curve" smooth="yes"/>
      <point x="1650" y="635" type="line"/>
      <point x="1477" y="635" type="line"/>
    </contour>
  </outline>
</glyph>
<glyph name="Ta.mlm" format="2">
  <advance width="2080"/>
  <unicode hex="0D24"/>
  <outline>
    <contour>
      <point x="1040" y="-33" type="curve" smooth="yes"/>
      <point x="1333" y="-33"/>
      <point x="1481" y="111.715"/>
      <point x="1481" y="389" type="curve" smooth="yes"/>
      <point x="1481" y="536" type="line" smooth="yes"/>
      <point x="1481" y="733.273"/>
      <point x="1406" y="881.986"/>
      <point x="1235" y="970" type="curve"/>
      <point x="1120" y="1040" type="line"/>
      <point x="1047" y="1130"/>
      <point x="893" y="1203"/>
      <point x="670" y="1203" type="curve" smooth="yes"/>
      <point x="273" y="1203"/>
      <point x="78" y="995.341"/>
      <point x="78" y="577" type="curve" smooth="yes"/>
      <point x="78" y="457" type="line" smooth="yes"/>
      <point x="78" y="283.097"/>
      <point x="112" y="109.195"/>
      <point x="173" y="0" type="curve"/>
      <point x="516" y="0" type="line"/>
      <point x="451" y="133.47"/>
      <point x="417" y="284.129"/>
      <point x="417" y="454" type="curve" smooth="yes"/>
      <point x="417" y="579" type="line" smooth="yes"/>
      <point x="417" y="821.405"/>
      <point x="517" y="935"/>
      <point x="726" y="935" type="curve" smooth="yes"/>
      <point x="789" y="935"/>
      <point x="838" y="921"/>
      <point x="883" y="899" type="curve"/>
      <point x="991" y="862" type="line"/>
      <point x="1105" y="803.519"/>
      <point x="1147" y="692.714"/>
      <point x="1147" y="546" type="curve" smooth="yes"/>
      <point x="1147" y="399" type="line" smooth="yes"/>
      <point x="1147" y="291.51"/>
      <point x="1112" y="245"/>
      <point x="1040" y="245" type="curve" smooth="yes"/>
      <point x="968" y="245"/>
      <point x="933" y="291.51"/>
      <point x="933" y="399" type="curve" smooth="yes"/>
      <point x="933" y="546" type="line" smooth="yes"/>
      <point x="933" y="692.714"/>
      <point x="975" y="803.519"/>
      <point x="1089" y="862" type="curve"/>
      <point x="1197" y="899" type="line"/>
      <point x="1243" y="921"/>
      <point x="1290" y="935"/>
      <point x="1353" y="935" type="curve" smooth="yes"/>
      <point x="1563" y="935"/>
      <point x="1663" y="821.405"/>
      <point x="1663" y="579" type="curve" smooth="yes"/>
      <point x="1663" y="454" type="line" smooth="yes"/>
      <point x="1663" y="284.129"/>
      <point x="1630" y="133.47"/>
      <point x="1564" y="0" type="curve"/>
      <point x="1907" y="0" type="line"/>
      <point x="1969" y="109.195"/>
      <point x="2002" y="283.097"/>
      <point x="2002" y="457" type="curve" smooth="yes"/>
      <point x="2002" y="577" type="line" smooth="yes"/>
      <point x="2002" y="995.341"/>
      <point x="1808" y="1203"/>
      <point x="1410" y="1203" type="curve" smooth="yes"/>
      <point x="1187" y="1203"/>
      <point x="1034" y="1130"/>
      <point x="960" y="1040" type="curve"/>
      <point x="845" y="970" type="line"/>
      <point x="674" y="881.986"/>
      <point x="599" y="733.273"/>
      <point x="599" y="536" type="curve" smooth="yes"/>
      <point x="599" y="389" type="line" smooth="yes"/>
      <point x="599" y="111.715"/>
      <point x="747" y="-33"/>
    </contour>
  </outline>
</glyph>
<glyph name="Da.mlm" format="2">
  <advance width="1321"/>
  <unicode hex="0D26"/>
  <outline>
    <contour>
      <point x="1241" y="852" type="line" smooth="yes"/>
      <point x="1241" y="1087"/>
      <point x="1055" y="1208"/>
      <point x="694" y="1208" type="curve" smooth="yes"/>
      <point x="281" y="1208"/>
      <point x="81" y="1014.97"/>
      <point x="81" y="632" type="curve" smooth="yes"/>
      <point x="81" y="446" type="line" smooth="yes"/>
      <point x="81" y="276.095"/>
      <point x="103" y="113.27"/>
      <point x="145" y="0" type="curve"/>
      <point x="481" y="0" type="line"/>
      <point x="443" y="131.487"/>
      <point x="421" y="278.146"/>
      <point x="421" y="442" type="curve" smooth="yes"/>
      <point x="421" y="630" type="line" smooth="yes"/>
      <point x="421" y="828.217"/>
      <point x="504" y="921"/>
      <point x="695" y="921" type="curve" smooth="yes"/>
      <point x="835" y="921"/>
      <point x="900" y="886"/>
      <point x="900" y="814" type="curve" smooth="yes"/>
      <point x="900" y="804" type="line" smooth="yes"/>
      <point x="900" y="756"/>
      <point x="866" y="731"/>
      <point x="783" y="728" type="curve" smooth="yes"/>
      <point x="634" y="722" type="line"/>
      <point x="634" y="450" type="line"/>
      <point x="785" y="444" type="line" smooth="yes"/>
      <point x="877.02" y="440.344"/>
      <point x="913" y="410.897"/>
      <point x="913" y="354" type="curve" smooth="yes"/>
      <point x="913" y="345" type="line" smooth="yes"/>
      <point x="913" y="281.348"/>
      <point x="870" y="249"/>
      <point x="778" y="249" type="curve" smooth="yes"/>
      <point x="704" y="249"/>
      <point x="657" y="254"/>
      <point x="591" y="270" type="curve"/>
      <point x="628" y="1" type="line"/>
      <point x="701" y="-17"/>
      <point x="772" y="-25"/>
      <point x="860" y="-25" type="curve" smooth="yes"/>
      <point x="1126" y="-25"/>
      <point x="1255" y="82.0388"/>
      <point x="1255" y="290" type="curve" smooth="yes"/>
      <point x="1255" y="307" type="line" smooth="yes"/>
      <point x="1255" y="469.507"/>
      <point x="1168" y="562.515"/>
      <point x="988" y="585" type="curve"/>
      <point x="988" y="593" type="line"/>
      <point x="1161" y="614"/>
      <point x="1241" y="700"/>
      <point x="1241" y="844" type="curve" smooth="yes"/>
    </contour>
  </outline>
</glyph>
<glyph name="Nnna.mlm" format="2">
  <advance width="2169"/>
  <unicode hex="0D29"/>
  <outline>
    <contour>
      <point x="1075" y="4" type="line"/>
      <point x="1412" y="4" type="line"/>
      <point x="1412" y="666" type="line"/>
      <point x="1075" y="595" type="line"/>
    </contour>
    <contour>
      <point x="721" y="1204" type="curve" smooth="yes"/>
      <point x="287" y="1204"/>
      <point x="72" y="976.516"/>
      <point x="72" y="551" type="curve" smooth="yes"/>
      <point x="72" y="413" type="line" smooth="yes"/>
      <point x="72" y="119.367"/>
      <point x="220" y="-33"/>
      <point x="505" y="-33" type="curve" smooth="yes"/>
      <point x="786" y="-33"/>
      <point x="929" y="99.7102"/>
      <point x="929" y="355" type="curve" smooth="yes"/>
      <point x="929" y="418" type="line" smooth="yes"/>
      <point x="929" y="662.893"/>
      <point x="833" y="776"/>
      <point x="660" y="776" type="curve" smooth="yes"/>
      <point x="505" y="776"/>
      <point x="419" y="696"/>
      <point x="393" y="538" type="curve"/>
      <point x="397" y="446" type="line"/>
      <point x="417.812" y="482"/>
      <point x="456.464" y="505"/>
      <point x="508" y="505" type="curve" smooth="yes"/>
      <point x="571.326" y="505"/>
      <point x="602" y="467.629"/>
      <point x="602" y="396" type="curve" smooth="yes"/>
      <point x="602" y="355" type="line" smooth="yes"/>
      <point x="602" y="276.31"/>
      <point x="568.343" y="238"/>
      <point x="504" y="238" type="curve" smooth="yes"/>
      <point x="434.667" y="238"/>
      <point x="400" y="278.083"/>
      <point x="400" y="386" type="curve" smooth="yes"/>
      <point x="400" y="468" type="line"/>
      <point x="405" y="557" type="line"/>
      <point x="386" y="557" type="line"/>
      <point x="386" y="559" type="line"/>
      <point x="386" y="804.771"/>
      <point x="507" y="922"/>
      <point x="739" y="922" type="curve" smooth="yes"/>
      <point x="963" y="922"/>
      <point x="1075" y="826"/>
      <point x="1075" y="632" type="curve" smooth="yes"/>
      <point x="1075" y="550" type="line"/>
      <point x="1237" y="550" type="line"/>
      <point x="1236" y="913" type="line"/>
      <point x="1192" y="1093"/>
      <point x="1030" y="1204"/>
    </contour>
    <contour>
      <point x="1576" y="898" type="curve" smooth="yes"/>
      <point x="1696" y="898"/>
      <point x="1750" y="825.415"/>
      <point x="1750" y="669" type="curve" smooth="yes"/>
      <point x="1750" y="478" type="line" smooth="yes"/>
      <point x="1750" y="296.097"/>
      <point x="1710" y="132.385"/>
      <point x="1635" y="0" type="curve"/>
      <point x="1976" y="0" type="line"/>
      <point x="2053" y="114.187"/>
      <point x="2090" y="293.046"/>
      <point x="2090" y="481" type="curve" smooth="yes"/>
      <point x="2090" y="668" type="line" smooth="yes"/>
      <point x="2090" y="1026.34"/>
      <point x="1937" y="1204"/>
      <point x="1626" y="1204" type="curve" smooth="yes"/>
      <point x="1395" y="1204"/>
      <point x="1267" y="1098"/>
      <point x="1245" y="913" type="curve"/>
      <point x="1156" y="913" type="line"/>
      <point x="1156" y="538" type="line"/>
      <point x="1412" y="529" type="line"/>
      <point x="1412" y="700" type="line" smooth="yes"/>
      <point x="1412" y="834"/>
      <point x="1464" y="898"/>
    </contour>
  </outline>
</glyph>
<glyph name="Pa.mlm" format="2">
  <advance width="1757"/>
  <unicode hex="0D2A"/>
  <outline>
    <contour>
      <point x="532" y="806" type="curve" smooth="yes"/>
      <point x="224" y="806"/>
      <point x="68" y="653.33"/>
      <point x="68" y="349" type="curve" smooth="yes"/>
      <point x="68" y="300" type="line" smooth="yes"/>
      <point x="68" y="182.034"/>
      <point x="85" y="74.2373"/>
      <point x="118" y="0" type="curve"/>
      <point x="444" y="0" type="line"/>
      <point x="416" y="81.3793"/>
      <point x="396" y="177"/>
      <point x="396" y="295" type="curve" smooth="yes"/>
      <point x="396" y="343" type="line" smooth="yes"/>
      <point x="396" y="461.343"/>
      <point x="438" y="520"/>
      <point x="531" y="520" type="curve" smooth="yes"/>
      <point x="625" y="520"/>
      <point x="667" y="461.343"/>
      <point x="667" y="343" type="curve" smooth="yes"/>
      <point x="667" y="295" type="line" smooth="yes"/>
      <point x="667" y="187.066"/>
      <point x="647" y="95.4234"/>
      <point x="614" y="16" type="curve"/>
      <point x="614" y="0" type="line"/>
      <point x="841" y="0" type="line"/>
      <point x="945" y="95.3056"/>
      <point x="998" y="236.236"/>
      <point x="998" y="365" type="curve" smooth="yes"/>
      <point x="998" y="388" type="line" smooth="yes"/>
      <point x="998" y="665.317"/>
      <point x="842" y="806"/>
    </contour>
    <contour>
      <point x="1316" y="1163" type="line"/>
      <point x="1316" y="0" type="line"/>
      <point x="1654" y="0" type="line"/>
      <point x="1654" y="1163" type="line"/>
    </contour>
    <contour>
      <point x="900" y="264" type="line"/>
      <point x="614" y="0" type="line"/>
      <point x="1611" y="0" type="line"/>
      <point x="1611" y="264" type="line"/>
    </contour>
  </outline>
</glyph>
<glyph name="Bha.mlm" format="2">
  <advance width="1371"/>
  <unicode hex="0D2D"/>
  <outline>
    <contour>
      <point x="1292" y="856" type="curve" smooth="yes"/>
      <point x="1292" y="1084"/>
      <point x="1104.05" y="1208"/>
      <point x="749" y="1208" type="curve" smooth="yes"/>
      <point x="299.974" y="1208"/>
      <point x="81" y="1002.45"/>
      <point x="81" y="589" type="curve" smooth="yes"/>
      <point x="81" y="446" type="line" smooth="yes"/>
      <point x="81" y="276.095"/>
      <point x="103" y="113.27"/>
      <point x="144" y="0" type="curve"/>
      <point x="480" y="0" type="line"/>
      <point x="442" y="131.487"/>
      <point x="420" y="278.146"/>
      <point x="420" y="442" type="curve" smooth="yes"/>
      <point x="420" y="587" type="line" smooth="yes"/>
      <point x="420" y="823.945"/>
      <point x="512.824" y="931"/>
      <point x="750" y="931" type="curve" smooth="yes"/>
      <point x="887.981" y="931"/>
      <point x="952" y="907"/>
      <point x="952" y="865" type="curve" smooth="yes"/>
      <point x="952" y="841"/>
      <point x="935" y="833"/>
      <point x="888" y="831" type="curve" smooth="yes"/>
      <point x="828" y="828" type="line" smooth="yes"/>
      <point x="687.748" y="820.987"/>
      <point x="579" y="760"/>
      <point x="579" y="590" type="curve" smooth="yes"/>
      <point x="579" y="584" type="line" smooth="yes"/>
      <point x="579" y="412"/>
      <point x="685.772" y="353.061"/>
      <point x="827" y="346" type="curve" smooth="yes"/>
      <point x="887" y="343" type="line" smooth="yes"/>
      <point x="953.983" y="339.651"/>
      <point x="976" y="326"/>
      <point x="976" y="296" type="curve"/>
      <point x="976" y="294" type="line"/>
      <point x="976" y="249"/>
      <point x="924" y="235"/>
      <point x="815" y="235" type="curve" smooth="yes"/>
      <point x="733" y="235"/>
      <point x="676" y="242"/>
      <point x="605" y="258" type="curve"/>
      <point x="637" y="1" type="line"/>
      <point x="718" y="-19"/>
      <point x="795" y="-27"/>
      <point x="891" y="-27" type="curve" smooth="yes"/>
      <point x="1176" y="-27"/>
      <point x="1317" y="76"/>
      <point x="1317" y="277" type="curve" smooth="yes"/>
      <point x="1317" y="286" type="line" smooth="yes"/>
      <point x="1317" y="468"/>
      <point x="1202.03" y="527.689"/>
      <point x="1048" y="533" type="curve" smooth="yes"/>
      <point x="990" y="535" type="line" smooth="yes"/>
      <point x="931.957" y="537.001"/>
      <point x="907" y="553"/>
      <point x="907" y="584" type="curve"/>
      <point x="907" y="586" type="line"/>
      <point x="907" y="617"/>
      <point x="929.04" y="634.898"/>
      <point x="990" y="637" type="curve" smooth="yes"/>
      <point x="1048" y="639" type="line" smooth="yes"/>
      <point x="1209.02" y="644.552"/>
      <point x="1292" y="710"/>
    </contour>
  </outline>
</glyph>
<glyph name="Ya.mlm" format="2">
  <advance width="2100"/>
  <unicode hex="0D2F"/>
  <outline>
    <contour>
      <point x="1016" y="302" type="curve"/>
      <point x="915" y="262" type="line" smooth="yes"/>
      <point x="866" y="243"/>
      <point x="812" y="228"/>
      <point x="741" y="228" type="curve" smooth="yes"/>
      <point x="520" y="228"/>
      <point x="415" y="346.563"/>
      <point x="415" y="594" type="curve" smooth="yes"/>
      <point x="415" y="764" type="line" smooth="yes"/>
      <point x="415" y="872"/>
      <point x="446" y="924"/>
      <point x="519" y="924" type="curve" smooth="yes"/>
      <point x="585.695" y="924"/>
      <point x="610.553" y="875.438"/>
      <point x="615" y="787" type="curve" smooth="yes"/>
      <point x="624" y="608" type="line" smooth="yes"/>
      <point x="633.805" y="412.99"/>
      <point x="694" y="278"/>
      <point x="859" y="193" type="curve"/>
      <point x="967" y="127" type="line"/>
      <point x="1038" y="35"/>
      <point x="1187" y="-41"/>
      <point x="1405" y="-41" type="curve" smooth="yes"/>
      <point x="1820" y="-41"/>
      <point x="2022" y="168.667"/>
      <point x="2022" y="588" type="curve" smooth="yes"/>
      <point x="2022" y="709" type="line" smooth="yes"/>
      <point x="2022" y="887.984"/>
      <point x="1983" y="1045.73"/>
      <point x="1914" y="1160" type="curve"/>
      <point x="1585" y="1160" type="line"/>
      <point x="1652" y="1032.56"/>
      <point x="1685" y="883.869"/>
      <point x="1685" y="719" type="curve" smooth="yes"/>
      <point x="1685" y="594" type="line" smooth="yes"/>
      <point x="1685" y="346.62"/>
      <point x="1578" y="228"/>
      <point x="1352" y="228" type="curve" smooth="yes"/>
      <point x="1291" y="228"/>
      <point x="1244" y="243"/>
      <point x="1200" y="262" type="curve" smooth="yes"/>
      <point x="1104" y="302" type="line"/>
      <point x="999.579" y="355.46"/>
      <point x="966.827" y="459.493"/>
      <point x="957" y="611" type="curve" smooth="yes"/>
      <point x="945" y="796" type="line" smooth="yes"/>
      <point x="942.568" y="833.496"/>
      <point x="938.539" y="869.907"/>
      <point x="931" y="903" type="curve"/>
      <point x="891" y="948" type="line"/>
      <point x="857" y="1119"/>
      <point x="735" y="1204"/>
      <point x="520" y="1204" type="curve" smooth="yes"/>
      <point x="231" y="1204"/>
      <point x="79" y="1046"/>
      <point x="79" y="757" type="curve" smooth="yes"/>
      <point x="79" y="592" type="line" smooth="yes"/>
      <point x="79" y="171.684"/>
      <point x="282" y="-40"/>
      <point x="704" y="-40" type="curve" smooth="yes"/>
      <point x="923" y="-40"/>
      <point x="1077" y="35"/>
      <point x="1149" y="127" type="curve"/>
      <point x="1261" y="193" type="line" smooth="yes"/>
      <point x="1366.41" y="255.119"/>
      <point x="1424.69" y="334.628"/>
      <point x="1460" y="439" type="curve" smooth="yes"/>
      <point x="1498.81" y="553.714"/>
      <point x="1513" y="680"/>
      <point x="1513" y="813" type="curve" smooth="yes"/>
      <point x="1513" y="1073"/>
      <point x="1396.32" y="1203"/>
      <point x="1169" y="1203" type="curve" smooth="yes"/>
      <point x="1008" y="1203"/>
      <point x="915" y="1126"/>
      <point x="889" y="994" type="curve"/>
      <point x="830" y="994" type="line"/>
      <point x="938" y="850" type="line"/>
      <point x="958" y="894"/>
      <point x="1003" y="923"/>
      <point x="1064" y="923" type="curve" smooth="yes"/>
      <point x="1139" y="923"/>
      <point x="1179" y="877"/>
      <point x="1179" y="785" type="curve" smooth="yes"/>
      <point x="1179" y="673"/>
      <point x="1169.62" y="572.685"/>
      <point x="1141" y="469" type="curve" smooth="yes"/>
      <point x="1120.43" y="394.484"/>
      <point x="1082.06" y="335"/>
    </contour>
  </outline>
</glyph>
<glyph name="Ra.mlm" format="2">
  <advance width="1534"/>
  <unicode hex="0D30"/>
  <outline>
    <contour>
      <point x="789" y="925" type="curve" smooth="yes"/>
      <point x="1027" y="925"/>
      <point x="1144" y="800.213"/>
      <point x="1144" y="608" type="curve"/>
      <point x="1144" y="608" type="line"/>
      <point x="1128" y="608" type="line"/>
      <point x="1139" y="530" type="line"/>
      <point x="1139" y="390" type="line" smooth="yes"/>
      <point x="1139" y="283.6"/>
      <point x="1107" y="238"/>
      <point x="1031" y="238" type="curve" smooth="yes"/>
      <point x="962" y="238"/>
      <point x="926" y="281.723"/>
      <point x="926" y="359" type="curve" smooth="yes"/>
      <point x="926" y="425" type="line" smooth="yes"/>
      <point x="926" y="503.316"/>
      <point x="962" y="544"/>
      <point x="1032" y="544" type="curve" smooth="yes"/>
      <point x="1079" y="544"/>
      <point x="1115" y="530.235"/>
      <point x="1143" y="508" type="curve"/>
      <point x="1139" y="594" type="line"/>
      <point x="1111" y="725.256"/>
      <point x="1029" y="803"/>
      <point x="887" y="803" type="curve" smooth="yes"/>
      <point x="710" y="803"/>
      <point x="600" y="684.333"/>
      <point x="600" y="447" type="curve" smooth="yes"/>
      <point x="600" y="357" type="line" smooth="yes"/>
      <point x="600" y="101.691"/>
      <point x="748" y="-33"/>
      <point x="1029" y="-33" type="curve" smooth="yes"/>
      <point x="1318" y="-33"/>
      <point x="1462" y="117.686"/>
      <point x="1462" y="406" type="curve" smooth="yes"/>
      <point x="1462" y="557" type="line" smooth="yes"/>
      <point x="1462" y="994.795"/>
      <point x="1233" y="1208"/>
      <point x="775" y="1208" type="curve" smooth="yes"/>
      <point x="313" y="1208"/>
      <point x="78" y="985.297"/>
      <point x="78" y="554" type="curve" smooth="yes"/>
      <point x="78" y="450" type="line" smooth="yes"/>
      <point x="78" y="278.09"/>
      <point x="110" y="107.191"/>
      <point x="169" y="0" type="curve"/>
      <point x="512" y="0" type="line"/>
      <point x="451" y="129.451"/>
      <point x="418" y="278.118"/>
      <point x="418" y="446" type="curve" smooth="yes"/>
      <point x="418" y="545" type="line" smooth="yes"/>
      <point x="418" y="802.387"/>
      <point x="543" y="925"/>
    </contour>
  </outline>
</glyph>
<glyph name="Rra.mlm" format="2">
  <advance width="1292"/>
  <unicode hex="0D31"/>
  <outline>
    <contour>
      <point x="646" y="909" type="curve" smooth="yes"/>
      <point x="799" y="909"/>
      <point x="873" y="818.376"/>
      <point x="873" y="630" type="curve" smooth="yes"/>
      <point x="873" y="461" type="line" smooth="yes"/>
      <point x="873" y="286.103"/>
      <point x="833" y="127.382"/>
      <point x="767" y="0" type="curve"/>
      <point x="1109" y="0" type="line"/>
      <point x="1179" y="111.185"/>
      <point x="1213" y="285.039"/>
      <point x="1213" y="469" type="curve" smooth="yes"/>
      <point x="1213" y="633" type="line" smooth="yes"/>
      <point x="1213" y="1015.32"/>
      <point x="1021" y="1208"/>
      <point x="646" y="1208" type="curve" smooth="yes"/>
      <point x="272" y="1208"/>
      <point x="79" y="1015.32"/>
      <point x="79" y="633" type="curve" smooth="yes"/>
      <point x="79" y="469" type="line" smooth="yes"/>
      <point x="79" y="285.039"/>
      <point x="113" y="111.185"/>
      <point x="182" y="0" type="curve"/>
      <point x="524" y="0" type="line"/>
      <point x="458" y="127.382"/>
      <point x="419" y="286.103"/>
      <point x="419" y="461" type="curve" smooth="yes"/>
      <point x="419" y="630" type="line" smooth="yes"/>
      <point x="419" y="818.376"/>
      <point x="493" y="909"/>
    </contour>
  </outline>
</glyph>
<glyph name="Lla.mlm" format="2">
  <advance width="1525"/>
  <unicode hex="0D33"/>
  <outline>
    <contour>
      <point x="443" y="-368" type="curve" smooth="yes"/>
      <point x="1406" y="-368" type="line"/>
      <point x="1447" y="-115" type="line"/>
      <point x="479" y="-115" type="line" smooth="yes"/>
      <point x="429" y="-115"/>
      <point x="404" y="-97"/>
      <point x="404" y="-57" type="curve" smooth="yes"/>
      <point x="404" y="-17"/>
      <point x="429" y="0"/>
      <point x="479" y="0" type="curve" smooth="yes"/>
      <point x="1054" y="0" type="line" smooth="yes"/>
      <point x="1332" y="0"/>
      <point x="1463" y="98"/>
      <point x="1463" y="294" type="curve" smooth="yes"/>
      <point x="1463" y="311" type="line" smooth="yes"/>
      <point x="1463" y="461"/>
      <point x="1379" y="548"/>
      <point x="1200" y="570" type="curve"/>
      <point x="1200" y="578" type="line"/>
      <point x="1369" y="602"/>
      <point x="1445" y="681"/>
      <point x="1445" y="818" type="curve" smooth="yes"/>
      <point x="1445" y="834" type="line" smooth="yes"/>
      <point x="1445" y="1084"/>
      <point x="1225" y="1208"/>
      <point x="788" y="1208" type="curve" smooth="yes"/>
      <point x="314" y="1208"/>
      <point x="73" y="1015.32"/>
      <point x="73" y="638" type="curve" smooth="yes"/>
      <point x="73" y="576" type="line" smooth="yes"/>
      <point x="73" y="336.692"/>
      <point x="198" y="210"/>
      <point x="462" y="210" type="curve" smooth="yes"/>
      <point x="731" y="210"/>
      <point x="848" y="325.717"/>
      <point x="848" y="533" type="curve" smooth="yes"/>
      <point x="848" y="570" type="line" smooth="yes"/>
      <point x="848" y="756.312"/>
      <point x="769" y="854"/>
      <point x="606" y="854" type="curve" smooth="yes"/>
      <point x="464" y="854"/>
      <point x="393" y="788.312"/>
      <point x="373" y="663" type="curve"/>
      <point x="376" y="564" type="line"/>
      <point x="393" y="594.208"/>
      <point x="426" y="614"/>
      <point x="467" y="614" type="curve" smooth="yes"/>
      <point x="517" y="614"/>
      <point x="544" y="586.308"/>
      <point x="544" y="534" type="curve" smooth="yes"/>
      <point x="544" y="520" type="line" smooth="yes"/>
      <point x="544" y="462.682"/>
      <point x="517" y="433"/>
      <point x="465" y="433" type="curve" smooth="yes"/>
      <point x="406" y="433"/>
      <point x="379" y="465.674"/>
      <point x="379" y="530" type="curve" smooth="yes"/>
      <point x="379" y="607" type="line"/>
      <point x="381" y="678" type="line"/>
      <point x="365" y="678" type="line"/>
      <point x="365" y="680" type="line"/>
      <point x="365" y="845.323"/>
      <point x="503" y="930"/>
      <point x="785" y="930" type="curve" smooth="yes"/>
      <point x="1004" y="930"/>
      <point x="1106" y="887"/>
      <point x="1106" y="797" type="curve" smooth="yes"/>
      <point x="1106" y="790" type="line" smooth="yes"/>
      <point x="1106" y="739"/>
      <point x="1077" y="716"/>
      <point x="1011" y="711" type="curve" smooth="yes"/>
      <point x="933" y="705" type="line"/>
      <point x="933" y="446" type="line"/>
      <point x="1012" y="440" type="line" smooth="yes"/>
      <point x="1090" y="434"/>
      <point x="1124" y="409"/>
      <point x="1124" y="347" type="curve" smooth="yes"/>
      <point x="1124" y="338" type="line" smooth="yes"/>
      <point x="1124" y="271"/>
      <point x="1079" y="242"/>
      <point x="981" y="242" type="curve" smooth="yes"/>
      <point x="443" y="242" type="line" smooth="yes"/>
      <point x="194" y="242"/>
      <point x="70" y="140"/>
      <point x="70" y="-57" type="curve" smooth="yes"/>
      <point x="70" y="-261"/>
      <point x="194" y="-368"/>
    </contour>
  </outline>
</glyph>
<glyph name="Zha.mlm" format="2">
  <advance width="1441"/>
  <unicode hex="0D34"/>
  <outline>
    <contour>
      <point x="867" y="784" type="curve" smooth="yes"/>
      <point x="867" y="805" type="line" smooth="yes"/>
      <point x="867" y="891.402"/>
      <point x="899" y="932"/>
      <point x="965" y="932" type="curve" smooth="yes"/>
      <point x="1030" y="932"/>
      <point x="1063" y="890.319"/>
      <point x="1063" y="808" type="curve" smooth="yes"/>
      <point x="1063" y="790" type="line" smooth="yes"/>
      <point x="1063" y="633.523"/>
      <point x="963" y="565"/>
      <point x="725" y="565" type="curve" smooth="yes"/>
      <point x="487" y="565"/>
      <point x="388" y="648.53"/>
      <point x="388" y="838" type="curve" smooth="yes"/>
      <point x="388" y="857" type="line" smooth="yes"/>
      <point x="388" y="968.89"/>
      <point x="409" y="1069.59"/>
      <point x="446" y="1153" type="curve"/>
      <point x="117" y="1153" type="line"/>
      <point x="75" y="1073.7"/>
      <point x="55" y="965.933"/>
      <point x="55" y="848" type="curve" smooth="yes"/>
      <point x="55" y="828" type="line" smooth="yes"/>
      <point x="55" y="484.673"/>
      <point x="282" y="312"/>
      <point x="724" y="312" type="curve" smooth="yes"/>
      <point x="1164" y="312"/>
      <point x="1389" y="472.677"/>
      <point x="1389" y="791" type="curve" smooth="yes"/>
      <point x="1389" y="808" type="line" smooth="yes"/>
      <point x="1389" y="1069.29"/>
      <point x="1247" y="1205"/>
      <point x="967" y="1205" type="curve" smooth="yes"/>
      <point x="689" y="1205"/>
      <point x="545" y="1079.31"/>
      <point x="545" y="833" type="curve" smooth="yes"/>
      <point x="545" y="810" type="line" smooth="yes"/>
      <point x="545" y="704.201"/>
      <point x="568" y="624.851"/>
      <point x="638" y="516" type="curve"/>
      <point x="681" y="388" type="line"/>
      <point x="691" y="351"/>
      <point x="697" y="323"/>
      <point x="697" y="286" type="curve" smooth="yes"/>
      <point x="697" y="223"/>
      <point x="649" y="190"/>
      <point x="540" y="190" type="curve" smooth="yes"/>
      <point x="466" y="190"/>
      <point x="412" y="198"/>
      <point x="341" y="221" type="curve"/>
      <point x="389" y="-38" type="line"/>
      <point x="464" y="-61"/>
      <point x="536" y="-69"/>
      <point x="625" y="-69" type="curve" smooth="yes"/>
      <point x="892" y="-69"/>
      <point x="1021" y="29"/>
      <point x="1021" y="224" type="curve" smooth="yes"/>
      <point x="1021" y="285"/>
      <point x="1011" y="340"/>
      <point x="989" y="402" type="curve"/>
      <point x="939" y="522" type="line"/>
      <point x="891" y="620.887"/>
      <point x="867" y="706.521"/>
    </contour>
  </outline>
</glyph>
<glyph name="Va.mlm" format="2">
  <advance width="1841"/>
  <unicode hex="0D35"/>
  <outline>
    <contour>
      <point x="628" y="909" type="curve" smooth="yes"/>
      <point x="768" y="909"/>
      <point x="835" y="822.359"/>
      <point x="835" y="645" type="curve" smooth="yes"/>
      <point x="835" y="454" type="line" smooth="yes"/>
      <point x="835" y="288.106"/>
      <point x="798" y="138.397"/>
      <point x="735" y="16" type="curve"/>
      <point x="735" y="0" type="line"/>
      <point x="1011" y="0" type="line"/>
      <point x="1122" y="113.191"/>
      <point x="1175" y="289.043"/>
      <point x="1175" y="475" type="curve" smooth="yes"/>
      <point x="1175" y="664" type="line" smooth="yes"/>
      <point x="1175" y="1020.27"/>
      <point x="990" y="1208"/>
      <point x="628" y="1208" type="curve" smooth="yes"/>
      <point x="266" y="1208"/>
      <point x="79" y="1019.32"/>
      <point x="79" y="648" type="curve" smooth="yes"/>
      <point x="79" y="460" type="line" smooth="yes"/>
      <point x="79" y="280.044"/>
      <point x="112" y="109.187"/>
      <point x="178" y="0" type="curve"/>
      <point x="520" y="0" type="line"/>
      <point x="458" y="125.381"/>
      <point x="419" y="281.096"/>
      <point x="419" y="454" type="curve" smooth="yes"/>
      <point x="419" y="645" type="line" smooth="yes"/>
      <point x="419" y="822.359"/>
      <point x="489" y="909"/>
    </contour>
    <contour>
      <point x="1400" y="1163" type="line"/>
      <point x="1400" y="0" type="line"/>
      <point x="1738" y="0" type="line"/>
      <point x="1738" y="1163" type="line"/>
    </contour>
    <contour>
      <point x="1047" y="263" type="line"/>
      <point x="736" y="0" type="line"/>
      <point x="1696" y="0" type="line"/>
      <point x="1696" y="263" type="line"/>
    </contour>
  </outline>
</glyph>
<glyph name="Sha.mlm" format="2">
  <advance width="2066"/>
  <unicode hex="0D36"/>
  <outline>
    <contour>
      <point x="1345" y="925" type="curve" smooth="yes"/>
      <point x="1567" y="925"/>
      <point x="1676" y="800.227"/>
      <point x="1676" y="602" type="curve"/>
      <point x="1676" y="602" type="line"/>
      <point x="1660" y="602" type="line"/>
      <point x="1671" y="524" type="line"/>
      <point x="1671" y="388" type="line" smooth="yes"/>
      <point x="1671" y="282.595"/>
      <point x="1640" y="238"/>
      <point x="1566" y="238" type="curve" smooth="yes"/>
      <point x="1499" y="238"/>
      <point x="1464" y="280.718"/>
      <point x="1464" y="357" type="curve" smooth="yes"/>
      <point x="1464" y="421" type="line" smooth="yes"/>
      <point x="1464" y="498.322"/>
      <point x="1499" y="538"/>
      <point x="1567" y="538" type="curve" smooth="yes"/>
      <point x="1613" y="538"/>
      <point x="1648" y="525.25"/>
      <point x="1675" y="504" type="curve"/>
      <point x="1671" y="588" type="line"/>
      <point x="1644" y="719.256"/>
      <point x="1562" y="797"/>
      <point x="1422" y="797" type="curve" smooth="yes"/>
      <point x="1247" y="797"/>
      <point x="1138" y="679.335"/>
      <point x="1138" y="443" type="curve" smooth="yes"/>
      <point x="1138" y="355" type="line" smooth="yes"/>
      <point x="1138" y="100.689"/>
      <point x="1285" y="-33"/>
      <point x="1564" y="-33" type="curve" smooth="yes"/>
      <point x="1851" y="-33"/>
      <point x="1994" y="116.685"/>
      <point x="1994" y="404" type="curve" smooth="yes"/>
      <point x="1994" y="559" type="line" smooth="yes"/>
      <point x="1994" y="995.063"/>
      <point x="1773" y="1208"/>
      <point x="1331" y="1208" type="curve" smooth="yes"/>
      <point x="887" y="1208"/>
      <point x="662" y="1002.29"/>
      <point x="662" y="606" type="curve" smooth="yes"/>
      <point x="662" y="552.132"/>
      <point x="667" y="488.813"/>
      <point x="667" y="434" type="curve" smooth="yes"/>
      <point x="667" y="317.555"/>
      <point x="631" y="265"/>
      <point x="550" y="265" type="curve" smooth="yes"/>
      <point x="462" y="265"/>
      <point x="419" y="327.58"/>
      <point x="419" y="463" type="curve" smooth="yes"/>
      <point x="419" y="664" type="line" smooth="yes"/>
      <point x="419" y="853.914"/>
      <point x="464" y="1023.63"/>
      <point x="547" y="1160" type="curve"/>
      <point x="213" y="1160" type="line"/>
      <point x="123" y="1035.77"/>
      <point x="79" y="854.968"/>
      <point x="79" y="657" type="curve" smooth="yes"/>
      <point x="79" y="460" type="line" smooth="yes"/>
      <point x="79" y="129.656"/>
      <point x="239" y="-34"/>
      <point x="550" y="-34" type="curve" smooth="yes"/>
      <point x="853" y="-34"/>
      <point x="1005" y="114.659"/>
      <point x="1005" y="414" type="curve" smooth="yes"/>
      <point x="1005" y="467.798"/>
      <point x="1000" y="531.034"/>
      <point x="1000" y="582" type="curve" smooth="yes"/>
      <point x="1000" y="814.388"/>
      <point x="1116" y="925"/>
    </contour>
  </outline>
</glyph>
<glyph name="Ttta.mlm" format="2">
  <advance width="1395"/>
  <unicode hex="0D3A"/>
  <outline>
    <contour>
      <point x="103" y="1163" type="line"/>
      <point x="103" y="0" type="line"/>
      <point x="441" y="0" type="line"/>
      <point x="441" y="1163" type="line"/>
    </contour>
    <contour>
      <point x="1355" y="269" type="line"/>
      <point x="316" y="269" type="line"/>
      <point x="316" y="0" type="line"/>
      <point x="1316" y="0" type="line"/>
    </contour>
    <contour>
      <point x="880" y="160" type="line"/>
      <point x="574" y="160" type="line"/>
      <point x="574" y="-294" type="line"/>
      <point x="880" y="-294" type="line"/>
    </contour>
  </outline>
</glyph>
<glyph name="verticalbarviramasign.mlm" format="2">
  <unicode hex="0D3B"/>
  <outline>
    <contour>
      <point x="-790" y="1753" type="line"/>
      <point x="-790" y="1294" type="line"/>
      <point x="-488" y="1294" type="line"/>
      <point x="-488" y="1753" type="line"/>
    </contour>
  </outline>
</glyph>
<glyph name="circularviramasign.mlm" format="2">
  <unicode hex="0D3C"/>
  <outline>
    <contour>
      <point x="-354" y="1461" type="line" smooth="yes"/>
      <point x="-354" y="1273"/>
      <point x="-235" y="1171"/>
      <point x="-11" y="1171" type="curve" smooth="yes"/>
      <point x="213" y="1171"/>
      <point x="333" y="1273"/>
      <point x="333" y="1461" type="curve" smooth="yes"/>
      <point x="333" y="1466" type="line" smooth="yes"/>
      <point x="333" y="1654"/>
      <point x="213" y="1756"/>
      <point x="-11" y="1756" type="curve" smooth="yes"/>
      <point x="-235" y="1756"/>
      <point x="-354" y="1654"/>
      <point x="-354" y="1466" type="curve" smooth="yes"/>
    </contour>
    <contour>
      <point x="66" y="1461" type="line" smooth="yes"/>
      <point x="66" y="1411.74"/>
      <point x="39" y="1385"/>
      <point x="-11" y="1385" type="curve" smooth="yes"/>
      <point x="-61" y="1385"/>
      <point x="-88" y="1412.41"/>
      <point x="-88" y="1461" type="curve" smooth="yes"/>
      <point x="-88" y="1467" type="line" smooth="yes"/>
      <point x="-88" y="1515"/>
      <point x="-61" y="1542"/>
      <point x="-11" y="1542" type="curve" smooth="yes"/>
      <point x="39" y="1542"/>
      <point x="66" y="1515.29"/>
      <point x="66" y="1467" type="curve" smooth="yes"/>
    </contour>
  </outline>
</glyph>
<glyph name="matraIi.mlm" format="2">
  <advance width="567"/>
  <unicode hex="0D40"/>
  <outline>
    <contour>
      <point x="-396" y="1346" type="line" smooth="yes"/>
      <point x="-396" y="1149.27"/>
      <point x="-281.441" y="1037"/>
      <point x="-102" y="1037" type="curve" smooth="yes"/>
      <point x="21.75" y="1037"/>
      <point x="92.4464" y="1086.45"/>
      <point x="117" y="1170" type="curve"/>
      <point x="149" y="1170" type="line"/>
      <point x="142" y="1338" type="line"/>
      <point x="119" y="1296"/>
      <point x="73" y="1271"/>
      <point x="16" y="1271" type="curve" smooth="yes"/>
      <point x="-50" y="1271"/>
      <point x="-86" y="1302.67"/>
      <point x="-86" y="1365" type="curve" smooth="yes"/>
      <point x="-86" y="1374" type="line" smooth="yes"/>
      <point x="-86" y="1436.27"/>
      <point x="-49" y="1472"/>
      <point x="20" y="1472" type="curve" smooth="yes"/>
      <point x="96" y="1472"/>
      <point x="135" y="1430"/>
      <point x="135" y="1349" type="curve" smooth="yes"/>
      <point x="135" y="1288" type="line"/>
      <point x="126" y="1252" type="line"/>
      <point x="126" y="0" type="line"/>
      <point x="464" y="0" type="line"/>
      <point x="464" y="1308" type="line" smooth="yes"/>
      <point x="464" y="1579"/>
      <point x="308" y="1728"/>
      <point x="23" y="1728" type="curve" smooth="yes"/>
      <point x="-250" y="1728"/>
      <point x="-396" y="1600.3"/>
      <point x="-396" y="1361" type="curve" smooth="yes"/>
    </contour>
  </outline>
</glyph>
<glyph name="matraU.mlm" format="2">
  <advance width="912"/>
  <unicode hex="0D41"/>
  <outline>
    <contour>
      <point x="434" y="-116" type="curve" smooth="yes"/>
      <point x="363" y="-116"/>
      <point x="328" y="-75.0244"/>
      <point x="328" y="10" type="curve" smooth="yes"/>
      <point x="328" y="44" type="line" smooth="yes"/>
      <point x="328" y="129.041"/>
      <point x="363" y="169"/>
      <point x="434" y="169" type="curve" smooth="yes"/>
      <point x="506" y="169"/>
      <point x="539" y="129.041"/>
      <point x="539" y="44" type="curve" smooth="yes"/>
      <point x="539" y="10" type="line" smooth="yes"/>
      <point x="539" y="-75.0244"/>
      <point x="506" y="-116"/>
    </contour>
    <contour>
      <point x="431" y="431" type="curve" smooth="yes"/>
      <point x="161" y="431"/>
      <point x="19" y="301"/>
      <point x="19" y="41" type="curve" smooth="yes"/>
      <point x="19" y="12" type="line" smooth="yes"/>
      <point x="19" y="-256.015"/>
      <point x="163" y="-387"/>
      <point x="434" y="-387" type="curve" smooth="yes"/>
      <point x="706" y="-387"/>
      <point x="848" y="-258.013"/>
      <point x="848" y="5" type="curve" smooth="yes"/>
      <point x="848" y="32" type="line" smooth="yes"/>
      <point x="848" y="266.825"/>
      <point x="730" y="391.796"/>
      <point x="507" y="418" type="curve"/>
      <point x="483" y="423"/>
      <point x="459" y="431"/>
    </contour>
    <contour>
      <point x="808" y="756" type="curve" smooth="yes"/>
      <point x="808" y="777" type="line" smooth="yes"/>
      <point x="808" y="1063"/>
      <point x="668" y="1204"/>
      <point x="393" y="1204" type="curve" smooth="yes"/>
      <point x="284" y="1204"/>
      <point x="193" y="1181"/>
      <point x="122" y="1147" type="curve"/>
      <point x="92" y="853" type="line"/>
      <point x="153" y="886"/>
      <point x="221" y="907"/>
      <point x="301" y="907" type="curve" smooth="yes"/>
      <point x="417" y="907"/>
      <point x="472" y="846"/>
      <point x="472" y="737" type="curve" smooth="yes"/>
      <point x="472" y="722" type="line" smooth="yes"/>
      <point x="472" y="598"/>
      <point x="401" y="473"/>
      <point x="292" y="399" type="curve"/>
      <point x="532" y="303" type="line"/>
      <point x="722" y="397"/>
      <point x="808" y="564"/>
    </contour>
  </outline>
</glyph>
<glyph name="matraRu.mlm" format="2">
  <advance width="627"/>
  <unicode hex="0D43"/>
  <outline>
    <contour>
      <point x="190" y="-550" type="curve" smooth="yes"/>
      <point x="456" y="-550"/>
      <point x="602" y="-416"/>
      <point x="602" y="-159" type="curve" smooth="yes"/>
      <point x="602" y="-136" type="line" smooth="yes"/>
      <point x="602" y="177"/>
      <point x="445" y="408"/>
      <point x="445" y="754" type="curve" smooth="yes"/>
      <point x="445" y="913"/>
      <point x="453" y="1012"/>
      <point x="481" y="1163" type="curve"/>
      <point x="157" y="1163" type="line"/>
      <point x="127" y="1013"/>
      <point x="116" y="913"/>
      <point x="116" y="754" type="curve" smooth="yes"/>
      <point x="116" y="351"/>
      <point x="276" y="154"/>
      <point x="294" y="-119" type="curve"/>
      <point x="286" y="-149" type="line"/>
      <point x="286" y="-165"/>
      <point x="286" y="-175"/>
      <point x="286" y="-188" type="curve" smooth="yes"/>
      <point x="286" y="-206" type="line" smooth="yes"/>
      <point x="286" y="-274"/>
      <point x="252" y="-311"/>
      <point x="192" y="-311" type="curve" smooth="yes"/>
      <point x="135" y="-311"/>
      <point x="103" y="-281"/>
      <point x="103" y="-230" type="curve" smooth="yes"/>
      <point x="103" y="-225" type="line" smooth="yes"/>
      <point x="103" y="-176"/>
      <point x="133" y="-148"/>
      <point x="186" y="-148" type="curve" smooth="yes"/>
      <point x="233" y="-148"/>
      <point x="269" y="-165"/>
      <point x="288" y="-190" type="curve"/>
      <point x="309" y="-77" type="line"/>
      <point x="280" y="-77" type="line"/>
      <point x="247" y="19"/>
      <point x="189" y="69"/>
      <point x="65" y="69" type="curve" smooth="yes"/>
      <point x="-100" y="69"/>
      <point x="-202" y="-31"/>
      <point x="-202" y="-212" type="curve" smooth="yes"/>
      <point x="-202" y="-226" type="line" smooth="yes"/>
      <point x="-202" y="-437"/>
      <point x="-65" y="-550"/>
    </contour>
  </outline>
</glyph>
<glyph name="matraRru.mlm" format="2">
  <advance width="675"/>
  <unicode hex="0D44"/>
  <outline>
    <contour>
      <point x="449" y="-111" type="line"/>
      <point x="446" y="-20"/>
      <point x="418" y="64"/>
      <point x="323" y="64" type="curve" smooth="yes"/>
      <point x="251" y="64"/>
      <point x="215" y="17"/>
      <point x="204" y="-69" type="curve"/>
      <point x="196" y="-69" type="line"/>
      <point x="180" y="18"/>
      <point x="108" y="66"/>
      <point x="-16" y="66" type="curve" smooth="yes"/>
      <point x="-197" y="66"/>
      <point x="-296" y="-29"/>
      <point x="-296" y="-198" type="curve" smooth="yes"/>
      <point x="-296" y="-208" type="line" smooth="yes"/>
      <point x="-296" y="-424"/>
      <point x="-127" y="-537"/>
      <point x="190" y="-537" type="curve" smooth="yes"/>
      <point x="534" y="-537"/>
      <point x="721" y="-399"/>
      <point x="721" y="-127" type="curve" smooth="yes"/>
      <point x="721" y="-107" type="line" smooth="yes"/>
      <point x="721" y="257"/>
      <point x="440" y="408"/>
      <point x="440" y="798" type="curve" smooth="yes"/>
      <point x="440" y="940"/>
      <point x="447" y="1029"/>
      <point x="470" y="1163" type="curve"/>
      <point x="143" y="1163" type="line"/>
      <point x="113" y="1030"/>
      <point x="104" y="940"/>
      <point x="104" y="798" type="curve" smooth="yes"/>
      <point x="104" y="378"/>
      <point x="318" y="207"/>
      <point x="401" y="44" type="curve"/>
      <point x="388" y="35" type="line"/>
      <point x="423" y="-91" type="line"/>
      <point x="424" y="-118"/>
      <point x="423" y="-134"/>
      <point x="423" y="-163" type="curve" smooth="yes"/>
      <point x="423" y="-183" type="line" smooth="yes"/>
      <point x="423" y="-274"/>
      <point x="342" y="-320"/>
      <point x="180" y="-320" type="curve" smooth="yes"/>
      <point x="33" y="-320"/>
      <point x="-32" y="-280"/>
      <point x="-32" y="-210" type="curve" smooth="yes"/>
      <point x="-32" y="-204" type="line" smooth="yes"/>
      <point x="-32" y="-165"/>
      <point x="-11" y="-145"/>
      <point x="27" y="-145" type="curve" smooth="yes"/>
      <point x="65" y="-145"/>
      <point x="81" y="-164"/>
      <point x="84" y="-201" type="curve" smooth="yes"/>
      <point x="88" y="-242" type="line"/>
      <point x="314" y="-242" type="line"/>
      <point x="318" y="-200" type="line" smooth="yes"/>
      <point x="321.614" y="-162.053"/>
      <point x="337" y="-141"/>
      <point x="374" y="-141" type="curve" smooth="yes"/>
      <point x="405" y="-141"/>
      <point x="421" y="-156"/>
      <point x="427" y="-180" type="curve"/>
    </contour>
  </outline>
</glyph>
<glyph name="matraE.mlm" format="2">
  <advance width="994"/>
  <unicode hex="0D47"/>
  <outline>
    <contour>
      <point x="395" y="732" type="line"/>
      <point x="413" y="732" type="line"/>
      <point x="407" y="834" type="line"/>
      <point x="407" y="856" type="line" smooth="yes"/>
      <point x="407" y="923.744"/>
      <point x="442.66" y="952"/>
      <point x="515" y="952" type="curve" smooth="yes"/>
      <point x="577.68" y="952"/>
      <point x="610" y="934"/>
      <point x="610" y="894" type="curve" smooth="yes"/>
      <point x="610" y="890" type="line" smooth="yes"/>
      <point x="610" y="854"/>
      <point x="578" y="834"/>
      <point x="515" y="834" type="curve" smooth="yes"/>
      <point x="464" y="834"/>
      <point x="425" y="847"/>
      <point x="405" y="868" type="curve"/>
      <point x="400" y="751" type="line"/>
      <point x="420" y="655"/>
      <point x="512" y="603"/>
      <point x="650" y="603" type="curve" smooth="yes"/>
      <point x="834" y="603"/>
      <point x="936" y="697.373"/>
      <point x="936" y="878" type="curve" smooth="yes"/>
      <point x="936" y="888" type="line" smooth="yes"/>
      <point x="936" y="1100.39"/>
      <point x="794" y="1214"/>
      <point x="515" y="1214" type="curve" smooth="yes"/>
      <point x="227" y="1214"/>
      <point x="81" y="1071.48"/>
      <point x="81" y="782" type="curve" smooth="yes"/>
      <point x="81" y="387" type="line" smooth="yes"/>
      <point x="81" y="98.553"/>
      <point x="227" y="-45"/>
      <point x="515" y="-45" type="curve" smooth="yes"/>
      <point x="794" y="-45"/>
      <point x="936" y="69.303"/>
      <point x="936" y="283" type="curve" smooth="yes"/>
      <point x="936" y="296" type="line" smooth="yes"/>
      <point x="936" y="480.638"/>
      <point x="834" y="576"/>
      <point x="651" y="576" type="curve" smooth="yes"/>
      <point x="509" y="576"/>
      <point x="422" y="521"/>
      <point x="400" y="417" type="curve"/>
      <point x="405" y="301" type="line"/>
      <point x="425" y="323"/>
      <point x="464" y="335"/>
      <point x="515" y="335" type="curve" smooth="yes"/>
      <point x="578" y="335"/>
      <point x="610" y="316"/>
      <point x="610" y="279" type="curve" smooth="yes"/>
      <point x="610" y="276" type="line" smooth="yes"/>
      <point x="610" y="237"/>
      <point x="577.68" y="217"/>
      <point x="515" y="217" type="curve" smooth="yes"/>
      <point x="442.66" y="217"/>
      <point x="407" y="246.372"/>
      <point x="407" y="313" type="curve" smooth="yes"/>
      <point x="407" y="345" type="line"/>
      <point x="413" y="437" type="line"/>
      <point x="395" y="437" type="line"/>
    </contour>
  </outline>
</glyph>
<glyph name="chilluY.mlm" format="2">
  <advance width="2094"/>
  <unicode hex="0D55"/>
  <outline>
    <contour>
      <point x="624" y="608" type="line" smooth="yes"/>
      <point x="634" y="414"/>
      <point x="694" y="278"/>
      <point x="859" y="193" type="curve"/>
      <point x="967" y="127" type="line"/>
      <point x="1038" y="35"/>
      <point x="1187" y="-41"/>
      <point x="1405" y="-41" type="curve" smooth="yes"/>
      <point x="1820" y="-41"/>
      <point x="2022" y="147.667"/>
      <point x="2022" y="525" type="curve" smooth="yes"/>
      <point x="2022" y="761"/>
      <point x="1934" y="965"/>
      <point x="1934" y="1186" type="curve" smooth="yes"/>
      <point x="1934" y="1312"/>
      <point x="1949" y="1422"/>
      <point x="1979" y="1527" type="curve"/>
      <point x="1654" y="1527" type="line"/>
      <point x="1619" y="1426"/>
      <point x="1600" y="1318"/>
      <point x="1600" y="1174" type="curve" smooth="yes"/>
      <point x="1600" y="928"/>
      <point x="1685" y="728"/>
      <point x="1685" y="535" type="curve" smooth="yes"/>
      <point x="1685" y="327.499"/>
      <point x="1578" y="228"/>
      <point x="1352" y="228" type="curve" smooth="yes"/>
      <point x="1291" y="228"/>
      <point x="1244" y="243"/>
      <point x="1200" y="262" type="curve" smooth="yes"/>
      <point x="1104" y="302" type="line"/>
      <point x="1001" y="352"/>
      <point x="969" y="454"/>
      <point x="959" y="591" type="curve" smooth="yes"/>
      <point x="944" y="806" type="line" smooth="yes"/>
      <point x="942" y="840"/>
      <point x="938" y="873"/>
      <point x="931" y="903" type="curve"/>
      <point x="891" y="948" type="line"/>
      <point x="857" y="1119"/>
      <point x="735" y="1204"/>
      <point x="520" y="1204" type="curve" smooth="yes"/>
      <point x="231" y="1204"/>
      <point x="79" y="1046"/>
      <point x="79" y="757" type="curve" smooth="yes"/>
      <point x="79" y="585" type="line" smooth="yes"/>
      <point x="79" y="169.34"/>
      <point x="282" y="-40"/>
      <point x="704" y="-40" type="curve" smooth="yes"/>
      <point x="923" y="-40"/>
      <point x="1077" y="35"/>
      <point x="1149" y="127" type="curve"/>
      <point x="1261" y="193" type="line" smooth="yes"/>
      <point x="1366" y="254"/>
      <point x="1422" y="335"/>
      <point x="1458" y="439" type="curve" smooth="yes"/>
      <point x="1498" y="554"/>
      <point x="1511" y="678"/>
      <point x="1511" y="813" type="curve" smooth="yes"/>
      <point x="1511" y="1073"/>
      <point x="1395" y="1203"/>
      <point x="1169" y="1203" type="curve" smooth="yes"/>
      <point x="1008" y="1203"/>
      <point x="915" y="1126"/>
      <point x="889" y="994" type="curve"/>
      <point x="830" y="994" type="line"/>
      <point x="938" y="850" type="line"/>
      <point x="958" y="894"/>
      <point x="1003" y="923"/>
      <point x="1064" y="923" type="curve" smooth="yes"/>
      <point x="1139" y="923"/>
      <point x="1179" y="877"/>
      <point x="1179" y="785" type="curve" smooth="yes"/>
      <point x="1179" y="673"/>
      <point x="1169" y="573"/>
      <point x="1139" y="469" type="curve" smooth="yes"/>
      <point x="1117" y="395"/>
      <point x="1081" y="335"/>
      <point x="1016" y="302" type="curve"/>
      <point x="915" y="262" type="line" smooth="yes"/>
      <point x="866" y="243"/>
      <point x="812" y="228"/>
      <point x="741" y="228" type="curve" smooth="yes"/>
      <point x="520" y="228"/>
      <point x="415" y="344.296"/>
      <point x="415" y="587" type="curve" smooth="yes"/>
      <point x="415" y="764" type="line" smooth="yes"/>
      <point x="415" y="872"/>
      <point x="446" y="924"/>
      <point x="519" y="924" type="curve" smooth="yes"/>
      <point x="585" y="924"/>
      <point x="610" y="879"/>
      <point x="614" y="797" type="curve" smooth="yes"/>
    </contour>
  </outline>
</glyph>
<glyph name="chilluZh.mlm" format="2">
  <advance width="1699"/>
  <unicode hex="0D56"/>
  <outline>
    <contour>
      <point x="503" y="1116" type="curve" smooth="yes"/>
      <point x="503" y="944"/>
      <point x="486" y="729"/>
      <point x="445" y="495" type="curve"/>
      <point x="439" y="466"/>
      <point x="434" y="452"/>
      <point x="428" y="423" type="curve"/>
      <point x="410" y="364"/>
      <point x="397" y="313"/>
      <point x="397" y="253" type="curve" smooth="yes"/>
      <point x="397" y="39"/>
      <point x="538" y="-69"/>
      <point x="827" y="-69" type="curve" smooth="yes"/>
      <point x="1121" y="-69"/>
      <point x="1264" y="36"/>
      <point x="1264" y="250" type="curve" smooth="yes"/>
      <point x="1264" y="305"/>
      <point x="1255" y="354"/>
      <point x="1237" y="408" type="curve"/>
      <point x="1219" y="522" type="line"/>
      <point x="1186" y="631.841"/>
      <point x="1171" y="725.101"/>
      <point x="1171" y="808" type="curve" smooth="yes"/>
      <point x="1171" y="827" type="line" smooth="yes"/>
      <point x="1171" y="902"/>
      <point x="1201" y="936"/>
      <point x="1256" y="936" type="curve" smooth="yes"/>
      <point x="1313" y="936"/>
      <point x="1340" y="900.315"/>
      <point x="1340" y="831" type="curve" smooth="yes"/>
      <point x="1340" y="816" type="line" smooth="yes"/>
      <point x="1340" y="639.988"/>
      <point x="1199" y="565"/>
      <point x="863" y="565" type="curve" smooth="yes"/>
      <point x="512" y="565"/>
      <point x="368" y="657.048"/>
      <point x="368" y="867" type="curve" smooth="yes"/>
      <point x="368" y="880" type="line" smooth="yes"/>
      <point x="368" y="983.802"/>
      <point x="386" y="1075.15"/>
      <point x="413" y="1153" type="curve"/>
      <point x="109" y="1153" type="line"/>
      <point x="75" y="1080.44"/>
      <point x="55" y="975.846"/>
      <point x="55" y="870" type="curve" smooth="yes"/>
      <point x="55" y="856" type="line" smooth="yes"/>
      <point x="55" y="496.34"/>
      <point x="333" y="316"/>
      <point x="858" y="316" type="curve" smooth="yes"/>
      <point x="1374" y="316"/>
      <point x="1647" y="483.333"/>
      <point x="1647" y="818" type="curve" smooth="yes"/>
      <point x="1647" y="832" type="line" smooth="yes"/>
      <point x="1647" y="1079.32"/>
      <point x="1513" y="1205"/>
      <point x="1252" y="1205" type="curve" smooth="yes"/>
      <point x="1001" y="1205"/>
      <point x="868" y="1083.31"/>
      <point x="868" y="845" type="curve" smooth="yes"/>
      <point x="868" y="825" type="line" smooth="yes"/>
      <point x="868" y="722.689"/>
      <point x="893" y="609.01"/>
      <point x="923" y="516" type="curve"/>
      <point x="938" y="388" type="line"/>
      <point x="945" y="351"/>
      <point x="951" y="323"/>
      <point x="951" y="286" type="curve" smooth="yes"/>
      <point x="951" y="220"/>
      <point x="913" y="184"/>
      <point x="831" y="184" type="curve" smooth="yes"/>
      <point x="748" y="184"/>
      <point x="710" y="222"/>
      <point x="710" y="293" type="curve" smooth="yes"/>
      <point x="710" y="330"/>
      <point x="718" y="358"/>
      <point x="727" y="395" type="curve"/>
      <point x="732" y="432"/>
      <point x="732" y="454"/>
      <point x="736" y="490" type="curve"/>
      <point x="772" y="674"/>
      <point x="799" y="884"/>
      <point x="799" y="1112" type="curve" smooth="yes"/>
      <point x="799" y="1280"/>
      <point x="778" y="1409"/>
      <point x="746" y="1527" type="curve"/>
      <point x="450" y="1527" type="line"/>
      <point x="481" y="1397"/>
      <point x="503" y="1262"/>
    </contour>
  </outline>
</glyph>
<glyph name="onefortieth.mlm" format="2">
  <advance width="2313"/>
  <unicode hex="0D59"/>
  <outline>
    <contour>
      <point x="784" y="925" type="curve" smooth="yes"/>
      <point x="1006" y="925"/>
      <point x="1119" y="815.275"/>
      <point x="1119" y="607" type="curve" smooth="yes"/>
      <point x="1119" y="384" type="line" smooth="yes"/>
      <point x="1119" y="281.597"/>
      <point x="1089" y="238"/>
      <point x="1019" y="238" type="curve" smooth="yes"/>
      <point x="954" y="238"/>
      <point x="920" y="279.726"/>
      <point x="920" y="353" type="curve" smooth="yes"/>
      <point x="920" y="385" type="line" smooth="yes"/>
      <point x="920" y="462.322"/>
      <point x="952" y="502"/>
      <point x="1024" y="502" type="curve" smooth="yes"/>
      <point x="1319" y="502" type="line"/>
      <point x="1355" y="755" type="line"/>
      <point x="967" y="755" type="line" smooth="yes"/>
      <point x="724" y="755"/>
      <point x="595" y="636.339"/>
      <point x="595" y="396" type="curve" smooth="yes"/>
      <point x="595" y="351" type="line" smooth="yes"/>
      <point x="595" y="99.6911"/>
      <point x="740" y="-33"/>
      <point x="1017" y="-33" type="curve" smooth="yes"/>
      <point x="1298" y="-33"/>
      <point x="1438" y="115.687"/>
      <point x="1438" y="400" type="curve" smooth="yes"/>
      <point x="1438" y="566" type="line" smooth="yes"/>
      <point x="1438" y="997.359"/>
      <point x="1215" y="1208"/>
      <point x="770" y="1208" type="curve" smooth="yes"/>
      <point x="311" y="1208"/>
      <point x="78" y="982.295"/>
      <point x="78" y="546" type="curve" smooth="yes"/>
      <point x="78" y="450" type="line" smooth="yes"/>
      <point x="78" y="278.09"/>
      <point x="110" y="107.191"/>
      <point x="169" y="0" type="curve"/>
      <point x="512" y="0" type="line"/>
      <point x="451" y="129.451"/>
      <point x="418" y="278.118"/>
      <point x="418" y="446" type="curve" smooth="yes"/>
      <point x="418" y="537" type="line" smooth="yes"/>
      <point x="418" y="800.394"/>
      <point x="541" y="925"/>
    </contour>
    <contour>
      <point x="1810" y="738" type="line"/>
      <point x="1810" y="844" type="line" smooth="yes"/>
      <point x="1810" y="908"/>
      <point x="1837" y="934"/>
      <point x="1891" y="934" type="curve" smooth="yes"/>
      <point x="1943" y="934"/>
      <point x="1968" y="907"/>
      <point x="1968" y="849" type="curve" smooth="yes"/>
      <point x="1968" y="839" type="line" smooth="yes"/>
      <point x="1968" y="780"/>
      <point x="1937" y="755"/>
      <point x="1880" y="755" type="curve" smooth="yes"/>
      <point x="1296" y="755" type="line"/>
      <point x="1393" y="500" type="line"/>
      <point x="1908" y="500" type="line" smooth="yes"/>
      <point x="2159" y="500"/>
      <point x="2286" y="610"/>
      <point x="2286" y="831" type="curve" smooth="yes"/>
      <point x="2286" y="844" type="line" smooth="yes"/>
      <point x="2286" y="1077"/>
      <point x="2153" y="1199"/>
      <point x="1898" y="1199" type="curve" smooth="yes"/>
      <point x="1643" y="1199"/>
      <point x="1514" y="1079"/>
      <point x="1514" y="852" type="curve" smooth="yes"/>
      <point x="1514" y="733" type="line"/>
    </contour>
  </outline>
</glyph>
<glyph name="threeeightieths.mlm" format="2">
  <advance width="2172"/>
  <unicode hex="0D5A"/>
  <outline>
    <contour>
      <point x="594" y="898" type="curve" smooth="yes"/>
      <point x="707" y="898"/>
      <point x="758" y="835"/>
      <point x="758" y="704" type="curve" smooth="yes"/>
      <point x="758" y="525" type="line"/>
      <point x="922" y="531" type="line"/>
      <point x="921" y="938" type="line"/>
      <point x="888" y="1111"/>
      <point x="759" y="1204"/>
      <point x="544" y="1204" type="curve" smooth="yes"/>
      <point x="234" y="1204"/>
      <point x="79" y="1026.34"/>
      <point x="79" y="668" type="curve" smooth="yes"/>
      <point x="79" y="481" type="line" smooth="yes"/>
      <point x="79" y="293.046"/>
      <point x="115" y="114.187"/>
      <point x="188" y="0" type="curve"/>
      <point x="530" y="0" type="line"/>
      <point x="459" y="132.385"/>
      <point x="419" y="296.097"/>
      <point x="419" y="478" type="curve" smooth="yes"/>
      <point x="419" y="669" type="line" smooth="yes"/>
      <point x="419" y="825.415"/>
      <point x="474" y="898"/>
    </contour>
    <contour>
      <point x="901" y="938" type="line"/>
      <point x="758" y="591" type="line"/>
      <point x="758" y="0" type="line"/>
      <point x="1079" y="0" type="line"/>
      <point x="1079" y="585" type="line" smooth="yes"/>
      <point x="1079" y="837.598"/>
      <point x="1175" y="936"/>
      <point x="1416" y="936" type="curve" smooth="yes"/>
      <point x="1637" y="936"/>
      <point x="1754" y="835.569"/>
      <point x="1754" y="585" type="curve" smooth="yes"/>
      <point x="1754" y="0" type="line"/>
      <point x="2078" y="0" type="line"/>
      <point x="2078" y="582" type="line" smooth="yes"/>
      <point x="2078" y="993.306"/>
      <point x="1863" y="1204"/>
      <point x="1440" y="1204" type="curve" smooth="yes"/>
      <point x="1142" y="1204"/>
      <point x="984" y="1104"/>
      <point x="929" y="938" type="curve"/>
    </contour>
    <contour>
      <point x="923" y="247" type="line"/>
      <point x="781" y="0" type="line"/>
      <point x="2037" y="0" type="line"/>
      <point x="1970" y="247" type="line"/>
    </contour>
    <contour>
      <point x="1603.09" y="616" type="line" smooth="yes"/>
      <point x="1603.09" y="817.067"/>
      <point x="1481.81" y="935"/>
      <point x="1260.09" y="935" type="curve" smooth="yes"/>
      <point x="1210.18" y="935"/>
      <point x="1150.33" y="926.231"/>
      <point x="1093.09" y="899" type="curve"/>
      <point x="1057.09" y="731" type="line"/>
      <point x="1091.53" y="755.444"/>
      <point x="1127.62" y="765"/>
      <point x="1163.09" y="765" type="curve" smooth="yes"/>
      <point x="1248.02" y="765"/>
      <point x="1277.09" y="700.174"/>
      <point x="1277.09" y="618" type="curve" smooth="yes"/>
      <point x="1277.09" y="603" type="line" smooth="yes"/>
      <point x="1277.09" y="467.622"/>
      <point x="1215.66" y="335.252"/>
      <point x="1133.09" y="245" type="curve"/>
      <point x="1411.09" y="198" type="line"/>
      <point x="1529.71" y="289.915"/>
      <point x="1603.09" y="434.352"/>
      <point x="1603.09" y="600" type="curve" smooth="yes"/>
    </contour>
  </outline>
</glyph>
<glyph name="threetwentieths.mlm" format="2">
  <advance width="3814"/>
  <unicode hex="0D5D"/>
  <outline>
    <contour>
      <point x="358" y="495" type="line"/>
      <point x="695" y="501" type="line"/>
      <point x="695" y="1160" type="line"/>
      <point x="358" y="1160" type="line"/>
    </contour>
    <contour>
      <point x="224" y="-33" type="curve" smooth="yes"/>
      <point x="410" y="-33"/>
      <point x="505" y="78"/>
      <point x="523" y="246" type="curve"/>
      <point x="612" y="246" type="line"/>
      <point x="619" y="614" type="line"/>
      <point x="358" y="634" type="line"/>
      <point x="358" y="455" type="line" smooth="yes"/>
      <point x="358" y="324"/>
      <point x="303" y="261"/>
      <point x="185" y="261" type="curve" smooth="yes"/>
      <point x="112" y="261"/>
      <point x="55" y="271"/>
      <point x="10" y="284" type="curve"/>
      <point x="74" y="-9" type="line"/>
      <point x="116" y="-24"/>
      <point x="170" y="-33"/>
    </contour>
    <contour>
      <point x="1436" y="1205" type="curve" smooth="yes"/>
      <point x="1118" y="1205"/>
      <point x="959" y="1053.33"/>
      <point x="959" y="750" type="curve" smooth="yes"/>
      <point x="959" y="633.681"/>
      <point x="968" y="548.38"/>
      <point x="968" y="434" type="curve" smooth="yes"/>
      <point x="968" y="320.584"/>
      <point x="926" y="268"/>
      <point x="834" y="268" type="curve" smooth="yes"/>
      <point x="740" y="268"/>
      <point x="695" y="319"/>
      <point x="695" y="429" type="curve" smooth="yes"/>
      <point x="695" y="634" type="line"/>
      <point x="536" y="598" type="line"/>
      <point x="531" y="246" type="line"/>
      <point x="552" y="75"/>
      <point x="670" y="-33"/>
      <point x="890" y="-33" type="curve" smooth="yes"/>
      <point x="1169" y="-33"/>
      <point x="1306" y="116.655"/>
      <point x="1306" y="419" type="curve" smooth="yes"/>
      <point x="1306" y="534.338"/>
      <point x="1297" y="620.6"/>
      <point x="1297" y="734" type="curve" smooth="yes"/>
      <point x="1297" y="852.443"/>
      <point x="1342" y="906"/>
      <point x="1437" y="906" type="curve" smooth="yes"/>
      <point x="1533" y="906"/>
      <point x="1575" y="852.443"/>
      <point x="1575" y="734" type="curve" smooth="yes"/>
      <point x="1575" y="620.6"/>
      <point x="1566" y="534.338"/>
      <point x="1566" y="419" type="curve" smooth="yes"/>
      <point x="1566" y="117.674"/>
      <point x="1725" y="-34"/>
      <point x="2038" y="-34" type="curve" smooth="yes"/>
      <point x="2352" y="-34"/>
      <point x="2510" y="117.674"/>
      <point x="2510" y="419" type="curve" smooth="yes"/>
      <point x="2510" y="534.338"/>
      <point x="2501" y="620.6"/>
      <point x="2501" y="734" type="curve" smooth="yes"/>
      <point x="2501" y="852.443"/>
      <point x="2545" y="906"/>
      <point x="2639" y="906" type="curve" smooth="yes"/>
      <point x="2734" y="906"/>
      <point x="2777" y="852.443"/>
      <point x="2777" y="734" type="curve" smooth="yes"/>
      <point x="2777" y="621.602"/>
      <point x="2769" y="536.335"/>
      <point x="2769" y="422" type="curve" smooth="yes"/>
      <point x="2769" y="118.674"/>
      <point x="2927" y="-34"/>
      <point x="3245" y="-34" type="curve" smooth="yes"/>
      <point x="3569" y="-34"/>
      <point x="3735" y="133.657"/>
      <point x="3735" y="472" type="curve" smooth="yes"/>
      <point x="3735" y="666" type="line" smooth="yes"/>
      <point x="3735" y="859.963"/>
      <point x="3692" y="1037.76"/>
      <point x="3601" y="1160" type="curve"/>
      <point x="3267" y="1160" type="line"/>
      <point x="3350" y="1025.62"/>
      <point x="3395" y="858.909"/>
      <point x="3395" y="673" type="curve" smooth="yes"/>
      <point x="3395" y="474" type="line" smooth="yes"/>
      <point x="3395" y="330.569"/>
      <point x="3347" y="265"/>
      <point x="3245" y="265" type="curve" smooth="yes"/>
      <point x="3151" y="265"/>
      <point x="3106" y="318.566"/>
      <point x="3106" y="436" type="curve" smooth="yes"/>
      <point x="3106" y="550.369"/>
      <point x="3115" y="634.692"/>
      <point x="3115" y="751" type="curve" smooth="yes"/>
      <point x="3115" y="1053.33"/>
      <point x="2956" y="1205"/>
      <point x="2639" y="1205" type="curve" smooth="yes"/>
      <point x="2322" y="1205"/>
      <point x="2163" y="1053.33"/>
      <point x="2163" y="751" type="curve" smooth="yes"/>
      <point x="2163" y="634.67"/>
      <point x="2172" y="549.361"/>
      <point x="2172" y="434" type="curve" smooth="yes"/>
      <point x="2172" y="318.585"/>
      <point x="2129" y="265"/>
      <point x="2038" y="265" type="curve" smooth="yes"/>
      <point x="1947" y="265"/>
      <point x="1904" y="318.585"/>
      <point x="1904" y="434" type="curve" smooth="yes"/>
      <point x="1904" y="548.38"/>
      <point x="1913" y="633.681"/>
      <point x="1913" y="750" type="curve" smooth="yes"/>
      <point x="1913" y="1053.33"/>
      <point x="1754" y="1205"/>
    </contour>
  </outline>
</glyph>
<glyph name="vowelRuu.mlm" format="2">
  <advance width="1773"/>
  <unicode hex="0D60"/>
  <outline>
    <contour>
      <point x="1009" y="-330" type="line" smooth="yes"/>
      <point x="1385.57" y="-330"/>
      <point x="1582" y="-213.19"/>
      <point x="1582" y="14" type="curve" smooth="yes"/>
      <point x="1582" y="148.194"/>
      <point x="1513.78" y="236.258"/>
      <point x="1370" y="274" type="curve"/>
      <point x="1370" y="304" type="line"/>
      <point x="1039" y="423" type="line"/>
      <point x="734" y="423" type="line"/>
      <point x="403" y="304" type="line"/>
      <point x="403" y="274" type="line"/>
      <point x="260.234" y="236.258"/>
      <point x="192" y="148.194"/>
      <point x="192" y="14" type="curve" smooth="yes"/>
      <point x="192" y="-213.19"/>
      <point x="388.434" y="-330"/>
      <point x="764" y="-330" type="curve" smooth="yes"/>
    </contour>
    <contour>
      <point x="1000" y="200" type="line" smooth="yes"/>
      <point x="1199.09" y="200"/>
      <point x="1292" y="152.368"/>
      <point x="1292" y="47" type="curve" smooth="yes"/>
      <point x="1292" y="-58.0654"/>
      <point x="1199.09" y="-107"/>
      <point x="1000" y="-107" type="curve" smooth="yes"/>
      <point x="773" y="-107" type="line" smooth="yes"/>
      <point x="574.975" y="-107"/>
      <point x="482" y="-58.0654"/>
      <point x="482" y="47" type="curve" smooth="yes"/>
      <point x="482" y="152.368"/>
      <point x="574.975" y="200"/>
      <point x="773" y="200" type="curve" smooth="yes"/>
    </contour>
    <contour>
      <point x="737" y="161" type="curve" smooth="yes"/>
      <point x="617" y="161"/>
      <point x="550" y="100"/>
      <point x="550" y="-9" type="curve" smooth="yes"/>
      <point x="550" y="-29" type="line"/>
      <point x="724" y="-45" type="line"/>
      <point x="724" y="-23" type="line" smooth="yes"/>
      <point x="724" y="8.36364"/>
      <point x="736.282" y="23"/>
      <point x="764" y="23" type="curve" smooth="yes"/>
      <point x="790.325" y="23"/>
      <point x="803" y="9"/>
      <point x="803" y="-21" type="curve" smooth="yes"/>
      <point x="803" y="-40" type="line"/>
      <point x="970" y="-40" type="line"/>
      <point x="970" y="-20" type="line" smooth="yes"/>
      <point x="970" y="9"/>
      <point x="982.675" y="23"/>
      <point x="1009" y="23" type="curve" smooth="yes"/>
      <point x="1036.7" y="23"/>
      <point x="1050" y="8.36364"/>
      <point x="1050" y="-23" type="curve" smooth="yes"/>
      <point x="1050" y="-45" type="line"/>
      <point x="1224" y="-29" type="line"/>
      <point x="1224" y="-9" type="line" smooth="yes"/>
      <point x="1224" y="100"/>
      <point x="1158" y="161"/>
      <point x="1038" y="161" type="curve" smooth="yes"/>
      <point x="950" y="161"/>
      <point x="901" y="126"/>
      <point x="890" y="71" type="curve"/>
      <point x="885" y="71" type="line"/>
      <point x="874" y="126"/>
      <point x="825" y="161"/>
    </contour>
    <contour>
      <point x="1412" y="690" type="line" smooth="yes"/>
      <point x="1412" y="514.316"/>
      <point x="1269" y="423"/>
      <point x="966" y="423" type="curve"/>
      <point x="1268" y="238" type="line"/>
      <point x="1304" y="251"/>
      <point x="1334.14" y="276.188"/>
      <point x="1370" y="283" type="curve" smooth="yes"/>
      <point x="1572.95" y="321.561"/>
      <point x="1712" y="474.972"/>
      <point x="1712" y="728" type="curve" smooth="yes"/>
      <point x="1712" y="797" type="line" smooth="yes"/>
      <point x="1712" y="1057.31"/>
      <point x="1582.92" y="1204"/>
      <point x="1308" y="1204" type="curve" smooth="yes"/>
      <point x="1049.96" y="1204"/>
      <point x="925" y="1079.48"/>
      <point x="925" y="850" type="curve" smooth="yes"/>
      <point x="925" y="835" type="line" smooth="yes"/>
      <point x="925" y="643.303"/>
      <point x="1015.44" y="540"/>
      <point x="1188" y="540" type="curve" smooth="yes"/>
      <point x="1312.27" y="540"/>
      <point x="1387.79" y="605.751"/>
      <point x="1405" y="715" type="curve"/>
      <point x="1401" y="810" type="line"/>
      <point x="1382.97" y="777.784"/>
      <point x="1352.6" y="757"/>
      <point x="1308" y="757" type="curve" smooth="yes"/>
      <point x="1254.75" y="757"/>
      <point x="1226" y="788.974"/>
      <point x="1226" y="843" type="curve" smooth="yes"/>
      <point x="1226" y="848" type="line" smooth="yes"/>
      <point x="1226" y="913.782"/>
      <point x="1256.43" y="945"/>
      <point x="1311" y="945" type="curve" smooth="yes"/>
      <point x="1370.3" y="945"/>
      <point x="1399" y="907.355"/>
      <point x="1399" y="839" type="curve" smooth="yes"/>
      <point x="1399" y="776" type="line"/>
      <point x="1393" y="700" type="line"/>
      <point x="1412" y="700" type="line"/>
    </contour>
    <contour>
      <point x="808" y="423" type="line"/>
      <point x="505" y="423"/>
      <point x="361" y="514.316"/>
      <point x="361" y="690" type="curve" smooth="yes"/>
      <point x="361" y="700" type="line"/>
      <point x="380" y="700" type="line"/>
      <point x="375" y="776" type="line"/>
      <point x="375" y="839" type="line" smooth="yes"/>
      <point x="375" y="907.355"/>
      <point x="403.696" y="945"/>
      <point x="463" y="945" type="curve" smooth="yes"/>
      <point x="518.65" y="945"/>
      <point x="547" y="913.782"/>
      <point x="547" y="848" type="curve" smooth="yes"/>
      <point x="547" y="843" type="line" smooth="yes"/>
      <point x="547" y="788.974"/>
      <point x="519.312" y="757"/>
      <point x="465" y="757" type="curve" smooth="yes"/>
      <point x="420.398" y="757"/>
      <point x="390.031" y="777.784"/>
      <point x="372" y="810" type="curve"/>
      <point x="369" y="715" type="line"/>
      <point x="386.204" y="605.751"/>
      <point x="461.708" y="540"/>
      <point x="585" y="540" type="curve" smooth="yes"/>
      <point x="757.561" y="540"/>
      <point x="848" y="643.303"/>
      <point x="848" y="835" type="curve" smooth="yes"/>
      <point x="848" y="850" type="line" smooth="yes"/>
      <point x="848" y="1079.48"/>
      <point x="723.042" y="1204"/>
      <point x="465" y="1204" type="curve" smooth="yes"/>
      <point x="191.078" y="1204"/>
      <point x="62" y="1057.31"/>
      <point x="62" y="797" type="curve" smooth="yes"/>
      <point x="62" y="728" type="line" smooth="yes"/>
      <point x="62" y="474.972"/>
      <point x="200.048" y="321.567"/>
      <point x="403" y="283" type="curve" smooth="yes"/>
      <point x="439.824" y="276.002"/>
      <point x="471" y="251"/>
      <point x="506" y="238" type="curve"/>
    </contour>
  </outline>
</glyph>
<glyph name="uni0D62" format="2">
  <unicode hex="0D62"/>
  <outline>
    <contour>
      <point x="-967.158" y="-528" type="line"/>
      <point x="-731.158" y="-528" type="line"/>
      <point x="-731.158" y="-223" type="line"/>
      <point x="-967.158" y="-239" type="line"/>
    </contour>
    <contour>
      <point x="-1225.16" y="126" type="curve" smooth="yes"/>
      <point x="-1532.16" y="126"/>
      <point x="-1691.16" y="-2.01871"/>
      <point x="-1691.16" y="-251" type="curve" smooth="yes"/>
      <point x="-1691.16" y="-276" type="line" smooth="yes"/>
      <point x="-1691.16" y="-461.617"/>
      <point x="-1586.16" y="-550"/>
      <point x="-1378.16" y="-550" type="curve" smooth="yes"/>
      <point x="-1178.16" y="-550"/>
      <point x="-1072.16" y="-475"/>
      <point x="-1072.16" y="-325" type="curve" smooth="yes"/>
      <point x="-1072.16" y="-307" type="line" smooth="yes"/>
      <point x="-1072.16" y="-178"/>
      <point x="-1148.16" y="-108"/>
      <point x="-1278.16" y="-108" type="curve" smooth="yes"/>
      <point x="-1379.16" y="-108"/>
      <point x="-1445.16" y="-154"/>
      <point x="-1465.16" y="-242" type="curve"/>
      <point x="-1463.16" y="-306" type="line"/>
      <point x="-1446.16" y="-284"/>
      <point x="-1416.16" y="-270"/>
      <point x="-1377.16" y="-270" type="curve" smooth="yes"/>
      <point x="-1328.16" y="-270"/>
      <point x="-1304.16" y="-288"/>
      <point x="-1304.16" y="-325" type="curve" smooth="yes"/>
      <point x="-1304.16" y="-331" type="line" smooth="yes"/>
      <point x="-1304.16" y="-368"/>
      <point x="-1332.16" y="-386"/>
      <point x="-1379.16" y="-386" type="curve" smooth="yes"/>
      <point x="-1431.16" y="-386"/>
      <point x="-1458.16" y="-363"/>
      <point x="-1458.16" y="-319" type="curve" smooth="yes"/>
      <point x="-1458.16" y="-267" type="line"/>
      <point x="-1454.16" y="-228" type="line"/>
      <point x="-1467.16" y="-228" type="line"/>
      <point x="-1467" y="-111.725"/>
      <point x="-1376.8" y="-48"/>
      <point x="-1218.16" y="-48" type="curve" smooth="yes"/>
      <point x="-1049.16" y="-48"/>
      <point x="-967.158" y="-111"/>
      <point x="-967.158" y="-233" type="curve" smooth="yes"/>
      <point x="-967.158" y="-279" type="line"/>
      <point x="-829.158" y="-224" type="line"/>
      <point x="-852.362" y="-37.6244" type="line"/>
      <point x="-896.173" y="77.4472"/>
      <point x="-1029.74" y="126"/>
    </contour>
    <contour>
      <point x="-472.914" y="126" type="curve" smooth="yes"/>
      <point x="-668.33" y="126"/>
      <point x="-801.899" y="77.4472"/>
      <point x="-845.71" y="-37.6244" type="curve"/>
      <point x="-906.287" y="-38.8805" type="line"/>
      <point x="-868.914" y="-224" type="line"/>
      <point x="-730.914" y="-279" type="line"/>
      <point x="-730.914" y="-233" type="line" smooth="yes"/>
      <point x="-730.914" y="-111"/>
      <point x="-648.914" y="-48"/>
      <point x="-479.914" y="-48" type="curve" smooth="yes"/>
      <point x="-322.914" y="-48"/>
      <point x="-230.914" y="-113"/>
      <point x="-230.914" y="-228" type="curve"/>
      <point x="-243.914" y="-228" type="line"/>
      <point x="-239.914" y="-267" type="line"/>
      <point x="-239.914" y="-319" type="line" smooth="yes"/>
      <point x="-239.914" y="-363"/>
      <point x="-266.914" y="-386"/>
      <point x="-318.914" y="-386" type="curve" smooth="yes"/>
      <point x="-365.914" y="-386"/>
      <point x="-393.914" y="-368"/>
      <point x="-393.914" y="-331" type="curve" smooth="yes"/>
      <point x="-393.914" y="-325" type="line" smooth="yes"/>
      <point x="-393.914" y="-288"/>
      <point x="-369.914" y="-270"/>
      <point x="-320.914" y="-270" type="curve" smooth="yes"/>
      <point x="-281.914" y="-270"/>
      <point x="-251.914" y="-284"/>
      <point x="-234.914" y="-306" type="curve"/>
      <point x="-232.914" y="-242" type="line"/>
      <point x="-252.914" y="-154"/>
      <point x="-318.914" y="-108"/>
      <point x="-419.914" y="-108" type="curve" smooth="yes"/>
      <point x="-549.914" y="-108"/>
      <point x="-625.914" y="-178"/>
      <point x="-625.914" y="-307" type="curve" smooth="yes"/>
      <point x="-625.914" y="-325" type="line" smooth="yes"/>
      <point x="-625.914" y="-475"/>
      <point x="-519.914" y="-550"/>
      <point x="-319.914" y="-550" type="curve" smooth="yes"/>
      <point x="-111.914" y="-550"/>
      <point x="-6.91403" y="-461.617"/>
      <point x="-6.91403" y="-276" type="curve" smooth="yes"/>
      <point x="-6.91403" y="-251" type="line" smooth="yes"/>
      <point x="-6.91403" y="-2.01871"/>
      <point x="-165.914" y="126"/>
    </contour>
  </outline>
</glyph>
<glyph name="zero.mlm" format="2">
  <advance width="1174"/>
  <unicode hex="0D66"/>
  <outline>
    <contour>
      <point x="587" y="306" type="curve" smooth="yes"/>
      <point x="467" y="306"/>
      <point x="408" y="376.651"/>
      <point x="408" y="520" type="curve" smooth="yes"/>
      <point x="408" y="649" type="line" smooth="yes"/>
      <point x="408" y="794.397"/>
      <point x="467" y="863"/>
      <point x="587" y="863" type="curve" smooth="yes"/>
      <point x="708" y="863"/>
      <point x="766" y="794.397"/>
      <point x="766" y="649" type="curve" smooth="yes"/>
      <point x="766" y="520" type="line" smooth="yes"/>
      <point x="766" y="376.651"/>
      <point x="708" y="306"/>
    </contour>
    <contour>
      <point x="587" y="7" type="curve" smooth="yes"/>
      <point x="930" y="7"/>
      <point x="1107" y="183.719"/>
      <point x="1107" y="521" type="curve" smooth="yes"/>
      <point x="1107" y="646" type="line" smooth="yes"/>
      <point x="1107" y="987.307"/>
      <point x="930" y="1162"/>
      <point x="587" y="1162" type="curve" smooth="yes"/>
      <point x="244" y="1162"/>
      <point x="67" y="987.307"/>
      <point x="67" y="646" type="curve" smooth="yes"/>
      <point x="67" y="521" type="line" smooth="yes"/>
      <point x="67" y="183.719"/>
      <point x="244" y="7"/>
    </contour>
  </outline>
</glyph>
<glyph name="one.mlm" format="2">
  <advance width="1567"/>
  <unicode hex="0D67"/>
  <outline>
    <contour>
      <point x="684" y="264" type="line"/>
      <point x="578" y="0" type="line"/>
      <point x="1473" y="0" type="line"/>
      <point x="1473" y="728" type="line" smooth="yes"/>
      <point x="1473" y="1046"/>
      <point x="1310" y="1207"/>
      <point x="985" y="1207" type="curve" smooth="yes"/>
      <point x="660" y="1207"/>
      <point x="493" y="1044"/>
      <point x="493" y="727" type="curve" smooth="yes"/>
      <point x="493" y="0" type="line"/>
      <point x="831" y="0" type="line"/>
      <point x="831" y="730" type="line" smooth="yes"/>
      <point x="831" y="849"/>
      <point x="881" y="908"/>
      <point x="984" y="908" type="curve" smooth="yes"/>
      <point x="1087" y="908"/>
      <point x="1135" y="849"/>
      <point x="1135" y="730" type="curve" smooth="yes"/>
      <point x="1135" y="264" type="line"/>
    </contour>
    <contour>
      <point x="615" y="263" type="line"/>
      <point x="343" y="263" type="line" smooth="yes"/>
      <point x="94" y="263"/>
      <point x="-30" y="154.661"/>
      <point x="-30" y="-57" type="curve" smooth="yes"/>
      <point x="-30" y="-263.044"/>
      <point x="94" y="-373"/>
      <point x="343" y="-373" type="curve" smooth="yes"/>
      <point x="639" y="-373" type="line"/>
      <point x="678" y="-121" type="line"/>
      <point x="375" y="-121" type="line" smooth="yes"/>
      <point x="324" y="-121"/>
      <point x="298" y="-101.356"/>
      <point x="298" y="-60" type="curve" smooth="yes"/>
      <point x="298" y="-17.5862"/>
      <point x="324" y="0"/>
      <point x="375" y="0" type="curve" smooth="yes"/>
      <point x="654" y="0" type="line"/>
    </contour>
  </outline>
</glyph>
<glyph name="three.mlm" format="2">
  <advance width="2142"/>
  <unicode hex="0D69"/>
  <outline>
    <contour>
      <point x="751" y="633" type="line"/>
      <point x="751" y="4" type="line"/>
      <point x="1089" y="4" type="line"/>
      <point x="1089" y="633" type="line"/>
    </contour>
    <contour>
      <point x="79" y="668" type="curve" smooth="yes"/>
      <point x="79" y="481" type="line" smooth="yes"/>
      <point x="79" y="293.046"/>
      <point x="115" y="114.187"/>
      <point x="188" y="0" type="curve"/>
      <point x="530" y="0" type="line"/>
      <point x="459" y="132.385"/>
      <point x="419" y="296.097"/>
      <point x="419" y="478" type="curve" smooth="yes"/>
      <point x="419" y="669" type="line" smooth="yes"/>
      <point x="419" y="825.415"/>
      <point x="474" y="898"/>
      <point x="591" y="898" type="curve" smooth="yes"/>
      <point x="701" y="898"/>
      <point x="751" y="834"/>
      <point x="751" y="703" type="curve" smooth="yes"/>
      <point x="751" y="525" type="line"/>
      <point x="924" y="525" type="line"/>
      <point x="916" y="916" type="line"/>
      <point x="889" y="1092"/>
      <point x="775" y="1204"/>
      <point x="541" y="1204" type="curve" smooth="yes"/>
      <point x="233" y="1204"/>
      <point x="79" y="1026.34"/>
    </contour>
    <contour>
      <point x="1761" y="688" type="line" smooth="yes"/>
      <point x="1761" y="1034.36"/>
      <point x="1609" y="1204"/>
      <point x="1299" y="1204" type="curve" smooth="yes"/>
      <point x="1067" y="1204"/>
      <point x="950" y="1092"/>
      <point x="924" y="916" type="curve"/>
      <point x="835" y="916" type="line"/>
      <point x="828" y="546" type="line"/>
      <point x="1089" y="525" type="line"/>
      <point x="1089" y="702" type="line" smooth="yes"/>
      <point x="1089" y="834"/>
      <point x="1139" y="898"/>
      <point x="1248" y="898" type="curve" smooth="yes"/>
      <point x="1367" y="898"/>
      <point x="1421" y="825.415"/>
      <point x="1421" y="669" type="curve" smooth="yes"/>
      <point x="1421" y="478" type="line" smooth="yes"/>
      <point x="1421" y="303.107"/>
      <point x="1386" y="145.4"/>
      <point x="1318" y="16" type="curve"/>
      <point x="1318" y="0" type="line"/>
      <point x="1576" y="0" type="line"/>
      <point x="1695" y="119.194"/>
      <point x="1761" y="303.036"/>
      <point x="1761" y="499" type="curve" smooth="yes"/>
    </contour>
    <contour>
      <point x="1618" y="264" type="line"/>
      <point x="1324" y="0" type="line"/>
      <point x="2081" y="0" type="line"/>
      <point x="2120" y="264" type="line"/>
    </contour>
  </outline>
</glyph>
<glyph name="five.mlm" format="2">
  <advance width="2265"/>
  <unicode hex="0D6B"/>
  <outline>
    <contour>
      <point x="1854" y="579" type="curve" smooth="yes"/>
      <point x="1854" y="494" type="line" smooth="yes"/>
      <point x="1854" y="312.16"/>
      <point x="1830" y="150.524"/>
      <point x="1784" y="0" type="curve"/>
      <point x="2117" y="0" type="line"/>
      <point x="2164" y="121.22"/>
      <point x="2188" y="307.089"/>
      <point x="2188" y="497" type="curve" smooth="yes"/>
      <point x="2188" y="579" type="line" smooth="yes"/>
      <point x="2188" y="1194.24"/>
      <point x="1840" y="1527"/>
      <point x="1139" y="1527" type="curve" smooth="yes"/>
      <point x="432" y="1527"/>
      <point x="76" y="1185.24"/>
      <point x="76" y="556" type="curve" smooth="yes"/>
      <point x="76" y="424" type="line" smooth="yes"/>
      <point x="76" y="-130.292"/>
      <point x="366" y="-418"/>
      <point x="940" y="-418" type="curve" smooth="yes"/>
      <point x="1412" y="-418"/>
      <point x="1671" y="-237.422"/>
      <point x="1671" y="90" type="curve" smooth="yes"/>
      <point x="1671" y="107" type="line" smooth="yes"/>
      <point x="1671" y="290.26"/>
      <point x="1581" y="397.245"/>
      <point x="1389" y="423" type="curve"/>
      <point x="1389" y="430" type="line"/>
      <point x="1566" y="452"/>
      <point x="1647" y="544"/>
      <point x="1647" y="698" type="curve" smooth="yes"/>
      <point x="1647" y="704" type="line" smooth="yes"/>
      <point x="1647" y="963"/>
      <point x="1480" y="1099"/>
      <point x="1143" y="1099" type="curve" smooth="yes"/>
      <point x="777" y="1099"/>
      <point x="597" y="921.327"/>
      <point x="597" y="568" type="curve" smooth="yes"/>
      <point x="597" y="450" type="line" smooth="yes"/>
      <point x="597" y="291.099"/>
      <point x="619" y="139.283"/>
      <point x="661" y="32" type="curve"/>
      <point x="991" y="32" type="line"/>
      <point x="953" y="154.468"/>
      <point x="933" y="292.119"/>
      <point x="933" y="449" type="curve" smooth="yes"/>
      <point x="933" y="571" type="line" smooth="yes"/>
      <point x="933" y="737.382"/>
      <point x="998" y="817"/>
      <point x="1149" y="817" type="curve" smooth="yes"/>
      <point x="1262" y="817"/>
      <point x="1309" y="773"/>
      <point x="1309" y="681" type="curve" smooth="yes"/>
      <point x="1309" y="670" type="line" smooth="yes"/>
      <point x="1309" y="605"/>
      <point x="1272" y="570"/>
      <point x="1182" y="565" type="curve" smooth="yes"/>
      <point x="1073" y="559" type="line"/>
      <point x="1073" y="289" type="line"/>
      <point x="1184" y="283" type="line" smooth="yes"/>
      <point x="1289.01" y="277.324"/>
      <point x="1333" y="224.084"/>
      <point x="1333" y="120" type="curve" smooth="yes"/>
      <point x="1333" y="106" type="line" smooth="yes"/>
      <point x="1333" y="-51.4803"/>
      <point x="1207" y="-144"/>
      <point x="939" y="-144" type="curve" smooth="yes"/>
      <point x="579" y="-144"/>
      <point x="411" y="45.6637"/>
      <point x="411" y="426" type="curve" smooth="yes"/>
      <point x="411" y="559" type="line" smooth="yes"/>
      <point x="411" y="1013.27"/>
      <point x="647" y="1254"/>
      <point x="1139" y="1254" type="curve" smooth="yes"/>
      <point x="1631" y="1254"/>
      <point x="1854" y="1018.25"/>
    </contour>
  </outline>
</glyph>
<glyph name="six.mlm" format="2">
  <advance width="2492"/>
  <unicode hex="0D6C"/>
  <outline>
    <contour>
      <point x="1892" y="898" type="curve" smooth="yes"/>
      <point x="2013" y="898"/>
      <point x="2073" y="812.385"/>
      <point x="2073" y="633" type="curve" smooth="yes"/>
      <point x="2073" y="348" type="line" smooth="yes"/>
      <point x="2073" y="20.639"/>
      <point x="1929" y="-139"/>
      <point x="1624" y="-139" type="curve" smooth="yes"/>
      <point x="1515" y="-139"/>
      <point x="1421" y="-127"/>
      <point x="1348" y="-109" type="curve"/>
      <point x="1412" y="-372" type="line"/>
      <point x="1498" y="-397"/>
      <point x="1591" y="-405"/>
      <point x="1684" y="-405" type="curve" smooth="yes"/>
      <point x="2171" y="-405"/>
      <point x="2413" y="-141.256"/>
      <point x="2413" y="351" type="curve" smooth="yes"/>
      <point x="2413" y="632" type="line" smooth="yes"/>
      <point x="2413" y="1014.34"/>
      <point x="2258" y="1204"/>
      <point x="1943" y="1204" type="curve" smooth="yes"/>
      <point x="1712" y="1204"/>
      <point x="1598" y="1094"/>
      <point x="1570" y="924" type="curve"/>
      <point x="1540" y="924" type="line"/>
      <point x="1554" y="519" type="line"/>
      <point x="1735" y="525" type="line"/>
      <point x="1735" y="702" type="line" smooth="yes"/>
      <point x="1735" y="835"/>
      <point x="1784" y="898"/>
    </contour>
    <contour>
      <point x="79" y="668" type="curve" smooth="yes"/>
      <point x="79" y="481" type="line" smooth="yes"/>
      <point x="79" y="293.046"/>
      <point x="115" y="114.187"/>
      <point x="188" y="0" type="curve"/>
      <point x="530" y="0" type="line"/>
      <point x="459" y="132.385"/>
      <point x="419" y="296.097"/>
      <point x="419" y="478" type="curve" smooth="yes"/>
      <point x="419" y="669" type="line" smooth="yes"/>
      <point x="419" y="825.415"/>
      <point x="474" y="898"/>
      <point x="589" y="898" type="curve" smooth="yes"/>
      <point x="698" y="898"/>
      <point x="747" y="835"/>
      <point x="747" y="702" type="curve" smooth="yes"/>
      <point x="747" y="525" type="line"/>
      <point x="912" y="519" type="line"/>
      <point x="912" y="924" type="line"/>
      <point x="884" y="1094"/>
      <point x="772" y="1204"/>
      <point x="540" y="1204" type="curve" smooth="yes"/>
      <point x="234" y="1204"/>
      <point x="79" y="1026.34"/>
    </contour>
    <contour>
      <point x="747" y="632" type="line"/>
      <point x="747" y="4" type="line"/>
      <point x="1085" y="4" type="line"/>
      <point x="1085" y="632" type="line"/>
    </contour>
    <contour>
      <point x="1241" y="898" type="curve" smooth="yes"/>
      <point x="1349" y="898"/>
      <point x="1397" y="835"/>
      <point x="1397" y="704" type="curve" smooth="yes"/>
      <point x="1397" y="529" type="line"/>
      <point x="1583" y="529" type="line"/>
      <point x="1562" y="924" type="line"/>
      <point x="1543" y="1095"/>
      <point x="1434" y="1204"/>
      <point x="1241" y="1204" type="curve" smooth="yes"/>
      <point x="1048" y="1204"/>
      <point x="940" y="1095"/>
      <point x="920" y="924" type="curve"/>
      <point x="863" y="924" type="line"/>
      <point x="888" y="529" type="line"/>
      <point x="1085" y="529" type="line"/>
      <point x="1085" y="704" type="line" smooth="yes"/>
      <point x="1085" y="835"/>
      <point x="1134" y="898"/>
    </contour>
    <contour>
      <point x="1397" y="643" type="line"/>
      <point x="1397" y="4" type="line"/>
      <point x="1735" y="4" type="line"/>
      <point x="1735" y="643" type="line"/>
    </contour>
  </outline>
</glyph>
<glyph name="eight.mlm" format="2">
  <advance width="1837"/>
  <unicode hex="0D6E"/>
  <outline>
    <contour>
      <point x="1690" y="263" type="line"/>
      <point x="1050" y="263" type="line"/>
      <point x="738" y="0" type="line"/>
      <point x="1690" y="0" type="line"/>
    </contour>
    <contour>
      <point x="1396" y="180" type="line"/>
      <point x="1401" y="70" type="line"/>
      <point x="1401" y="-122"/>
      <point x="1289" y="-193"/>
      <point x="1043" y="-193" type="curve" smooth="yes"/>
      <point x="927" y="-193"/>
      <point x="828" y="-181"/>
      <point x="751" y="-163" type="curve"/>
      <point x="814" y="-426" type="line"/>
      <point x="902" y="-451"/>
      <point x="1001" y="-458"/>
      <point x="1096" y="-458" type="curve" smooth="yes"/>
      <point x="1524" y="-458"/>
      <point x="1734" y="-294"/>
      <point x="1734" y="68" type="curve" smooth="yes"/>
      <point x="1734" y="1163" type="line"/>
      <point x="1396" y="1163" type="line"/>
    </contour>
    <contour>
      <point x="628" y="909" type="curve" smooth="yes"/>
      <point x="768" y="909"/>
      <point x="835" y="822.359"/>
      <point x="835" y="645" type="curve" smooth="yes"/>
      <point x="835" y="454" type="line" smooth="yes"/>
      <point x="835" y="288.106"/>
      <point x="798" y="138.397"/>
      <point x="735" y="16" type="curve"/>
      <point x="735" y="0" type="line"/>
      <point x="1011" y="0" type="line"/>
      <point x="1122" y="113.191"/>
      <point x="1175" y="289.043"/>
      <point x="1175" y="475" type="curve" smooth="yes"/>
      <point x="1175" y="664" type="line" smooth="yes"/>
      <point x="1175" y="1020.27"/>
      <point x="990" y="1208"/>
      <point x="628" y="1208" type="curve" smooth="yes"/>
      <point x="266" y="1208"/>
      <point x="79" y="1019.32"/>
      <point x="79" y="648" type="curve" smooth="yes"/>
      <point x="79" y="460" type="line" smooth="yes"/>
      <point x="79" y="280.044"/>
      <point x="112" y="109.187"/>
      <point x="178" y="0" type="curve"/>
      <point x="520" y="0" type="line"/>
      <point x="458" y="125.381"/>
      <point x="419" y="281.096"/>
      <point x="419" y="454" type="curve" smooth="yes"/>
      <point x="419" y="645" type="line" smooth="yes"/>
      <point x="419" y="822.359"/>
      <point x="489" y="909"/>
    </contour>
  </outline>
</glyph>
<glyph name="onethousand.mlm" format="2">
  <advance width="2954"/>
  <unicode hex="0D72"/>
  <outline>
    <component base="date.mlm"/>
    <contour>
      <point x="2451" y="738" type="line"/>
      <point x="2451" y="844" type="line" smooth="yes"/>
      <point x="2451" y="908"/>
      <point x="2478" y="934"/>
      <point x="2532" y="934" type="curve" smooth="yes"/>
      <point x="2584" y="934"/>
      <point x="2609" y="907"/>
      <point x="2609" y="849" type="curve" smooth="yes"/>
      <point x="2609" y="839" type="line" smooth="yes"/>
      <point x="2609" y="780"/>
      <point x="2578" y="755"/>
      <point x="2521" y="755" type="curve" smooth="yes"/>
      <point x="1937" y="755" type="line"/>
      <point x="2034" y="502" type="line"/>
      <point x="2549" y="502" type="line" smooth="yes"/>
      <point x="2800" y="502"/>
      <point x="2927" y="612"/>
      <point x="2927" y="831" type="curve" smooth="yes"/>
      <point x="2927" y="844" type="line" smooth="yes"/>
      <point x="2927" y="1077"/>
      <point x="2794" y="1199"/>
      <point x="2539" y="1199" type="curve" smooth="yes"/>
      <point x="2284" y="1199"/>
      <point x="2155" y="1079"/>
      <point x="2155" y="852" type="curve" smooth="yes"/>
      <point x="2155" y="733" type="line"/>
    </contour>
  </outline>
</glyph>
<glyph name="onequarter.mlm" format="2">
  <advance width="1263"/>
  <unicode hex="0D73"/>
  <outline>
    <contour>
      <point x="397" y="445" type="line"/>
      <point x="416.813" y="480"/>
      <point x="453.467" y="502"/>
      <point x="503" y="502" type="curve" smooth="yes"/>
      <point x="562.326" y="502"/>
      <point x="591" y="467.313"/>
      <point x="591" y="401" type="curve" smooth="yes"/>
      <point x="591" y="345" type="line" smooth="yes"/>
      <point x="591" y="270.648"/>
      <point x="559.344" y="235"/>
      <point x="499" y="235" type="curve" smooth="yes"/>
      <point x="432.67" y="235"/>
      <point x="400" y="272.532"/>
      <point x="400" y="376" type="curve" smooth="yes"/>
      <point x="400" y="468" type="line"/>
      <point x="405" y="557" type="line"/>
      <point x="386" y="557" type="line"/>
      <point x="386" y="557" type="line"/>
      <point x="386" y="780.375"/>
      <point x="517" y="882"/>
      <point x="771" y="882" type="curve" smooth="yes"/>
      <point x="1231" y="882" type="line"/>
      <point x="1192" y="1148" type="line"/>
      <point x="755" y="1148" type="line" smooth="yes"/>
      <point x="301" y="1148"/>
      <point x="72" y="933.792"/>
      <point x="72" y="531" type="curve" smooth="yes"/>
      <point x="72" y="406" type="line" smooth="yes"/>
      <point x="72" y="116.682"/>
      <point x="218" y="-33"/>
      <point x="500" y="-33" type="curve" smooth="yes"/>
      <point x="775" y="-33"/>
      <point x="915" y="97.0238"/>
      <point x="915" y="348" type="curve" smooth="yes"/>
      <point x="915" y="423" type="line" smooth="yes"/>
      <point x="915" y="660.53"/>
      <point x="823" y="770"/>
      <point x="655" y="770" type="curve" smooth="yes"/>
      <point x="503" y="770"/>
      <point x="418" y="692"/>
      <point x="393" y="538" type="curve"/>
    </contour>
  </outline>
</glyph>
<glyph name="threesixteenths.mlm" format="2">
  <advance width="4200"/>
  <unicode hex="0D78"/>
  <outline>
    <contour>
      <point x="358" y="495" type="line"/>
      <point x="696" y="501" type="line"/>
      <point x="696" y="1160" type="line"/>
      <point x="358" y="1160" type="line"/>
    </contour>
    <contour>
      <point x="224" y="-33" type="curve" smooth="yes"/>
      <point x="410" y="-33"/>
      <point x="505" y="78"/>
      <point x="523" y="246" type="curve"/>
      <point x="612" y="246" type="line"/>
      <point x="619" y="614" type="line"/>
      <point x="358" y="634" type="line"/>
      <point x="358" y="455" type="line" smooth="yes"/>
      <point x="358" y="324"/>
      <point x="303" y="261"/>
      <point x="185" y="261" type="curve" smooth="yes"/>
      <point x="112" y="261"/>
      <point x="55" y="271"/>
      <point x="10" y="284" type="curve"/>
      <point x="74" y="-9" type="line"/>
      <point x="116" y="-24"/>
      <point x="170" y="-33"/>
    </contour>
    <contour>
      <point x="2590" y="1204" type="curve" smooth="yes"/>
      <point x="2306" y="1204"/>
      <point x="2164" y="1053.36"/>
      <point x="2164" y="746" type="curve" smooth="yes"/>
      <point x="2164" y="631.665"/>
      <point x="2172" y="547.366"/>
      <point x="2172" y="434" type="curve" smooth="yes"/>
      <point x="2172" y="318.585"/>
      <point x="2129.32" y="265"/>
      <point x="2039" y="265" type="curve" smooth="yes"/>
      <point x="1948.67" y="265"/>
      <point x="1905" y="318.585"/>
      <point x="1905" y="434" type="curve" smooth="yes"/>
      <point x="1905" y="548.38"/>
      <point x="1914" y="633.681"/>
      <point x="1914" y="750" type="curve" smooth="yes"/>
      <point x="1914" y="1053.33"/>
      <point x="1754" y="1205"/>
      <point x="1436" y="1205" type="curve" smooth="yes"/>
      <point x="1118" y="1205"/>
      <point x="960" y="1053.33"/>
      <point x="960" y="750" type="curve" smooth="yes"/>
      <point x="960" y="633.681"/>
      <point x="969" y="548.38"/>
      <point x="969" y="434" type="curve" smooth="yes"/>
      <point x="969" y="320.584"/>
      <point x="926.319" y="268"/>
      <point x="835" y="268" type="curve" smooth="yes"/>
      <point x="741" y="268"/>
      <point x="696" y="319"/>
      <point x="696" y="429" type="curve" smooth="yes"/>
      <point x="696" y="634" type="line"/>
      <point x="536" y="598" type="line"/>
      <point x="531" y="246" type="line"/>
      <point x="551" y="75"/>
      <point x="670" y="-33"/>
      <point x="890" y="-33" type="curve" smooth="yes"/>
      <point x="1171" y="-33"/>
      <point x="1307" y="116.655"/>
      <point x="1307" y="419" type="curve" smooth="yes"/>
      <point x="1307" y="534.338"/>
      <point x="1298" y="620.6"/>
      <point x="1298" y="734" type="curve" smooth="yes"/>
      <point x="1298" y="852.443"/>
      <point x="1342" y="906"/>
      <point x="1437" y="906" type="curve" smooth="yes"/>
      <point x="1533" y="906"/>
      <point x="1576" y="852.443"/>
      <point x="1576" y="734" type="curve" smooth="yes"/>
      <point x="1576" y="620.6"/>
      <point x="1567" y="534.338"/>
      <point x="1567" y="419" type="curve" smooth="yes"/>
      <point x="1567" y="117.674"/>
      <point x="1726" y="-34"/>
      <point x="2039" y="-34" type="curve" smooth="yes"/>
      <point x="2353" y="-34"/>
      <point x="2510" y="117.674"/>
      <point x="2510" y="419" type="curve" smooth="yes"/>
      <point x="2510" y="532.344"/>
      <point x="2501" y="617.594"/>
      <point x="2501" y="729" type="curve" smooth="yes"/>
      <point x="2501" y="845.445"/>
      <point x="2546" y="898"/>
      <point x="2643" y="898" type="curve" smooth="yes"/>
      <point x="2741" y="898"/>
      <point x="2786" y="844"/>
      <point x="2786" y="731" type="curve" smooth="yes"/>
      <point x="2786" y="525" type="line"/>
      <point x="2952" y="531" type="line"/>
      <point x="2954" y="951" type="line"/>
      <point x="2923" y="1113"/>
      <point x="2800" y="1204"/>
    </contour>
    <contour>
      <point x="3468" y="1204" type="curve" smooth="yes"/>
      <point x="3182" y="1204"/>
      <point x="3023" y="1108"/>
      <point x="2963" y="951" type="curve"/>
      <point x="2937" y="951" type="line"/>
      <point x="2786" y="591" type="line"/>
      <point x="2786" y="0" type="line"/>
      <point x="3107" y="0" type="line"/>
      <point x="3107" y="585" type="line" smooth="yes"/>
      <point x="3107" y="837.598"/>
      <point x="3203" y="936"/>
      <point x="3444" y="936" type="curve" smooth="yes"/>
      <point x="3665" y="936"/>
      <point x="3782" y="835.569"/>
      <point x="3782" y="585" type="curve" smooth="yes"/>
      <point x="3782" y="0" type="line"/>
      <point x="4106" y="0" type="line"/>
      <point x="4106" y="582" type="line" smooth="yes"/>
      <point x="4106" y="993.306"/>
      <point x="3891" y="1204"/>
    </contour>
    <contour>
      <point x="2951" y="247" type="line"/>
      <point x="2809" y="0" type="line"/>
      <point x="4065" y="0" type="line"/>
      <point x="3998" y="247" type="line"/>
    </contour>
    <contour>
      <point x="3631" y="616" type="line" smooth="yes"/>
      <point x="3631" y="817.067"/>
      <point x="3509.72" y="935"/>
      <point x="3288" y="935" type="curve" smooth="yes"/>
      <point x="3238.1" y="935"/>
      <point x="3178.24" y="926.231"/>
      <point x="3121" y="899" type="curve"/>
      <point x="3085" y="731" type="line"/>
      <point x="3119.44" y="755.444"/>
      <point x="3155.54" y="765"/>
      <point x="3191" y="765" type="curve" smooth="yes"/>
      <point x="3275.93" y="765"/>
      <point x="3305" y="700.174"/>
      <point x="3305" y="618" type="curve" smooth="yes"/>
      <point x="3305" y="603" type="line" smooth="yes"/>
      <point x="3305" y="467.622"/>
      <point x="3243.58" y="335.252"/>
      <point x="3161" y="245" type="curve"/>
      <point x="3439" y="198" type="line"/>
      <point x="3557.62" y="289.915"/>
      <point x="3631" y="434.352"/>
      <point x="3631" y="600" type="curve" smooth="yes"/>
    </contour>
  </outline>
</glyph>
<glyph name="chilluNn.mlm" format="2">
  <advance width="3149"/>
  <unicode hex="0D7A"/>
  <outline>
    <contour>
      <point x="1075" y="4" type="line"/>
      <point x="1412" y="4" type="line"/>
      <point x="1412" y="666" type="line"/>
      <point x="1075" y="595" type="line"/>
    </contour>
    <contour>
      <point x="721" y="1204" type="curve" smooth="yes"/>
      <point x="287" y="1204"/>
      <point x="72" y="976.516"/>
      <point x="72" y="551" type="curve" smooth="yes"/>
      <point x="72" y="413" type="line" smooth="yes"/>
      <point x="72" y="119.367"/>
      <point x="220" y="-33"/>
      <point x="505" y="-33" type="curve" smooth="yes"/>
      <point x="786" y="-33"/>
      <point x="929" y="99.7102"/>
      <point x="929" y="355" type="curve" smooth="yes"/>
      <point x="929" y="418" type="line" smooth="yes"/>
      <point x="929" y="662.893"/>
      <point x="833" y="776"/>
      <point x="660" y="776" type="curve" smooth="yes"/>
      <point x="505" y="776"/>
      <point x="419" y="696"/>
      <point x="393" y="538" type="curve"/>
      <point x="397" y="446" type="line"/>
      <point x="417.812" y="482"/>
      <point x="456.464" y="505"/>
      <point x="508" y="505" type="curve" smooth="yes"/>
      <point x="571.326" y="505"/>
      <point x="602" y="467.629"/>
      <point x="602" y="396" type="curve" smooth="yes"/>
      <point x="602" y="355" type="line" smooth="yes"/>
      <point x="602" y="276.31"/>
      <point x="568.343" y="238"/>
      <point x="504" y="238" type="curve" smooth="yes"/>
      <point x="434.667" y="238"/>
      <point x="400" y="278.083"/>
      <point x="400" y="386" type="curve" smooth="yes"/>
      <point x="400" y="468" type="line"/>
      <point x="405" y="557" type="line"/>
      <point x="386" y="557" type="line"/>
      <point x="386" y="559" type="line"/>
      <point x="386" y="804.771"/>
      <point x="507" y="922"/>
      <point x="739" y="922" type="curve" smooth="yes"/>
      <point x="963" y="922"/>
      <point x="1075" y="826"/>
      <point x="1075" y="632" type="curve" smooth="yes"/>
      <point x="1075" y="550" type="line"/>
      <point x="1237" y="550" type="line"/>
      <point x="1236" y="913" type="line"/>
      <point x="1192" y="1093"/>
      <point x="1030" y="1204"/>
    </contour>
    <contour>
      <point x="1724" y="643" type="line"/>
      <point x="1724" y="4" type="line"/>
      <point x="2061" y="4" type="line"/>
      <point x="2061" y="643" type="line"/>
    </contour>
    <contour>
      <point x="1891" y="914" type="line"/>
      <point x="1872" y="1097"/>
      <point x="1760" y="1204"/>
      <point x="1567" y="1204" type="curve" smooth="yes"/>
      <point x="1375" y="1204"/>
      <point x="1264" y="1097"/>
      <point x="1245" y="913" type="curve"/>
      <point x="1155" y="913" type="line"/>
      <point x="1155" y="538" type="line"/>
      <point x="1412" y="529" type="line"/>
      <point x="1412" y="704" type="line" smooth="yes"/>
      <point x="1412" y="835"/>
      <point x="1460" y="898"/>
      <point x="1567" y="898" type="curve" smooth="yes"/>
      <point x="1675" y="898"/>
      <point x="1724" y="835"/>
      <point x="1724" y="704" type="curve" smooth="yes"/>
      <point x="1724" y="542" type="line"/>
      <point x="1890" y="556" type="line"/>
    </contour>
    <contour>
      <point x="2533" y="1191" type="line" smooth="yes"/>
      <point x="2492" y="1200"/>
      <point x="2446" y="1204"/>
      <point x="2397" y="1204" type="curve" smooth="yes"/>
      <point x="2105" y="1204"/>
      <point x="1945" y="1091"/>
      <point x="1899" y="914" type="curve"/>
      <point x="1848" y="914" type="line"/>
      <point x="1857" y="541" type="line"/>
      <point x="2061" y="541" type="line"/>
      <point x="2061" y="632" type="line" smooth="yes"/>
      <point x="2061" y="832"/>
      <point x="2170" y="929"/>
      <point x="2386" y="929" type="curve" smooth="yes"/>
      <point x="2438" y="929"/>
      <point x="2481" y="922"/>
      <point x="2519" y="910" type="curve"/>
      <point x="2592" y="882" type="line"/>
      <point x="2698" y="825.327"/>
      <point x="2746" y="711.982"/>
      <point x="2746" y="545" type="curve" smooth="yes"/>
      <point x="2746" y="385" type="line" smooth="yes"/>
      <point x="2746" y="287.95"/>
      <point x="2717" y="243"/>
      <point x="2651" y="243" type="curve" smooth="yes"/>
      <point x="2586" y="243"/>
      <point x="2555" y="284.939"/>
      <point x="2555" y="377" type="curve" smooth="yes"/>
      <point x="2555" y="508" type="line" smooth="yes"/>
      <point x="2555" y="657.745"/>
      <point x="2590" y="788.395"/>
      <point x="2651" y="910" type="curve"/>
      <point x="2657" y="935"/>
      <point x="2695" y="1052"/>
      <point x="2701" y="1077" type="curve"/>
      <point x="2728" y="1149"/>
      <point x="2740" y="1214"/>
      <point x="2740" y="1283" type="curve" smooth="yes"/>
      <point x="2740" y="1385"/>
      <point x="2720" y="1461"/>
      <point x="2684" y="1531" type="curve"/>
      <point x="2386" y="1531" type="line"/>
      <point x="2424" y="1452"/>
      <point x="2443" y="1368"/>
      <point x="2443" y="1277" type="curve" smooth="yes"/>
      <point x="2443" y="1220"/>
      <point x="2434" y="1171"/>
      <point x="2417" y="1120" type="curve"/>
      <point x="2413" y="1097"/>
      <point x="2386" y="1008"/>
      <point x="2380" y="982" type="curve"/>
      <point x="2287" y="845.429"/>
      <point x="2225" y="710.866"/>
      <point x="2225" y="504" type="curve" smooth="yes"/>
      <point x="2225" y="379" type="line" smooth="yes"/>
      <point x="2225" y="110.046"/>
      <point x="2368" y="-34"/>
      <point x="2649" y="-34" type="curve" smooth="yes"/>
      <point x="2930" y="-34"/>
      <point x="3077" y="114.048"/>
      <point x="3077" y="390" type="curve" smooth="yes"/>
      <point x="3077" y="555" type="line" smooth="yes"/>
      <point x="3077" y="857.987"/>
      <point x="2951" y="1081.45"/>
      <point x="2647" y="1165" type="curve"/>
    </contour>
  </outline>
</glyph>
<glyph name="chilluN.mlm" format="2">
  <advance width="2183"/>
  <unicode hex="0D7B"/>
  <outline>
    <contour>
      <point x="757" y="605" type="line"/>
      <point x="757" y="4" type="line"/>
      <point x="1095" y="4" type="line"/>
      <point x="1095" y="657" type="line"/>
    </contour>
    <contour>
      <point x="593" y="898" type="curve" smooth="yes"/>
      <point x="706" y="898"/>
      <point x="757" y="835"/>
      <point x="757" y="704" type="curve" smooth="yes"/>
      <point x="757" y="525" type="line"/>
      <point x="931" y="531" type="line"/>
      <point x="925" y="914" type="line"/>
      <point x="902" y="1098"/>
      <point x="775" y="1204"/>
      <point x="543" y="1204" type="curve" smooth="yes"/>
      <point x="233" y="1204"/>
      <point x="79" y="1024.69"/>
      <point x="79" y="663" type="curve" smooth="yes"/>
      <point x="79" y="486" type="line" smooth="yes"/>
      <point x="79" y="296.092"/>
      <point x="114" y="115.374"/>
      <point x="187" y="0" type="curve"/>
      <point x="529" y="0" type="line"/>
      <point x="459" y="133.77"/>
      <point x="419" y="299.195"/>
      <point x="419" y="483" type="curve" smooth="yes"/>
      <point x="419" y="664" type="line" smooth="yes"/>
      <point x="419" y="823.83"/>
      <point x="474" y="898"/>
    </contour>
    <contour>
      <point x="1567" y="1191" type="line" smooth="yes"/>
      <point x="1526" y="1200"/>
      <point x="1480" y="1204"/>
      <point x="1431" y="1204" type="curve" smooth="yes"/>
      <point x="1139" y="1204"/>
      <point x="979" y="1091"/>
      <point x="933" y="914" type="curve"/>
      <point x="882" y="914" type="line"/>
      <point x="891" y="541" type="line"/>
      <point x="1095" y="541" type="line"/>
      <point x="1095" y="632" type="line" smooth="yes"/>
      <point x="1095" y="832"/>
      <point x="1204" y="929"/>
      <point x="1420" y="929" type="curve" smooth="yes"/>
      <point x="1472" y="929"/>
      <point x="1515" y="922"/>
      <point x="1553" y="910" type="curve"/>
      <point x="1626" y="882" type="line"/>
      <point x="1732" y="825.327"/>
      <point x="1780" y="711.982"/>
      <point x="1780" y="545" type="curve" smooth="yes"/>
      <point x="1780" y="385" type="line" smooth="yes"/>
      <point x="1780" y="287.95"/>
      <point x="1751" y="243"/>
      <point x="1685" y="243" type="curve" smooth="yes"/>
      <point x="1620" y="243"/>
      <point x="1589" y="284.939"/>
      <point x="1589" y="377" type="curve" smooth="yes"/>
      <point x="1589" y="508" type="line" smooth="yes"/>
      <point x="1589" y="657.745"/>
      <point x="1624" y="788.395"/>
      <point x="1685" y="910" type="curve"/>
      <point x="1691" y="935"/>
      <point x="1729" y="1052"/>
      <point x="1735" y="1077" type="curve"/>
      <point x="1762" y="1149"/>
      <point x="1774" y="1214"/>
      <point x="1774" y="1283" type="curve" smooth="yes"/>
      <point x="1774" y="1385"/>
      <point x="1754" y="1461"/>
      <point x="1718" y="1531" type="curve"/>
      <point x="1420" y="1531" type="line"/>
      <point x="1458" y="1452"/>
      <point x="1477" y="1368"/>
      <point x="1477" y="1277" type="curve" smooth="yes"/>
      <point x="1477" y="1220"/>
      <point x="1468" y="1171"/>
      <point x="1451" y="1120" type="curve"/>
      <point x="1447" y="1097"/>
      <point x="1420" y="1008"/>
      <point x="1414" y="982" type="curve"/>
      <point x="1321" y="845.429"/>
      <point x="1259" y="710.866"/>
      <point x="1259" y="504" type="curve" smooth="yes"/>
      <point x="1259" y="379" type="line" smooth="yes"/>
      <point x="1259" y="110.046"/>
      <point x="1402" y="-34"/>
      <point x="1683" y="-34" type="curve" smooth="yes"/>
      <point x="1964" y="-34"/>
      <point x="2111" y="114.048"/>
      <point x="2111" y="390" type="curve" smooth="yes"/>
      <point x="2111" y="555" type="line" smooth="yes"/>
      <point x="2111" y="857.987"/>
      <point x="1985" y="1081.45"/>
      <point x="1681" y="1165" type="curve"/>
    </contour>
  </outline>
</glyph>
<glyph name="BaBa.mlm" format="2">
  <advance width="2752"/>
  <outline>
    <component base="Ba.mlm"/>
    <contour>
      <point x="2350" y="244" type="line"/>
      <point x="2350" y="-489" type="line"/>
      <point x="2649" y="-489" type="line"/>
      <point x="2649" y="244" type="line"/>
    </contour>
    <contour>
      <point x="1941" y="-260" type="line"/>
      <point x="2079" y="-179"/>
      <point x="2147" y="-74"/>
      <point x="2158" y="60" type="curve"/>
      <point x="1844" y="56" type="line"/>
      <point x="1839" y="-73"/>
      <point x="1699" y="-182"/>
      <point x="1481" y="-259" type="curve"/>
      <point x="1512" y="-489" type="line"/>
      <point x="2608" y="-489" type="line"/>
      <point x="2608" y="-260" type="line"/>
    </contour>
  </outline>
</glyph>
<glyph name="BaDa.mlm" format="2">
  <advance width="2752"/>
  <outline>
    <component base="Ba.mlm"/>
    <contour>
      <point x="2572" y="-68" type="line" smooth="yes"/>
      <point x="2572" y="51"/>
      <point x="2441" y="115"/>
      <point x="2185" y="115" type="curve" smooth="yes"/>
      <point x="1883" y="115"/>
      <point x="1740" y="7.05125"/>
      <point x="1740" y="-235" type="curve" smooth="yes"/>
      <point x="1740" y="-271" type="line" smooth="yes"/>
      <point x="1740" y="-371.322"/>
      <point x="1755" y="-464.611"/>
      <point x="1783" y="-532" type="curve"/>
      <point x="2020" y="-532" type="line"/>
      <point x="1995" y="-448.152"/>
      <point x="1980" y="-359.129"/>
      <point x="1980" y="-267" type="curve" smooth="yes"/>
      <point x="1980" y="-232" type="line" smooth="yes"/>
      <point x="1980" y="-89.7611"/>
      <point x="2045" y="-29"/>
      <point x="2190" y="-29" type="curve" smooth="yes"/>
      <point x="2288" y="-29"/>
      <point x="2332" y="-44"/>
      <point x="2332" y="-78" type="curve"/>
      <point x="2332" y="-80" type="line"/>
      <point x="2332" y="-101.353"/>
      <point x="2310.97" y="-110.908"/>
      <point x="2257" y="-113" type="curve" smooth="yes"/>
      <point x="2128" y="-118" type="line"/>
      <point x="2128" y="-282" type="line"/>
      <point x="2257" y="-287" type="line" smooth="yes"/>
      <point x="2316.99" y="-289.325"/>
      <point x="2341" y="-299.698"/>
      <point x="2341" y="-329" type="curve"/>
      <point x="2341" y="-331" type="line"/>
      <point x="2341" y="-365"/>
      <point x="2309" y="-375"/>
      <point x="2249" y="-375" type="curve" smooth="yes"/>
      <point x="2198" y="-375"/>
      <point x="2158" y="-373"/>
      <point x="2104" y="-364" type="curve"/>
      <point x="2130" y="-532" type="line"/>
      <point x="2183" y="-543"/>
      <point x="2234" y="-547"/>
      <point x="2296" y="-547" type="curve" smooth="yes"/>
      <point x="2490" y="-547"/>
      <point x="2584" y="-483"/>
      <point x="2584" y="-361" type="curve" smooth="yes"/>
      <point x="2584" y="-356" type="line" smooth="yes"/>
      <point x="2584" y="-275"/>
      <point x="2539" y="-223"/>
      <point x="2438" y="-201" type="curve"/>
      <point x="2438" y="-198" type="line"/>
      <point x="2532" y="-180"/>
      <point x="2572" y="-136"/>
      <point x="2572" y="-71" type="curve" smooth="yes"/>
    </contour>
  </outline>
</glyph>
<glyph name="BaLa.mlm" format="2">
  <advance width="2750"/>
  <outline>
    <component base="Ba.mlm"/>
    <contour>
      <point x="1710" y="134" type="curve" smooth="yes"/>
      <point x="1397" y="134"/>
      <point x="1222" y="0.256531"/>
      <point x="1222" y="-259" type="curve" smooth="yes"/>
      <point x="1222" y="-279" type="line" smooth="yes"/>
      <point x="1222" y="-457.615"/>
      <point x="1327" y="-549"/>
      <point x="1534" y="-549" type="curve" smooth="yes"/>
      <point x="1734" y="-549"/>
      <point x="1838" y="-475"/>
      <point x="1838" y="-324" type="curve" smooth="yes"/>
      <point x="1838" y="-306" type="line" smooth="yes"/>
      <point x="1838" y="-177"/>
      <point x="1762" y="-107"/>
      <point x="1633" y="-107" type="curve" smooth="yes"/>
      <point x="1533" y="-107"/>
      <point x="1468" y="-152"/>
      <point x="1448" y="-240" type="curve"/>
      <point x="1451" y="-305" type="line"/>
      <point x="1468" y="-283"/>
      <point x="1495" y="-269"/>
      <point x="1534" y="-269" type="curve" smooth="yes"/>
      <point x="1582" y="-269"/>
      <point x="1607" y="-287"/>
      <point x="1607" y="-324" type="curve" smooth="yes"/>
      <point x="1607" y="-330" type="line" smooth="yes"/>
      <point x="1607" y="-367"/>
      <point x="1579" y="-384"/>
      <point x="1533" y="-384" type="curve" smooth="yes"/>
      <point x="1482" y="-384"/>
      <point x="1455" y="-362"/>
      <point x="1455" y="-317" type="curve" smooth="yes"/>
      <point x="1455" y="-265" type="line"/>
      <point x="1459" y="-227" type="line"/>
      <point x="1446" y="-227" type="line"/>
      <point x="1446" y="-110.687"/>
      <point x="1535.19" y="-46"/>
      <point x="1693" y="-46" type="curve" smooth="yes"/>
      <point x="1861" y="-46"/>
      <point x="1937.46" y="-112.163"/>
      <point x="1947" y="-241" type="curve" smooth="yes"/>
      <point x="1949" y="-268" type="line" smooth="yes"/>
      <point x="1963.06" y="-457.825"/>
      <point x="2063" y="-549"/>
      <point x="2295" y="-549" type="curve" smooth="yes"/>
      <point x="2521" y="-549"/>
      <point x="2639" y="-450.383"/>
      <point x="2639" y="-244" type="curve" smooth="yes"/>
      <point x="2639" y="-218" type="line" smooth="yes"/>
      <point x="2639" y="-120.595"/>
      <point x="2610" y="-36.519"/>
      <point x="2554" y="25" type="curve"/>
      <point x="2314" y="25" type="line"/>
      <point x="2374" y="-39.6951"/>
      <point x="2399" y="-116.713"/>
      <point x="2399" y="-204" type="curve" smooth="yes"/>
      <point x="2399" y="-226" type="line" smooth="yes"/>
      <point x="2399" y="-309.279"/>
      <point x="2369" y="-353"/>
      <point x="2295" y="-353" type="curve" smooth="yes"/>
      <point x="2221" y="-353"/>
      <point x="2193.58" y="-314.981"/>
      <point x="2187" y="-236" type="curve" smooth="yes"/>
      <point x="2185" y="-212" type="line" smooth="yes"/>
      <point x="2175.02" y="-92.2112"/>
      <point x="2117" y="-9"/>
      <point x="2000" y="48" type="curve"/>
      <point x="1988" y="53"/>
      <point x="1976" y="66"/>
      <point x="1963" y="73" type="curve" smooth="yes"/>
      <point x="1893" y="110"/>
      <point x="1817" y="134"/>
    </contour>
  </outline>
</glyph>
<glyph name="CaCha.mlm" format="2">
  <advance width="1756"/>
  <outline>
    <component base="Ca.mlm"/>
    <contour>
      <point x="39" y="-383" type="line"/>
      <point x="69" y="-534" type="line"/>
      <point x="963" y="-534" type="line"/>
      <point x="927" y="-383" type="line"/>
    </contour>
    <contour>
      <point x="420" y="-410" type="curve"/>
      <point x="592" y="-436" type="line"/>
      <point x="657" y="-398"/>
      <point x="690" y="-339"/>
      <point x="690" y="-273" type="curve" smooth="yes"/>
      <point x="690" y="-264" type="line" smooth="yes"/>
      <point x="690" y="-125"/>
      <point x="596" y="-56"/>
      <point x="410" y="-56" type="curve" smooth="yes"/>
      <point x="227" y="-56"/>
      <point x="136" y="-120"/>
      <point x="136" y="-243" type="curve" smooth="yes"/>
      <point x="136" y="-251" type="line" smooth="yes"/>
      <point x="136" y="-280"/>
      <point x="144" y="-305"/>
      <point x="153" y="-323" type="curve"/>
      <point x="347" y="-323" type="line"/>
      <point x="343" y="-311.371"/>
      <point x="341" y="-298.686"/>
      <point x="341" y="-286" type="curve" smooth="yes"/>
      <point x="341" y="-282" type="line" smooth="yes"/>
      <point x="341" y="-240"/>
      <point x="363" y="-218"/>
      <point x="409" y="-218" type="curve" smooth="yes"/>
      <point x="456" y="-218"/>
      <point x="477" y="-240"/>
      <point x="477" y="-284" type="curve" smooth="yes"/>
      <point x="477" y="-291" type="line" smooth="yes"/>
      <point x="477" y="-334"/>
      <point x="457" y="-377"/>
    </contour>
    <contour>
      <point x="1223" y="99" type="curve" smooth="yes"/>
      <point x="936" y="99"/>
      <point x="789" y="-25.4971"/>
      <point x="789" y="-250" type="curve" smooth="yes"/>
      <point x="789" y="-267" type="line" smooth="yes"/>
      <point x="789" y="-374.644"/>
      <point x="823.485" y="-477.012"/>
      <point x="870" y="-534" type="curve"/>
      <point x="1053" y="-534" type="line"/>
      <point x="1053" y="-516" type="line"/>
      <point x="1025" y="-455.276"/>
      <point x="1006" y="-381.769"/>
      <point x="1006" y="-304" type="curve" smooth="yes"/>
      <point x="1006" y="-283" type="line" smooth="yes"/>
      <point x="1006" y="-127.709"/>
      <point x="1084" y="-49"/>
      <point x="1229" y="-49" type="curve" smooth="yes"/>
      <point x="1372.82" y="-49"/>
      <point x="1448" y="-111.487"/>
      <point x="1448" y="-231" type="curve"/>
      <point x="1436" y="-231" type="line"/>
      <point x="1439" y="-273" type="line"/>
      <point x="1439" y="-323" type="line" smooth="yes"/>
      <point x="1439" y="-368.313"/>
      <point x="1417" y="-392"/>
      <point x="1373" y="-392" type="curve" smooth="yes"/>
      <point x="1334" y="-392"/>
      <point x="1310" y="-372.655"/>
      <point x="1310" y="-336" type="curve" smooth="yes"/>
      <point x="1310" y="-328" type="line" smooth="yes"/>
      <point x="1310" y="-290.642"/>
      <point x="1332" y="-273"/>
      <point x="1372" y="-273" type="curve" smooth="yes"/>
      <point x="1405" y="-273"/>
      <point x="1429" y="-286"/>
      <point x="1443" y="-308" type="curve"/>
      <point x="1446" y="-244" type="line"/>
      <point x="1429" y="-159"/>
      <point x="1371" y="-115"/>
      <point x="1283" y="-115" type="curve" smooth="yes"/>
      <point x="1169" y="-115"/>
      <point x="1102" y="-185.423"/>
      <point x="1102" y="-313" type="curve" smooth="yes"/>
      <point x="1102" y="-329" type="line" smooth="yes"/>
      <point x="1102" y="-477.009"/>
      <point x="1195" y="-550"/>
      <point x="1372" y="-550" type="curve" smooth="yes"/>
      <point x="1557" y="-550"/>
      <point x="1649" y="-458.599"/>
      <point x="1649" y="-280" type="curve" smooth="yes"/>
      <point x="1649" y="-255" type="line" smooth="yes"/>
      <point x="1649" y="-33.8798"/>
      <point x="1509" y="99"/>
    </contour>
  </outline>
</glyph>
<glyph name="DaDa.mlm" format="2">
  <advance width="1307"/>
  <outline>
    <contour>
      <point x="1241" y="366" type="curve" smooth="yes"/>
      <point x="1241" y="370" type="line" smooth="yes"/>
      <point x="1241" y="512.259"/>
      <point x="1160" y="578.848"/>
      <point x="991" y="596" type="curve"/>
      <point x="991" y="604" type="line"/>
      <point x="1157" y="625"/>
      <point x="1235" y="709"/>
      <point x="1235" y="848" type="curve" smooth="yes"/>
      <point x="1235" y="855" type="line" smooth="yes"/>
      <point x="1235" y="1086.69"/>
      <point x="1050" y="1208"/>
      <point x="690" y="1208" type="curve" smooth="yes"/>
      <point x="279" y="1208"/>
      <point x="81" y="1014.97"/>
      <point x="81" y="632" type="curve" smooth="yes"/>
      <point x="81" y="446" type="line" smooth="yes"/>
      <point x="81" y="276.095"/>
      <point x="103" y="113.27"/>
      <point x="145" y="0" type="curve"/>
      <point x="481" y="0" type="line"/>
      <point x="443" y="131.487"/>
      <point x="421" y="278.146"/>
      <point x="421" y="442" type="curve" smooth="yes"/>
      <point x="421" y="630" type="line" smooth="yes"/>
      <point x="421" y="828.217"/>
      <point x="503" y="921"/>
      <point x="692" y="921" type="curve" smooth="yes"/>
      <point x="831" y="921"/>
      <point x="893" y="887.641"/>
      <point x="893" y="817" type="curve" smooth="yes"/>
      <point x="893" y="810" type="line" smooth="yes"/>
      <point x="893" y="764.141"/>
      <point x="861.044" y="739.854"/>
      <point x="784" y="737" type="curve" smooth="yes"/>
      <point x="622" y="731" type="line"/>
      <point x="622" y="459" type="line"/>
      <point x="786" y="453" type="line" smooth="yes"/>
      <point x="866.998" y="450.037"/>
      <point x="897" y="423.094"/>
      <point x="897" y="371" type="curve" smooth="yes"/>
      <point x="897" y="364" type="line" smooth="yes"/>
      <point x="897" y="312.893"/>
      <point x="867.017" y="286.458"/>
      <point x="786" y="283" type="curve" smooth="yes"/>
      <point x="622" y="276" type="line"/>
      <point x="622" y="4" type="line"/>
      <point x="785" y="-2" type="line" smooth="yes"/>
      <point x="869.026" y="-5.093"/>
      <point x="902" y="-32.7241"/>
      <point x="902" y="-83" type="curve" smooth="yes"/>
      <point x="902" y="-89" type="line" smooth="yes"/>
      <point x="902" y="-147.322"/>
      <point x="856" y="-175"/>
      <point x="757" y="-175" type="curve" smooth="yes"/>
      <point x="674" y="-175"/>
      <point x="616" y="-168"/>
      <point x="541" y="-149" type="curve"/>
      <point x="579" y="-413" type="line"/>
      <point x="658" y="-433"/>
      <point x="736" y="-443"/>
      <point x="823" y="-443" type="curve" smooth="yes"/>
      <point x="1104" y="-443"/>
      <point x="1241" y="-340.339"/>
      <point x="1241" y="-140" type="curve" smooth="yes"/>
      <point x="1241" y="-129" type="line" smooth="yes"/>
      <point x="1241" y="17.4389"/>
      <point x="1161" y="107.095"/>
      <point x="993" y="132" type="curve"/>
      <point x="993" y="140" type="line"/>
      <point x="1160" y="157.152"/>
      <point x="1241" y="225.759"/>
    </contour>
  </outline>
</glyph>
<glyph name="DaDha.mlm" format="2">
  <advance width="2515"/>
  <outline>
    <contour>
      <point x="1775" y="525" type="line"/>
      <point x="1775" y="1154" type="line"/>
      <point x="1437" y="1154" type="line"/>
      <point x="1437" y="525" type="line"/>
    </contour>
    <contour>
      <point x="1437" y="635" type="line"/>
      <point x="1437" y="466" type="line" smooth="yes"/>
      <point x="1437" y="325"/>
      <point x="1387" y="266"/>
      <point x="1278" y="266" type="curve" smooth="yes"/>
      <point x="950" y="266" type="line"/>
      <point x="807" y="0" type="line"/>
      <point x="1231" y="0" type="line" smooth="yes"/>
      <point x="1461" y="0"/>
      <point x="1579" y="97"/>
      <point x="1601" y="246" type="curve"/>
      <point x="1691" y="246" type="line"/>
      <point x="1699" y="614" type="line"/>
    </contour>
    <contour>
      <point x="693.937" y="1208" type="curve" smooth="yes"/>
      <point x="280.937" y="1208"/>
      <point x="81" y="1014.97"/>
      <point x="81" y="632" type="curve" smooth="yes"/>
      <point x="81" y="446" type="line" smooth="yes"/>
      <point x="81" y="276.095"/>
      <point x="103" y="113.27"/>
      <point x="145" y="0" type="curve"/>
      <point x="481" y="0" type="line"/>
      <point x="443" y="131.487"/>
      <point x="421" y="278.146"/>
      <point x="421" y="442" type="curve" smooth="yes"/>
      <point x="421" y="630" type="line" smooth="yes"/>
      <point x="421" y="828.217"/>
      <point x="504" y="921"/>
      <point x="695" y="921" type="curve" smooth="yes"/>
      <point x="836.984" y="921"/>
      <point x="899.937" y="886.352"/>
      <point x="899.937" y="814" type="curve" smooth="yes"/>
      <point x="899.937" y="805" type="line" smooth="yes"/>
      <point x="899.937" y="757.24"/>
      <point x="866.984" y="730.768"/>
      <point x="783.937" y="728" type="curve" smooth="yes"/>
      <point x="633.937" y="723" type="line"/>
      <point x="633.937" y="450" type="line"/>
      <point x="785.937" y="444" type="line" smooth="yes"/>
      <point x="877.949" y="440.368"/>
      <point x="913.937" y="413.079"/>
      <point x="913.937" y="358" type="curve" smooth="yes"/>
      <point x="913.937" y="350" type="line" smooth="yes"/>
      <point x="913.937" y="292.015"/>
      <point x="879.964" y="267.464"/>
      <point x="792.937" y="264" type="curve" smooth="yes"/>
      <point x="591.937" y="256" type="line"/>
      <point x="629.937" y="0" type="line"/>
      <point x="923.937" y="0" type="line"/>
      <point x="956.937" y="163" type="line"/>
      <point x="1155.94" y="173"/>
      <point x="1254.94" y="244.996"/>
      <point x="1254.94" y="370" type="curve" smooth="yes"/>
      <point x="1254.94" y="375" type="line" smooth="yes"/>
      <point x="1254.94" y="500"/>
      <point x="1184.94" y="575"/>
      <point x="987.937" y="588" type="curve"/>
      <point x="987.937" y="596" type="line"/>
      <point x="1160.94" y="617"/>
      <point x="1240.94" y="703"/>
      <point x="1240.94" y="846" type="curve" smooth="yes"/>
      <point x="1240.94" y="853" type="line" smooth="yes"/>
      <point x="1240.94" y="1087"/>
      <point x="1055.53" y="1208"/>
    </contour>
    <contour>
      <point x="1611" y="246" type="line"/>
      <point x="1634" y="76"/>
      <point x="1753" y="-33"/>
      <point x="1983" y="-33" type="curve" smooth="yes"/>
      <point x="2285" y="-33"/>
      <point x="2436" y="139.638"/>
      <point x="2436" y="494" type="curve" smooth="yes"/>
      <point x="2436" y="678" type="line" smooth="yes"/>
      <point x="2436" y="866.96"/>
      <point x="2395" y="1039.75"/>
      <point x="2313" y="1160" type="curve"/>
      <point x="1977" y="1160" type="line"/>
      <point x="2054" y="1030.64"/>
      <point x="2096" y="865.904"/>
      <point x="2096" y="685" type="curve" smooth="yes"/>
      <point x="2096" y="498" type="line" smooth="yes"/>
      <point x="2096" y="345.598"/>
      <point x="2042" y="274"/>
      <point x="1930" y="274" type="curve" smooth="yes"/>
      <point x="1825" y="274"/>
      <point x="1775" y="335"/>
      <point x="1775" y="466" type="curve" smooth="yes"/>
      <point x="1775" y="635" type="line"/>
      <point x="1602" y="635" type="line"/>
    </contour>
  </outline>
</glyph>
<glyph name="GaDa.mlm" format="2">
  <advance width="1889"/>
  <outline>
    <contour>
      <point x="1274" y="1208" type="curve" smooth="yes"/>
      <point x="887" y="1208"/>
      <point x="698" y="1048.32"/>
      <point x="698" y="733" type="curve" smooth="yes"/>
      <point x="698" y="624.636"/>
      <point x="707" y="542.396"/>
      <point x="707" y="435" type="curve" smooth="yes"/>
      <point x="707" y="318.576"/>
      <point x="665" y="265"/>
      <point x="571" y="265" type="curve" smooth="yes"/>
      <point x="469" y="265"/>
      <point x="419" y="330.569"/>
      <point x="419" y="474" type="curve" smooth="yes"/>
      <point x="419" y="673" type="line" smooth="yes"/>
      <point x="419" y="858.909"/>
      <point x="464" y="1025.62"/>
      <point x="547" y="1160" type="curve"/>
      <point x="213" y="1160" type="line"/>
      <point x="123" y="1037.76"/>
      <point x="79" y="859.963"/>
      <point x="79" y="666" type="curve" smooth="yes"/>
      <point x="79" y="472" type="line" smooth="yes"/>
      <point x="79" y="133.657"/>
      <point x="246" y="-34"/>
      <point x="572" y="-34" type="curve" smooth="yes"/>
      <point x="887" y="-34"/>
      <point x="1045" y="118.67"/>
      <point x="1045" y="423" type="curve" smooth="yes"/>
      <point x="1045" y="529.382"/>
      <point x="1036" y="612.553"/>
      <point x="1036" y="717" type="curve" smooth="yes"/>
      <point x="1036" y="856.417"/>
      <point x="1109" y="921"/>
      <point x="1275" y="921" type="curve" smooth="yes"/>
      <point x="1406.8" y="921"/>
      <point x="1468" y="886"/>
      <point x="1468" y="814" type="curve" smooth="yes"/>
      <point x="1468" y="804" type="line" smooth="yes"/>
      <point x="1468" y="756"/>
      <point x="1433.98" y="731.582"/>
      <point x="1351" y="728" type="curve" smooth="yes"/>
      <point x="1212" y="722" type="line"/>
      <point x="1212" y="450" type="line"/>
      <point x="1353" y="444" type="line" smooth="yes"/>
      <point x="1445.01" y="440.085"/>
      <point x="1481" y="410.529"/>
      <point x="1481" y="353" type="curve" smooth="yes"/>
      <point x="1481" y="344" type="line" smooth="yes"/>
      <point x="1481" y="281.011"/>
      <point x="1435.77" y="249"/>
      <point x="1339" y="249" type="curve" smooth="yes"/>
      <point x="1262.23" y="249"/>
      <point x="1213.47" y="254"/>
      <point x="1145" y="270" type="curve"/>
      <point x="1182" y="1" type="line"/>
      <point x="1257.2" y="-17"/>
      <point x="1330.34" y="-25"/>
      <point x="1421" y="-25" type="curve" smooth="yes"/>
      <point x="1691.71" y="-25"/>
      <point x="1823" y="82.0388"/>
      <point x="1823" y="290" type="curve" smooth="yes"/>
      <point x="1823" y="307" type="line" smooth="yes"/>
      <point x="1823" y="469.507"/>
      <point x="1736" y="562.515"/>
      <point x="1556" y="585" type="curve"/>
      <point x="1556" y="593" type="line"/>
      <point x="1729" y="614"/>
      <point x="1809" y="700"/>
      <point x="1809" y="844" type="curve" smooth="yes"/>
      <point x="1809" y="852" type="line" smooth="yes"/>
      <point x="1809" y="1087"/>
      <point x="1627.08" y="1208"/>
    </contour>
  </outline>
</glyph>
<glyph name="GaLa.mlm" format="2">
  <advance width="1747"/>
  <outline>
    <contour>
      <point x="1034" y="732" type="curve" smooth="yes"/>
      <point x="1034" y="852.462"/>
      <point x="1080" y="906"/>
      <point x="1175" y="906" type="curve" smooth="yes"/>
      <point x="1277" y="906"/>
      <point x="1328" y="837.427"/>
      <point x="1328" y="688" type="curve" smooth="yes"/>
      <point x="1328" y="486" type="line" smooth="yes"/>
      <point x="1328" y="302.108"/>
      <point x="1284" y="133.372"/>
      <point x="1210" y="0" type="curve"/>
      <point x="1555" y="0" type="line"/>
      <point x="1630" y="114.167"/>
      <point x="1668" y="299.058"/>
      <point x="1668" y="489" type="curve" smooth="yes"/>
      <point x="1668" y="691" type="line" smooth="yes"/>
      <point x="1668" y="1035.35"/>
      <point x="1501" y="1205"/>
      <point x="1174" y="1205" type="curve" smooth="yes"/>
      <point x="856" y="1205"/>
      <point x="696" y="1052.34"/>
      <point x="696" y="744" type="curve" smooth="yes"/>
      <point x="696" y="632.605"/>
      <point x="705" y="546.395"/>
      <point x="705" y="435" type="curve" smooth="yes"/>
      <point x="705" y="318.576"/>
      <point x="663" y="265"/>
      <point x="570" y="265" type="curve" smooth="yes"/>
      <point x="468" y="265"/>
      <point x="419" y="330.569"/>
      <point x="419" y="474" type="curve" smooth="yes"/>
      <point x="419" y="673" type="line" smooth="yes"/>
      <point x="419" y="858.909"/>
      <point x="464" y="1025.62"/>
      <point x="547" y="1160" type="curve"/>
      <point x="213" y="1160" type="line"/>
      <point x="123" y="1037.76"/>
      <point x="79" y="859.963"/>
      <point x="79" y="666" type="curve" smooth="yes"/>
      <point x="79" y="472" type="line" smooth="yes"/>
      <point x="79" y="143.663"/>
      <point x="243" y="-20"/>
      <point x="566" y="-20" type="curve" smooth="yes"/>
      <point x="884" y="-20"/>
      <point x="1043" y="127.667"/>
      <point x="1043" y="423" type="curve" smooth="yes"/>
      <point x="1043" y="535.364"/>
      <point x="1034" y="621.574"/>
    </contour>
    <contour>
      <point x="1576" y="-227" type="line" smooth="yes"/>
      <point x="1576" y="-118.328"/>
      <point x="1539" y="-22.8594"/>
      <point x="1429" y="33" type="curve"/>
      <point x="1210" y="1" type="line"/>
      <point x="1303" y="-47.9187"/>
      <point x="1336" y="-119.258"/>
      <point x="1336" y="-212" type="curve" smooth="yes"/>
      <point x="1336" y="-230" type="line" smooth="yes"/>
      <point x="1336" y="-311.633"/>
      <point x="1305" y="-354"/>
      <point x="1230" y="-354" type="curve" smooth="yes"/>
      <point x="1154" y="-354"/>
      <point x="1126.58" y="-315.981"/>
      <point x="1120" y="-237" type="curve" smooth="yes"/>
      <point x="1118" y="-213" type="line" smooth="yes"/>
      <point x="1100.19" y="0.716644"/>
      <point x="955" y="121"/>
      <point x="630" y="121" type="curve" smooth="yes"/>
      <point x="315" y="121"/>
      <point x="151" y="-6.02438"/>
      <point x="151" y="-257" type="curve" smooth="yes"/>
      <point x="151" y="-281" type="line" smooth="yes"/>
      <point x="151" y="-459.303"/>
      <point x="257" y="-550"/>
      <point x="465" y="-550" type="curve" smooth="yes"/>
      <point x="665" y="-550"/>
      <point x="770" y="-475"/>
      <point x="770" y="-325" type="curve" smooth="yes"/>
      <point x="770" y="-307" type="line" smooth="yes"/>
      <point x="770" y="-178"/>
      <point x="694" y="-108"/>
      <point x="564" y="-108" type="curve" smooth="yes"/>
      <point x="463" y="-108"/>
      <point x="397" y="-154"/>
      <point x="377" y="-242" type="curve"/>
      <point x="379" y="-306" type="line"/>
      <point x="396" y="-284"/>
      <point x="426" y="-270"/>
      <point x="465" y="-270" type="curve" smooth="yes"/>
      <point x="514" y="-270"/>
      <point x="539" y="-288"/>
      <point x="539" y="-325" type="curve" smooth="yes"/>
      <point x="539" y="-331" type="line" smooth="yes"/>
      <point x="539" y="-368"/>
      <point x="510" y="-386"/>
      <point x="463" y="-386" type="curve" smooth="yes"/>
      <point x="411" y="-386"/>
      <point x="384" y="-363"/>
      <point x="384" y="-319" type="curve" smooth="yes"/>
      <point x="384" y="-267" type="line"/>
      <point x="388" y="-228" type="line"/>
      <point x="375" y="-228" type="line"/>
      <point x="375" y="-110.734"/>
      <point x="464.2" y="-48"/>
      <point x="625" y="-48" type="curve" smooth="yes"/>
      <point x="794" y="-48"/>
      <point x="871.168" y="-114.186"/>
      <point x="881" y="-242" type="curve" smooth="yes"/>
      <point x="883" y="-268" type="line" smooth="yes"/>
      <point x="897.599" y="-457.784"/>
      <point x="996" y="-550"/>
      <point x="1230" y="-550" type="curve" smooth="yes"/>
      <point x="1457" y="-550"/>
      <point x="1576" y="-452.711"/>
      <point x="1576" y="-248" type="curve" smooth="yes"/>
    </contour>
  </outline>
</glyph>
<glyph name="GaNa.mlm" format="2">
  <advance width="2415"/>
  <outline>
    <contour>
      <point x="1666" y="632" type="line"/>
      <point x="1328" y="632" type="line"/>
      <point x="1328" y="4" type="line"/>
      <point x="1666" y="4" type="line"/>
    </contour>
    <contour>
      <point x="1132" y="1204" type="curve" smooth="yes"/>
      <point x="843" y="1204"/>
      <point x="700" y="1050.35"/>
      <point x="700" y="738" type="curve" smooth="yes"/>
      <point x="700" y="629.578"/>
      <point x="709" y="543.422"/>
      <point x="709" y="435" type="curve" smooth="yes"/>
      <point x="709" y="318.576"/>
      <point x="665" y="265"/>
      <point x="571" y="265" type="curve" smooth="yes"/>
      <point x="468" y="265"/>
      <point x="419" y="330.569"/>
      <point x="419" y="474" type="curve" smooth="yes"/>
      <point x="419" y="673" type="line" smooth="yes"/>
      <point x="419" y="858.909"/>
      <point x="464" y="1025.62"/>
      <point x="547" y="1160" type="curve"/>
      <point x="213" y="1160" type="line"/>
      <point x="123" y="1037.76"/>
      <point x="79" y="859.963"/>
      <point x="79" y="666" type="curve" smooth="yes"/>
      <point x="79" y="472" type="line" smooth="yes"/>
      <point x="79" y="133.657"/>
      <point x="246" y="-34"/>
      <point x="572" y="-34" type="curve" smooth="yes"/>
      <point x="889" y="-34"/>
      <point x="1047" y="118.67"/>
      <point x="1047" y="423" type="curve" smooth="yes"/>
      <point x="1047" y="530.408"/>
      <point x="1038" y="615.56"/>
      <point x="1038" y="722" type="curve" smooth="yes"/>
      <point x="1038" y="842.421"/>
      <point x="1084" y="898"/>
      <point x="1184" y="898" type="curve" smooth="yes"/>
      <point x="1284" y="898"/>
      <point x="1328" y="843"/>
      <point x="1328" y="727" type="curve" smooth="yes"/>
      <point x="1328" y="524" type="line"/>
      <point x="1501" y="519" type="line"/>
      <point x="1495" y="924" type="line"/>
      <point x="1470" y="1095"/>
      <point x="1357" y="1204"/>
    </contour>
    <contour>
      <point x="1666" y="525" type="line"/>
      <point x="1666" y="702" type="line" smooth="yes"/>
      <point x="1666" y="835"/>
      <point x="1716" y="898"/>
      <point x="1826" y="898" type="curve" smooth="yes"/>
      <point x="1942" y="898"/>
      <point x="1996" y="825.732"/>
      <point x="1996" y="670" type="curve" smooth="yes"/>
      <point x="1996" y="478" type="line" smooth="yes"/>
      <point x="1996" y="296.097"/>
      <point x="1956" y="132.385"/>
      <point x="1885" y="0" type="curve"/>
      <point x="2227" y="0" type="line"/>
      <point x="2301" y="114.187"/>
      <point x="2336" y="293.046"/>
      <point x="2336" y="481" type="curve" smooth="yes"/>
      <point x="2336" y="669" type="line" smooth="yes"/>
      <point x="2336" y="1026.67"/>
      <point x="2182" y="1204"/>
      <point x="1874" y="1204" type="curve" smooth="yes"/>
      <point x="1644" y="1204"/>
      <point x="1531" y="1095"/>
      <point x="1503" y="924" type="curve"/>
      <point x="1412" y="924" type="line"/>
      <point x="1404" y="546" type="line"/>
    </contour>
  </outline>
</glyph>
